{
.appVersion = "1286";
classes = (
{
automatic = 1;
code = "A Aacute Abreve Acircumflex Adieresis Agrave Amacron Aogonek Aring Aringacute Atilde AE AEacute B C Cacute Ccaron Ccedilla Cdotaccent D Eth Dcaron Dcroat E Eacute Ecaron Ecircumflex Edieresis Edotaccent Egrave Emacron Eogonek F G Gbreve Gcommaaccent Gdotaccent H Hbar I IJ Iacute Icircumflex Idieresis Idotaccent Igrave Imacron Iogonek J K Kcommaaccent L Lacute Lcaron Lcommaaccent Ldot Lslash M N Nacute Ncaron Ncommaaccent Eng Ntilde O Oacute Ocircumflex Odieresis Ograve Ohungarumlaut Omacron Oslash Oslashacute Otilde OE P Thorn Q R Racute Rcaron Rcommaaccent S Sacute Scaron Scedilla Scommaaccent Germandbls T Tbar Tcaron Tcedilla Tcommaaccent U Uacute Ubreve Ucircumflex Udieresis Ugrave Uhungarumlaut Umacron Uogonek Uring V W Wacute Wcircumflex Wdieresis Wgrave X Y Yacute Ycircumflex Ydieresis Ygrave Z Zacute Zcaron Zdotaccent B.ss03 D.ss03 Eth.ss03 Dcaron.ss03 Dcroat.ss03 I.ss04 IJ.ss04 Iacute.ss04 Icircumflex.ss04 Idieresis.ss04 Idotaccent.ss04 Igrave.ss04 Imacron.ss04 Iogonek.ss04 J.ss04";
name = Uppercase;
},
{
code = "zero zero.zero one two three four five six seven eight nine zero.tf zero.tf.zero one.tf two.tf three.tf four.tf five.tf six.tf seven.tf eight.tf nine.tf";
name = Numbers;
}
);
copyright = "Copyright 2019 The Space Grotesk Project Authors (https://github.com/floriankarsten/space-grotesk)";
customParameters = (
{
name = vendorID;
value = FK;
},
{
name = licenseURL;
value = "http://scripts.sil.org/OFL";
},
{
name = Axes;
value = (
{
Name = Weight;
Tag = wght;
}
);
},
{
name = variableFileName;
value = "Space Grotesk VF";
},
{
name = fsType;
value = (
);
},
{
name = license;
value = "This Font Software is licensed under the SIL Open Font License, Version 1.1. This license is available with a FAQ at: http://scripts.sil.org/OFL";
}
);
date = "2019-12-28 00:07:15 +0000";
designer = "Florian Karsten (Space Grotesk), Colophon Foundry (Space Mono)";
designerURL = floriankarsten.com;

glyphs = (
{
glyphname = A;
lastChange = "2020-04-22 10:19:59 +0000";
layers = (
{
anchors = (
{
name = bottom;
position = "{557, 0}";
},
{
name = top;
position = "{304, 700}";
}
);
layerId = "A285862E-BE3D-4D67-A40D-0E28E121AD88";
paths = (
{
closed = 1;
nodes = (
"20 0 LINE",
"79 0 LINE",
"141 190 LINE",
"467 190 LINE",
"529 0 LINE",
"588 0 LINE",
"352 700 LINE",
"256 700 LINE"
);
},
{
closed = 1;
nodes = (
"299 670 LINE",
"309 670 LINE",
"451 238 LINE",
"157 238 LINE"
);
}
);
width = 608;
},
{
anchors = (
{
name = bottom;
position = "{544, 0}";
},
{
name = top;
position = "{303, 700}";
}
);
layerId = "5117E3E8-E17C-4812-BAF5-9E7064564A59";
paths = (
{
closed = 1;
nodes = (
"4 0 LINE",
"140 0 LINE",
"178 154 LINE",
"428 154 LINE",
"466 0 LINE",
"602 0 LINE",
"418 700 LINE",
"188 700 LINE"
);
},
{
closed = 1;
nodes = (
"294 617 LINE",
"312 617 LINE",
"397 276 LINE",
"209 276 LINE"
);
}
);
width = 606;
}
);
leftKerningGroup = A;
note = A;
rightKerningGroup = A;
unicode = 0041;
},
{
glyphname = AE;
lastChange = "2020-04-22 10:20:19 +0000";
layers = (
{
anchors = (
{
name = top;
position = "{390, 700}";
}
);
layerId = "A285862E-BE3D-4D67-A40D-0E28E121AD88";
paths = (
{
closed = 1;
nodes = (
"356 238 LINE",
"174 238 LINE",
"346 670 LINE",
"356 670 LINE",
"356 700 LINE",
"304 700 LINE",
"20 0 LINE",
"80 0 LINE",
"155 190 LINE",
"356 190 LINE"
);
},
{
closed = 1;
nodes = (
"356 0 LINE",
"704 0 LINE",
"704 48 LINE",
"410 48 LINE",
"410 327 LINE",
"672 327 LINE",
"672 375 LINE",
"410 375 LINE",
"410 652 LINE",
"700 652 LINE",
"700 700 LINE",
"356 700 LINE"
);
}
);
width = 752;
},
{
anchors = (
{
name = top;
position = "{392, 700}";
}
);
layerId = "5117E3E8-E17C-4812-BAF5-9E7064564A59";
paths = (
{
closed = 1;
nodes = (
"342 276 LINE",
"225 276 LINE",
"324 603 LINE",
"342 603 LINE",
"342 700 LINE",
"225 700 LINE",
"4 0 LINE",
"140 0 LINE",
"188 156 LINE",
"342 156 LINE"
);
},
{
closed = 1;
nodes = (
"342 0 LINE",
"710 0 LINE",
"710 120 LINE",
"474 120 LINE",
"474 291 LINE",
"676 291 LINE",
"676 411 LINE",
"474 411 LINE",
"474 580 LINE",
"704 580 LINE",
"704 700 LINE",
"342 700 LINE"
);
}
);
width = 738;
}
);
leftKerningGroup = A;
leftMetricsKey = A;
note = AE;
rightKerningGroup = E;
rightMetricsKey = E;
unicode = 00C6;
},
{
glyphname = B;
lastChange = "2020-04-22 10:20:57 +0000";
layers = (
{
layerId = "A285862E-BE3D-4D67-A40D-0E28E121AD88";
paths = (
{
closed = 1;
nodes = (
"82 0 LINE",
"354 0 LINE SMOOTH",
"474 0 OFFCURVE",
"564 67 OFFCURVE",
"564 185 CURVE SMOOTH",
"564 282 OFFCURVE",
"498 332 OFFCURVE",
"443 347 CURVE",
"443 357 LINE",
"496 374 OFFCURVE",
"564 421 OFFCURVE",
"564 519 CURVE SMOOTH",
"564 631 OFFCURVE",
"475 700 OFFCURVE",
"358 700 CURVE SMOOTH",
"82 700 LINE"
);
},
{
closed = 1;
nodes = (
"350 328 LINE SMOOTH",
"456 328 OFFCURVE",
"510 273 OFFCURVE",
"510 189 CURVE SMOOTH",
"510 109 OFFCURVE",
"456 48 OFFCURVE",
"356 48 CURVE SMOOTH",
"136 48 LINE",
"136 328 LINE"
);
},
{
closed = 1;
nodes = (
"354 652 LINE SMOOTH",
"450 652 OFFCURVE",
"510 596 OFFCURVE",
"510 517 CURVE SMOOTH",
"510 435 OFFCURVE",
"454 376 OFFCURVE",
"356 376 CURVE SMOOTH",
"136 376 LINE",
"136 652 LINE"
);
}
);
width = 622;
},
{
layerId = "5117E3E8-E17C-4812-BAF5-9E7064564A59";
paths = (
{
closed = 1;
nodes = (
"58 0 LINE",
"378 0 LINE SMOOTH",
"498 0 OFFCURVE",
"584 72 OFFCURVE",
"584 191 CURVE SMOOTH",
"584 295 OFFCURVE",
"517 334 OFFCURVE",
"473 346 CURVE",
"473 364 LINE",
"517 377 OFFCURVE",
"580 415 OFFCURVE",
"580 515 CURVE SMOOTH",
"580 628 OFFCURVE",
"496 700 OFFCURVE",
"374 700 CURVE SMOOTH",
"58 700 LINE"
);
},
{
closed = 1;
nodes = (
"362 292 LINE SMOOTH",
"420 292 OFFCURVE",
"458 260 OFFCURVE",
"458 206 CURVE SMOOTH",
"458 152 OFFCURVE",
"420 120 OFFCURVE",
"362 120 CURVE SMOOTH",
"190 120 LINE",
"190 292 LINE"
);
},
{
closed = 1;
nodes = (
"360 580 LINE SMOOTH",
"416 580 OFFCURVE",
"454 548 OFFCURVE",
"454 496 CURVE SMOOTH",
"454 444 OFFCURVE",
"416 412 OFFCURVE",
"360 412 CURVE SMOOTH",
"190 412 LINE",
"190 580 LINE"
);
}
);
width = 614;
}
);
leftKerningGroup = H;
leftMetricsKey = I;
note = B.alt;
rightKerningGroup = B;
unicode = 0042;
},
{
glyphname = C;
lastChange = "2019-12-28 00:01:02 +0000";
layers = (
{
anchors = (
{
name = bottom;
position = "{327, 0}";
},
{
name = top;
position = "{330, 700}";
}
);
layerId = "A285862E-BE3D-4D67-A40D-0E28E121AD88";
paths = (
{
closed = 1;
nodes = (
"60 95 OFFCURVE",
"160 -14 OFFCURVE",
"330 -14 CURVE SMOOTH",
"484 -14 OFFCURVE",
"580 79 OFFCURVE",
"580 233 CURVE SMOOTH",
"580 256 LINE",
"526 256 LINE",
"526 233 LINE SMOOTH",
"526 107 OFFCURVE",
"465 34 OFFCURVE",
"330 34 CURVE SMOOTH",
"194 34 OFFCURVE",
"114 125 OFFCURVE",
"114 281 CURVE SMOOTH",
"114 419 LINE SMOOTH",
"114 575 OFFCURVE",
"192 666 OFFCURVE",
"330 666 CURVE SMOOTH",
"456 666 OFFCURVE",
"526 590 OFFCURVE",
"526 464 CURVE SMOOTH",
"526 444 LINE",
"580 444 LINE",
"580 464 LINE SMOOTH",
"580 618 OFFCURVE",
"493 714 OFFCURVE",
"330 714 CURVE SMOOTH",
"163 714 OFFCURVE",
"60 605 OFFCURVE",
"60 417 CURVE SMOOTH",
"60 283 LINE SMOOTH"
);
}
);
width = 636;
},
{
anchors = (
{
name = bottom;
position = "{332, 0}";
},
{
name = top;
position = "{332, 700}";
}
);
layerId = "5117E3E8-E17C-4812-BAF5-9E7064564A59";
paths = (
{
closed = 1;
nodes = (
"44 86 OFFCURVE",
"156 -14 OFFCURVE",
"332 -14 CURVE SMOOTH",
"508 -14 OFFCURVE",
"610 86 OFFCURVE",
"610 238 CURVE SMOOTH",
"610 268 LINE",
"478 268 LINE",
"478 236 LINE SMOOTH",
"478 166 OFFCURVE",
"428 104 OFFCURVE",
"332 104 CURVE SMOOTH",
"236 104 OFFCURVE",
"176 166 OFFCURVE",
"176 264 CURVE SMOOTH",
"176 436 LINE SMOOTH",
"176 534 OFFCURVE",
"236 596 OFFCURVE",
"332 596 CURVE SMOOTH",
"428 596 OFFCURVE",
"478 534 OFFCURVE",
"478 464 CURVE SMOOTH",
"478 440 LINE",
"610 440 LINE",
"610 462 LINE SMOOTH",
"610 614 OFFCURVE",
"508 714 OFFCURVE",
"332 714 CURVE SMOOTH",
"156 714 OFFCURVE",
"44 614 OFFCURVE",
"44 434 CURVE SMOOTH",
"44 266 LINE SMOOTH"
);
}
);
width = 648;
}
);
leftKerningGroup = O;
leftMetricsKey = O;
note = C;
rightKerningGroup = O;
unicode = 0043;
},
{
glyphname = D;
lastChange = "2019-12-28 00:01:55 +0000";
layers = (
{
anchors = (
{
name = stroke;
position = "{82, 484}";
},
{
name = top;
position = "{295, 700}";
}
);
layerId = "A285862E-BE3D-4D67-A40D-0E28E121AD88";
paths = (
{
closed = 1;
nodes = (
"82 0 LINE",
"284 0 LINE SMOOTH",
"466 0 OFFCURVE",
"574 90 OFFCURVE",
"574 287 CURVE SMOOTH",
"574 413 LINE SMOOTH",
"574 610 OFFCURVE",
"466 700 OFFCURVE",
"284 700 CURVE SMOOTH",
"82 700 LINE"
);
},
{
closed = 1;
nodes = (
"284 652 LINE SMOOTH",
"435 652 OFFCURVE",
"520 582 OFFCURVE",
"520 416 CURVE SMOOTH",
"520 284 LINE SMOOTH",
"520 118 OFFCURVE",
"439 48 OFFCURVE",
"284 48 CURVE SMOOTH",
"136 48 LINE",
"136 652 LINE"
);
}
);
width = 634;
},
{
anchors = (
{
name = stroke;
position = "{58, 496}";
},
{
name = top;
position = "{295, 700}";
}
);
layerId = "5117E3E8-E17C-4812-BAF5-9E7064564A59";
paths = (
{
closed = 1;
nodes = (
"58 0 LINE",
"302 0 LINE SMOOTH",
"490 0 OFFCURVE",
"590 96 OFFCURVE",
"590 284 CURVE SMOOTH",
"590 416 LINE SMOOTH",
"590 604 OFFCURVE",
"490 700 OFFCURVE",
"302 700 CURVE SMOOTH",
"58 700 LINE"
);
},
{
closed = 1;
nodes = (
"304 580 LINE SMOOTH",
"410 580 OFFCURVE",
"458 522 OFFCURVE",
"458 420 CURVE SMOOTH",
"458 280 LINE SMOOTH",
"458 178 OFFCURVE",
"410 120 OFFCURVE",
"304 120 CURVE SMOOTH",
"190 120 LINE",
"190 580 LINE"
);
}
);
width = 634;
}
);
leftKerningGroup = H;
leftMetricsKey = I;
note = D.alt;
rightKerningGroup = O;
rightMetricsKey = O;
unicode = 0044;
},
{
glyphname = E;
lastChange = "2019-09-30 11:40:42 +0000";
layers = (
{
anchors = (
{
name = bottom;
position = "{444, 0}";
},
{
name = top;
position = "{303, 700}";
}
);
layerId = "A285862E-BE3D-4D67-A40D-0E28E121AD88";
paths = (
{
closed = 1;
nodes = (
"82 0 LINE",
"514 0 LINE",
"514 48 LINE",
"136 48 LINE",
"136 327 LINE",
"482 327 LINE",
"482 375 LINE",
"136 375 LINE",
"136 652 LINE",
"510 652 LINE",
"510 700 LINE",
"82 700 LINE"
);
}
);
width = 562;
},
{
anchors = (
{
name = bottom;
position = "{428, 0}";
},
{
name = top;
position = "{293, 700}";
}
);
layerId = "5117E3E8-E17C-4812-BAF5-9E7064564A59";
paths = (
{
closed = 1;
nodes = (
"58 0 LINE",
"524 0 LINE",
"524 120 LINE",
"190 120 LINE",
"190 293 LINE",
"490 293 LINE",
"490 413 LINE",
"190 413 LINE",
"190 580 LINE",
"518 580 LINE",
"518 700 LINE",
"58 700 LINE"
);
}
);
width = 552;
}
);
leftKerningGroup = H;
leftMetricsKey = I;
note = E;
rightKerningGroup = E;
unicode = 0045;
},
{
glyphname = F;
lastChange = "2018-08-19 09:03:07 +0000";
layers = (
{
layerId = "A285862E-BE3D-4D67-A40D-0E28E121AD88";
paths = (
{
closed = 1;
nodes = (
"82 0 LINE",
"136 0 LINE",
"136 327 LINE",
"482 327 LINE",
"482 375 LINE",
"136 375 LINE",
"136 652 LINE",
"502 652 LINE",
"502 700 LINE",
"82 700 LINE"
);
}
);
width = 538;
},
{
layerId = "5117E3E8-E17C-4812-BAF5-9E7064564A59";
paths = (
{
closed = 1;
nodes = (
"58 0 LINE",
"190 0 LINE",
"190 291 LINE",
"484 291 LINE",
"484 411 LINE",
"190 411 LINE",
"190 580 LINE",
"504 580 LINE",
"504 700 LINE",
"58 700 LINE"
);
}
);
width = 524;
}
);
leftKerningGroup = H;
leftMetricsKey = I;
note = F;
rightKerningGroup = F;
unicode = 0046;
},
{
glyphname = G;
lastChange = "2020-04-22 10:22:06 +0000";
layers = (
{
anchors = (
{
name = bottom;
position = "{331, 0}";
},
{
name = top;
position = "{329, 700}";
}
);
layerId = "A285862E-BE3D-4D67-A40D-0E28E121AD88";
paths = (
{
closed = 1;
nodes = (
"60 95 OFFCURVE",
"163 -14 OFFCURVE",
"327 -14 CURVE SMOOTH",
"435 -14 OFFCURVE",
"484 29 OFFCURVE",
"512 78 CURVE",
"522 78 LINE",
"522 0 LINE",
"572 0 LINE",
"572 319 LINE",
"280 319 LINE",
"280 271 LINE",
"518 271 LINE",
"518 233 LINE SMOOTH",
"518 107 OFFCURVE",
"455 34 OFFCURVE",
"329 34 CURVE SMOOTH",
"192 34 OFFCURVE",
"114 125 OFFCURVE",
"114 281 CURVE SMOOTH",
"114 419 LINE SMOOTH",
"114 575 OFFCURVE",
"192 666 OFFCURVE",
"330 666 CURVE SMOOTH",
"455 666 OFFCURVE",
"518 590 OFFCURVE",
"518 468 CURVE SMOOTH",
"518 455 LINE",
"572 455 LINE",
"572 468 LINE SMOOTH",
"572 618 OFFCURVE",
"492 714 OFFCURVE",
"329 714 CURVE SMOOTH",
"163 714 OFFCURVE",
"60 605 OFFCURVE",
"60 417 CURVE SMOOTH",
"60 282 LINE SMOOTH"
);
}
);
width = 648;
},
{
anchors = (
{
name = bottom;
position = "{334, 0}";
},
{
name = top;
position = "{333, 700}";
}
);
layerId = "5117E3E8-E17C-4812-BAF5-9E7064564A59";
paths = (
{
closed = 1;
nodes = (
"44 86 OFFCURVE",
"160 -14 OFFCURVE",
"304 -14 CURVE SMOOTH",
"416 -14 OFFCURVE",
"451 34 OFFCURVE",
"464 67 CURVE",
"482 67 LINE",
"482 0 LINE",
"606 0 LINE",
"606 354 LINE",
"300 354 LINE",
"300 242 LINE",
"480 242 LINE",
"480 232 LINE SMOOTH",
"480 152 OFFCURVE",
"430 100 OFFCURVE",
"334 100 CURVE SMOOTH",
"238 100 OFFCURVE",
"176 162 OFFCURVE",
"176 260 CURVE SMOOTH",
"176 436 LINE SMOOTH",
"176 534 OFFCURVE",
"238 596 OFFCURVE",
"334 596 CURVE SMOOTH",
"430 596 OFFCURVE",
"474 540 OFFCURVE",
"474 468 CURVE SMOOTH",
"474 452 LINE",
"606 452 LINE",
"606 466 LINE SMOOTH",
"606 614 OFFCURVE",
"510 714 OFFCURVE",
"334 714 CURVE SMOOTH",
"158 714 OFFCURVE",
"44 614 OFFCURVE",
"44 434 CURVE SMOOTH",
"44 256 LINE SMOOTH"
);
}
);
width = 644;
}
);
leftKerningGroup = O;
leftMetricsKey = O;
note = G;
rightKerningGroup = G;
unicode = 0047;
},
{
glyphname = H;
lastChange = "2018-08-19 09:02:22 +0000";
layers = (
{
anchors = (
{
name = stroke;
position = "{320, 496}";
}
);
layerId = "A285862E-BE3D-4D67-A40D-0E28E121AD88";
paths = (
{
closed = 1;
nodes = (
"82 0 LINE",
"136 0 LINE",
"136 327 LINE",
"504 327 LINE",
"504 0 LINE",
"558 0 LINE",
"558 700 LINE",
"504 700 LINE",
"504 375 LINE",
"136 375 LINE",
"136 700 LINE",
"82 700 LINE"
);
}
);
width = 640;
},
{
anchors = (
{
name = stroke;
position = "{322, 496}";
}
);
layerId = "5117E3E8-E17C-4812-BAF5-9E7064564A59";
paths = (
{
closed = 1;
nodes = (
"58 0 LINE",
"190 0 LINE",
"190 291 LINE",
"454 291 LINE",
"454 0 LINE",
"586 0 LINE",
"586 700 LINE",
"454 700 LINE",
"454 411 LINE",
"190 411 LINE",
"190 700 LINE",
"58 700 LINE"
);
}
);
width = 644;
}
);
leftKerningGroup = H;
leftMetricsKey = I;
note = H;
rightKerningGroup = H;
rightMetricsKey = I;
unicode = 0048;
},
{
glyphname = I;
lastChange = "2018-08-16 10:59:13 +0000";
layers = (
{
anchors = (
{
name = bottom;
position = "{109, 0}";
},
{
name = top;
position = "{109, 700}";
}
);
layerId = "A285862E-BE3D-4D67-A40D-0E28E121AD88";
paths = (
{
closed = 1;
nodes = (
"82 0 LINE",
"136 0 LINE",
"136 700 LINE",
"82 700 LINE"
);
}
);
width = 218;
},
{
anchors = (
{
name = bottom;
position = "{124, 0}";
},
{
name = top;
position = "{124, 700}";
}
);
layerId = "5117E3E8-E17C-4812-BAF5-9E7064564A59";
paths = (
{
closed = 1;
nodes = (
"58 0 LINE",
"190 0 LINE",
"190 700 LINE",
"58 700 LINE"
);
}
);
width = 248;
}
);
leftKerningGroup = I;
note = I;
rightKerningGroup = I;
unicode = 0049;
},
{
glyphname = IJ;
lastChange = "2019-12-28 00:01:12 +0000";
layers = (
{
layerId = "A285862E-BE3D-4D67-A40D-0E28E121AD88";
paths = (
{
closed = 1;
nodes = (
"78 374 LINE",
"132 374 LINE",
"132 700 LINE",
"78 700 LINE"
);
},
{
closed = 1;
nodes = (
"442 210 LINE SMOOTH",
"442 108 OFFCURVE",
"407 34 OFFCURVE",
"294 34 CURVE SMOOTH",
"184 34 OFFCURVE",
"132 107 OFFCURVE",
"132 210 CURVE SMOOTH",
"132 227 LINE",
"78 227 LINE",
"78 210 LINE SMOOTH",
"78 63 OFFCURVE",
"159 -14 OFFCURVE",
"292 -14 CURVE SMOOTH",
"429 -14 OFFCURVE",
"496 65 OFFCURVE",
"496 210 CURVE SMOOTH",
"496 700 LINE",
"442 700 LINE"
);
}
);
width = 574;
},
{
layerId = "5117E3E8-E17C-4812-BAF5-9E7064564A59";
paths = (
{
closed = 1;
nodes = (
"56 342 LINE",
"188 342 LINE",
"188 700 LINE",
"56 700 LINE"
);
},
{
closed = 1;
nodes = (
"384 210 LINE SMOOTH",
"384 146 OFFCURVE",
"350 110 OFFCURVE",
"289 110 CURVE SMOOTH",
"224 110 OFFCURVE",
"188 147 OFFCURVE",
"188 210 CURVE SMOOTH",
"188 246 LINE",
"56 246 LINE",
"56 210 LINE SMOOTH",
"56 69 OFFCURVE",
"147 -14 OFFCURVE",
"293 -14 CURVE SMOOTH",
"432 -14 OFFCURVE",
"516 65 OFFCURVE",
"516 210 CURVE SMOOTH",
"516 700 LINE",
"384 700 LINE"
);
}
);
width = 572;
}
);
leftKerningGroup = U;
leftMetricsKey = U;
note = IJ;
rightKerningGroup = U;
rightMetricsKey = U;
unicode = 0132;
},
{
glyphname = J;
lastChange = "2019-12-28 00:01:12 +0000";
layers = (
{
layerId = "A285862E-BE3D-4D67-A40D-0E28E121AD88";
paths = (
{
closed = 1;
nodes = (
"406 700 LINE",
"406 210 LINE SMOOTH",
"406 108 OFFCURVE",
"371 34 OFFCURVE",
"258 34 CURVE SMOOTH",
"148 34 OFFCURVE",
"96 107 OFFCURVE",
"96 210 CURVE SMOOTH",
"96 257 LINE",
"42 257 LINE",
"42 210 LINE SMOOTH",
"42 63 OFFCURVE",
"123 -14 OFFCURVE",
"256 -14 CURVE SMOOTH",
"393 -14 OFFCURVE",
"460 65 OFFCURVE",
"460 210 CURVE SMOOTH",
"460 700 LINE"
);
}
);
width = 538;
},
{
layerId = "5117E3E8-E17C-4812-BAF5-9E7064564A59";
paths = (
{
closed = 1;
nodes = (
"350 700 LINE",
"350 210 LINE SMOOTH",
"350 144 OFFCURVE",
"316 106 OFFCURVE",
"257 106 CURVE SMOOTH",
"194 106 OFFCURVE",
"158 145 OFFCURVE",
"158 210 CURVE SMOOTH",
"158 276 LINE",
"26 276 LINE",
"26 210 LINE SMOOTH",
"26 69 OFFCURVE",
"117 -14 OFFCURVE",
"261 -14 CURVE SMOOTH",
"398 -14 OFFCURVE",
"482 65 OFFCURVE",
"482 210 CURVE SMOOTH",
"482 700 LINE"
);
}
);
width = 538;
}
);
leftKerningGroup = J;
note = J;
rightKerningGroup = U;
rightMetricsKey = U;
unicode = 004A;
},
{
glyphname = K;
lastChange = "2020-04-22 10:22:26 +0000";
layers = (
{
anchors = (
{
name = bottom;
position = "{305, 0}";
}
);
layerId = "A285862E-BE3D-4D67-A40D-0E28E121AD88";
paths = (
{
closed = 1;
nodes = (
"136 0 LINE",
"136 328 LINE",
"146 328 LINE",
"499 0 LINE",
"576 0 LINE",
"188 353 LINE",
"562 700 LINE",
"485 700 LINE",
"146 378 LINE",
"136 378 LINE",
"136 700 LINE",
"82 700 LINE",
"82 0 LINE"
);
}
);
width = 590;
},
{
anchors = (
{
name = bottom;
position = "{303, 0}";
}
);
layerId = "5117E3E8-E17C-4812-BAF5-9E7064564A59";
paths = (
{
closed = 1;
nodes = (
"190 0 LINE",
"190 284 LINE",
"208 284 LINE",
"440 0 LINE",
"614 0 LINE",
"312 355 LINE",
"604 700 LINE",
"435 700 LINE",
"208 422 LINE",
"190 422 LINE",
"190 700 LINE",
"58 700 LINE",
"58 0 LINE"
);
}
);
width = 614;
}
);
leftKerningGroup = H;
leftMetricsKey = I;
note = K;
rightKerningGroup = K;
unicode = 004B;
},
{
glyphname = L;
lastChange = "2018-08-19 09:01:53 +0000";
layers = (
{
anchors = (
{
name = bottom;
position = "{312, 0}";
},
{
name = caron;
position = "{135, 700}";
},
{
name = sidecaron;
position = "{136, 700}";
},
{
name = top;
position = "{108, 700}";
}
);
layerId = "A285862E-BE3D-4D67-A40D-0E28E121AD88";
paths = (
{
closed = 1;
nodes = (
"82 0 LINE",
"518 0 LINE",
"518 48 LINE",
"136 48 LINE",
"136 700 LINE",
"82 700 LINE"
);
}
);
width = 540;
},
{
anchors = (
{
name = bottom;
position = "{286, 0}";
},
{
name = caron;
position = "{190, 700}";
},
{
name = sidecaron;
position = "{190, 700}";
},
{
name = top;
position = "{124, 700}";
}
);
layerId = "5117E3E8-E17C-4812-BAF5-9E7064564A59";
paths = (
{
closed = 1;
nodes = (
"58 0 LINE",
"514 0 LINE",
"514 120 LINE",
"190 120 LINE",
"190 700 LINE",
"58 700 LINE"
);
}
);
width = 526;
}
);
leftKerningGroup = H;
leftMetricsKey = I;
note = L;
rightKerningGroup = L;
unicode = 004C;
},
{
glyphname = Lslash;
lastChange = "2019-10-16 18:43:11 +0000";
layers = (
{
layerId = "A285862E-BE3D-4D67-A40D-0E28E121AD88";
paths = (
{
closed = 1;
nodes = (
"134 0 LINE",
"570 0 LINE",
"570 48 LINE",
"188 48 LINE",
"188 700 LINE",
"134 700 LINE"
);
},
{
closed = 1;
nodes = (
"43 252 LINE",
"300 393 LINE",
"279 432 LINE",
"22 291 LINE"
);
}
);
width = 592;
},
{
layerId = "5117E3E8-E17C-4812-BAF5-9E7064564A59";
paths = (
{
closed = 1;
nodes = (
"144 0 LINE",
"600 0 LINE",
"600 120 LINE",
"276 120 LINE",
"276 700 LINE",
"144 700 LINE"
);
},
{
closed = 1;
nodes = (
"56 221 LINE",
"404 393 LINE",
"364 474 LINE",
"16 302 LINE"
);
}
);
width = 612;
}
);
leftKerningGroup = H;
note = Lslash;
rightKerningGroup = L;
rightMetricsKey = L;
unicode = 0141;
},
{
glyphname = M;
lastChange = "2020-04-22 10:23:18 +0000";
layers = (
{
layerId = "A285862E-BE3D-4D67-A40D-0E28E121AD88";
paths = (
{
closed = 1;
nodes = (
"82 0 LINE",
"136 0 LINE",
"136 670 LINE",
"146 670 LINE",
"382 0 LINE",
"482 0 LINE",
"718 670 LINE",
"728 670 LINE",
"728 0 LINE",
"782 0 LINE",
"782 700 LINE",
"673 700 LINE",
"437 30 LINE",
"427 30 LINE",
"191 700 LINE",
"82 700 LINE"
);
}
);
width = 864;
},
{
layerId = "5117E3E8-E17C-4812-BAF5-9E7064564A59";
paths = (
{
closed = 1;
nodes = (
"58 0 LINE",
"186 0 LINE",
"186 603 LINE",
"204 603 LINE",
"328 0 LINE",
"550 0 LINE",
"674 603 LINE",
"692 603 LINE",
"692 0 LINE",
"820 0 LINE",
"820 700 LINE",
"573 700 LINE",
"448 90 LINE",
"430 90 LINE",
"305 700 LINE",
"58 700 LINE"
);
}
);
width = 878;
}
);
leftKerningGroup = H;
leftMetricsKey = I;
note = M;
rightKerningGroup = H;
rightMetricsKey = I;
unicode = 004D;
},
{
glyphname = N;
lastChange = "2020-04-22 10:23:52 +0000";
layers = (
{
anchors = (
{
name = bottom;
position = "{328, 0}";
},
{
name = top;
position = "{330, 700}";
}
);
layerId = "A285862E-BE3D-4D67-A40D-0E28E121AD88";
paths = (
{
closed = 1;
nodes = (
"82 0 LINE",
"136 0 LINE",
"136 670 LINE",
"146 670 LINE",
"460 0 LINE",
"568 0 LINE",
"568 700 LINE",
"514 700 LINE",
"514 30 LINE",
"504 30 LINE",
"190 700 LINE",
"82 700 LINE"
);
}
);
width = 650;
},
{
anchors = (
{
name = bottom;
position = "{328, 0}";
},
{
name = top;
position = "{326, 700}";
}
);
layerId = "5117E3E8-E17C-4812-BAF5-9E7064564A59";
paths = (
{
closed = 1;
nodes = (
"58 0 LINE",
"190 0 LINE",
"190 610 LINE",
"208 610 LINE",
"345 0 LINE",
"596 0 LINE",
"596 700 LINE",
"464 700 LINE",
"464 90 LINE",
"446 90 LINE",
"309 700 LINE",
"58 700 LINE"
);
}
);
width = 654;
}
);
leftKerningGroup = H;
leftMetricsKey = I;
note = N;
rightKerningGroup = H;
rightMetricsKey = I;
unicode = 004E;
},
{
glyphname = Eng;
lastChange = "2020-04-22 10:24:01 +0000";
layers = (
{
layerId = "A285862E-BE3D-4D67-A40D-0E28E121AD88";
paths = (
{
closed = 1;
nodes = (
"82 0 LINE",
"136 0 LINE",
"136 670 LINE",
"146 670 LINE",
"460 0 LINE",
"568 0 LINE",
"568 700 LINE",
"514 700 LINE",
"514 30 LINE",
"504 30 LINE",
"190 700 LINE",
"82 700 LINE"
);
},
{
closed = 1;
nodes = (
"516 0 LINE",
"516 -124 LINE SMOOTH",
"516 -144 OFFCURVE",
"506 -154 OFFCURVE",
"488 -154 CURVE SMOOTH",
"376 -154 LINE",
"376 -200 LINE",
"504 -200 LINE SMOOTH",
"544 -200 OFFCURVE",
"568 -176 OFFCURVE",
"568 -134 CURVE SMOOTH",
"568 0 LINE"
);
}
);
width = 650;
},
{
layerId = "5117E3E8-E17C-4812-BAF5-9E7064564A59";
paths = (
{
closed = 1;
nodes = (
"58 0 LINE",
"190 0 LINE",
"190 610 LINE",
"208 610 LINE",
"345 0 LINE",
"596 0 LINE",
"596 700 LINE",
"464 700 LINE",
"464 90 LINE",
"446 90 LINE",
"309 700 LINE",
"58 700 LINE"
);
},
{
closed = 1;
nodes = (
"468 0 LINE",
"468 -66 LINE SMOOTH",
"468 -86 OFFCURVE",
"458 -96 OFFCURVE",
"440 -96 CURVE SMOOTH",
"346 -96 LINE",
"346 -200 LINE",
"486 -200 LINE SMOOTH",
"552 -200 OFFCURVE",
"596 -157 OFFCURVE",
"596 -88 CURVE SMOOTH",
"596 0 LINE"
);
}
);
width = 654;
}
);
leftKerningGroup = H;
leftMetricsKey = N;
note = Eng;
rightKerningGroup = H;
rightMetricsKey = N;
unicode = 014A;
},
{
glyphname = O;
lastChange = "2019-12-28 00:00:20 +0000";
layers = (
{
anchors = (
{
name = bottom;
position = "{332, 0}";
},
{
name = top;
position = "{332, 700}";
}
);
layerId = "5117E3E8-E17C-4812-BAF5-9E7064564A59";
paths = (
{
closed = 1;
nodes = (
"44 266 LINE SMOOTH",
"44 86 OFFCURVE",
"156 -14 OFFCURVE",
"332 -14 CURVE SMOOTH",
"508 -14 OFFCURVE",
"620 86 OFFCURVE",
"620 266 CURVE SMOOTH",
"620 434 LINE SMOOTH",
"620 614 OFFCURVE",
"508 714 OFFCURVE",
"332 714 CURVE SMOOTH",
"156 714 OFFCURVE",
"44 614 OFFCURVE",
"44 434 CURVE SMOOTH"
);
},
{
closed = 1;
nodes = (
"176 534 OFFCURVE",
"234 596 OFFCURVE",
"332 596 CURVE SMOOTH",
"430 596 OFFCURVE",
"488 534 OFFCURVE",
"488 438 CURVE SMOOTH",
"488 262 LINE SMOOTH",
"488 166 OFFCURVE",
"430 104 OFFCURVE",
"332 104 CURVE SMOOTH",
"234 104 OFFCURVE",
"176 166 OFFCURVE",
"176 262 CURVE SMOOTH",
"176 438 LINE SMOOTH"
);
}
);
width = 664;
},
{
anchors = (
{
name = bottom;
position = "{329, 0}";
},
{
name = top;
position = "{326, 700}";
}
);
layerId = "A285862E-BE3D-4D67-A40D-0E28E121AD88";
paths = (
{
closed = 1;
nodes = (
"60 272 LINE SMOOTH",
"60 84 OFFCURVE",
"164 -14 OFFCURVE",
"326 -14 CURVE SMOOTH",
"488 -14 OFFCURVE",
"592 84 OFFCURVE",
"592 272 CURVE SMOOTH",
"592 428 LINE SMOOTH",
"592 616 OFFCURVE",
"488 714 OFFCURVE",
"326 714 CURVE SMOOTH",
"164 714 OFFCURVE",
"60 616 OFFCURVE",
"60 428 CURVE SMOOTH"
);
},
{
closed = 1;
nodes = (
"114 578 OFFCURVE",
"192 666 OFFCURVE",
"326 666 CURVE SMOOTH",
"460 666 OFFCURVE",
"538 578 OFFCURVE",
"538 432 CURVE SMOOTH",
"538 268 LINE SMOOTH",
"538 122 OFFCURVE",
"460 34 OFFCURVE",
"326 34 CURVE SMOOTH",
"192 34 OFFCURVE",
"114 122 OFFCURVE",
"114 268 CURVE SMOOTH",
"114 432 LINE SMOOTH"
);
}
);
width = 652;
}
);
leftKerningGroup = O;
note = O;
rightKerningGroup = O;
unicode = 004F;
},
{
glyphname = OE;
lastChange = "2019-12-28 00:01:12 +0000";
layers = (
{
layerId = "A285862E-BE3D-4D67-A40D-0E28E121AD88";
paths = (
{
closed = 1;
nodes = (
"378 46 LINE",
"203 46 OFFCURVE",
"114 145 OFFCURVE",
"114 310 CURVE SMOOTH",
"114 390 LINE SMOOTH",
"114 555 OFFCURVE",
"203 654 OFFCURVE",
"378 654 CURVE",
"378 700 LINE",
"177 700 OFFCURVE",
"60 592 OFFCURVE",
"60 384 CURVE SMOOTH",
"60 316 LINE SMOOTH",
"60 108 OFFCURVE",
"177 0 OFFCURVE",
"378 0 CURVE"
);
},
{
closed = 1;
nodes = (
"378 0 LINE",
"726 0 LINE",
"726 48 LINE",
"432 48 LINE",
"432 327 LINE",
"694 327 LINE",
"694 375 LINE",
"432 375 LINE",
"432 652 LINE",
"722 652 LINE",
"722 700 LINE",
"378 700 LINE"
);
}
);
width = 774;
},
{
layerId = "5117E3E8-E17C-4812-BAF5-9E7064564A59";
paths = (
{
closed = 1;
nodes = (
"364 118 LINE",
"221 118 OFFCURVE",
"176 184 OFFCURVE",
"176 296 CURVE SMOOTH",
"176 404 LINE SMOOTH",
"176 509 OFFCURVE",
"230 582 OFFCURVE",
"364 582 CURVE",
"364 700 LINE",
"163 700 OFFCURVE",
"44 588 OFFCURVE",
"44 394 CURVE SMOOTH",
"44 306 LINE SMOOTH",
"44 106 OFFCURVE",
"163 0 OFFCURVE",
"364 0 CURVE"
);
},
{
closed = 1;
nodes = (
"364 0 LINE",
"732 0 LINE",
"732 120 LINE",
"496 120 LINE",
"496 291 LINE",
"698 291 LINE",
"698 411 LINE",
"496 411 LINE",
"496 580 LINE",
"726 580 LINE",
"726 700 LINE",
"364 700 LINE"
);
}
);
width = 760;
}
);
leftKerningGroup = O;
leftMetricsKey = O;
note = OE;
rightKerningGroup = E;
rightMetricsKey = E;
unicode = 0152;
},
{
glyphname = P;
lastChange = "2018-08-19 08:59:36 +0000";
layers = (
{
layerId = "A285862E-BE3D-4D67-A40D-0E28E121AD88";
paths = (
{
closed = 1;
nodes = (
"82 0 LINE",
"136 0 LINE",
"136 298 LINE",
"336 298 LINE SMOOTH",
"458 298 OFFCURVE",
"554 371 OFFCURVE",
"554 499 CURVE SMOOTH",
"554 627 OFFCURVE",
"458 700 OFFCURVE",
"336 700 CURVE SMOOTH",
"82 700 LINE"
);
},
{
closed = 1;
nodes = (
"330 652 LINE SMOOTH",
"438 652 OFFCURVE",
"500 596 OFFCURVE",
"500 499 CURVE SMOOTH",
"500 402 OFFCURVE",
"438 346 OFFCURVE",
"330 346 CURVE SMOOTH",
"136 346 LINE",
"136 652 LINE"
);
}
);
width = 588;
},
{
layerId = "5117E3E8-E17C-4812-BAF5-9E7064564A59";
paths = (
{
closed = 1;
nodes = (
"58 0 LINE",
"190 0 LINE",
"190 256 LINE",
"346 256 LINE SMOOTH",
"475 256 OFFCURVE",
"570 344 OFFCURVE",
"570 478 CURVE SMOOTH",
"570 612 OFFCURVE",
"478 700 OFFCURVE",
"346 700 CURVE SMOOTH",
"58 700 LINE"
);
},
{
closed = 1;
nodes = (
"333 580 LINE SMOOTH",
"396 580 OFFCURVE",
"438 540 OFFCURVE",
"438 478 CURVE SMOOTH",
"438 416 OFFCURVE",
"396 376 OFFCURVE",
"333 376 CURVE SMOOTH",
"190 376 LINE",
"190 580 LINE"
);
}
);
width = 582;
}
);
leftKerningGroup = H;
leftMetricsKey = I;
note = P;
rightKerningGroup = P;
unicode = 0050;
},
{
glyphname = Thorn;
lastChange = "2018-08-13 17:50:57 +0000";
layers = (
{
layerId = "A285862E-BE3D-4D67-A40D-0E28E121AD88";
paths = (
{
closed = 1;
nodes = (
"82 0 LINE",
"136 0 LINE",
"136 159 LINE",
"336 159 LINE SMOOTH",
"458 159 OFFCURVE",
"554 232 OFFCURVE",
"554 360 CURVE SMOOTH",
"554 488 OFFCURVE",
"458 561 OFFCURVE",
"336 561 CURVE SMOOTH",
"136 561 LINE",
"136 700 LINE",
"82 700 LINE"
);
},
{
closed = 1;
nodes = (
"330 513 LINE SMOOTH",
"438 513 OFFCURVE",
"500 457 OFFCURVE",
"500 360 CURVE SMOOTH",
"500 263 OFFCURVE",
"438 207 OFFCURVE",
"330 207 CURVE SMOOTH",
"136 207 LINE",
"136 513 LINE"
);
}
);
width = 588;
},
{
layerId = "5117E3E8-E17C-4812-BAF5-9E7064564A59";
paths = (
{
closed = 1;
nodes = (
"58 0 LINE",
"190 0 LINE",
"190 138 LINE",
"346 138 LINE SMOOTH",
"475 138 OFFCURVE",
"570 226 OFFCURVE",
"570 360 CURVE SMOOTH",
"570 494 OFFCURVE",
"478 582 OFFCURVE",
"346 582 CURVE SMOOTH",
"190 582 LINE",
"190 700 LINE",
"58 700 LINE"
);
},
{
closed = 1;
nodes = (
"333 458 LINE SMOOTH",
"396 458 OFFCURVE",
"438 420 OFFCURVE",
"438 360 CURVE SMOOTH",
"438 300 OFFCURVE",
"396 262 OFFCURVE",
"333 262 CURVE SMOOTH",
"190 262 LINE",
"190 458 LINE"
);
}
);
width = 582;
}
);
leftKerningGroup = H;
leftMetricsKey = I;
note = Thorn;
rightMetricsKey = P;
unicode = 00DE;
},
{
glyphname = Q;
lastChange = "2019-12-28 00:01:12 +0000";
layers = (
{
layerId = "A285862E-BE3D-4D67-A40D-0E28E121AD88";
paths = (
{
closed = 1;
nodes = (
"60 272 LINE SMOOTH",
"60 84 OFFCURVE",
"164 -14 OFFCURVE",
"326 -14 CURVE SMOOTH",
"488 -14 OFFCURVE",
"592 84 OFFCURVE",
"592 272 CURVE SMOOTH",
"592 428 LINE SMOOTH",
"592 616 OFFCURVE",
"488 714 OFFCURVE",
"326 714 CURVE SMOOTH",
"164 714 OFFCURVE",
"60 616 OFFCURVE",
"60 428 CURVE SMOOTH"
);
},
{
closed = 1;
nodes = (
"114 578 OFFCURVE",
"192 666 OFFCURVE",
"326 666 CURVE SMOOTH",
"460 666 OFFCURVE",
"538 578 OFFCURVE",
"538 432 CURVE SMOOTH",
"538 268 LINE SMOOTH",
"538 122 OFFCURVE",
"460 34 OFFCURVE",
"326 34 CURVE SMOOTH",
"192 34 OFFCURVE",
"114 122 OFFCURVE",
"114 268 CURVE SMOOTH",
"114 432 LINE SMOOTH"
);
},
{
closed = 1;
nodes = (
"299 -84 LINE SMOOTH",
"299 -126 OFFCURVE",
"323 -150 OFFCURVE",
"363 -150 CURVE SMOOTH",
"451 -150 LINE",
"451 -102 LINE",
"381 -102 LINE SMOOTH",
"363 -102 OFFCURVE",
"353 -92 OFFCURVE",
"353 -72 CURVE SMOOTH",
"353 0 LINE",
"299 0 LINE"
);
}
);
width = 652;
},
{
layerId = "5117E3E8-E17C-4812-BAF5-9E7064564A59";
paths = (
{
closed = 1;
nodes = (
"44 266 LINE SMOOTH",
"44 86 OFFCURVE",
"156 -14 OFFCURVE",
"332 -14 CURVE SMOOTH",
"508 -14 OFFCURVE",
"620 86 OFFCURVE",
"620 266 CURVE SMOOTH",
"620 434 LINE SMOOTH",
"620 614 OFFCURVE",
"508 714 OFFCURVE",
"332 714 CURVE SMOOTH",
"156 714 OFFCURVE",
"44 614 OFFCURVE",
"44 434 CURVE SMOOTH"
);
},
{
closed = 1;
nodes = (
"176 534 OFFCURVE",
"234 596 OFFCURVE",
"332 596 CURVE SMOOTH",
"430 596 OFFCURVE",
"488 534 OFFCURVE",
"488 438 CURVE SMOOTH",
"488 262 LINE SMOOTH",
"488 166 OFFCURVE",
"430 104 OFFCURVE",
"332 104 CURVE SMOOTH",
"234 104 OFFCURVE",
"176 166 OFFCURVE",
"176 262 CURVE SMOOTH",
"176 438 LINE SMOOTH"
);
},
{
closed = 1;
nodes = (
"268 -68 LINE SMOOTH",
"268 -136 OFFCURVE",
"312 -180 OFFCURVE",
"378 -180 CURVE SMOOTH",
"483 -180 LINE",
"483 -78 LINE",
"424 -78 LINE SMOOTH",
"406 -78 OFFCURVE",
"396 -68 OFFCURVE",
"396 -48 CURVE SMOOTH",
"396 0 LINE",
"268 0 LINE"
);
}
);
width = 664;
}
);
leftKerningGroup = O;
leftMetricsKey = O;
note = Q;
rightKerningGroup = O;
rightMetricsKey = O;
unicode = 0051;
},
{
glyphname = R;
lastChange = "2020-04-22 10:24:26 +0000";
layers = (
{
anchors = (
{
name = bottom;
position = "{313, 0}";
},
{
name = top;
position = "{304, 700}";
}
);
layerId = "A285862E-BE3D-4D67-A40D-0E28E121AD88";
paths = (
{
closed = 1;
nodes = (
"82 0 LINE",
"136 0 LINE",
"136 302 LINE",
"414 302 LINE SMOOTH",
"462 302 OFFCURVE",
"486 278 OFFCURVE",
"486 234 CURVE SMOOTH",
"486 0 LINE",
"540 0 LINE",
"540 240 LINE SMOOTH",
"540 302 OFFCURVE",
"498 326 OFFCURVE",
"455 327 CURVE",
"455 339 LINE",
"518 356 OFFCURVE",
"574 412 OFFCURVE",
"574 506 CURVE SMOOTH",
"574 626 OFFCURVE",
"483 700 OFFCURVE",
"353 700 CURVE SMOOTH",
"82 700 LINE"
);
},
{
closed = 1;
nodes = (
"347 652 LINE SMOOTH",
"458 652 OFFCURVE",
"518 597 OFFCURVE",
"518 501 CURVE SMOOTH",
"518 405 OFFCURVE",
"458 350 OFFCURVE",
"347 350 CURVE SMOOTH",
"136 350 LINE",
"136 652 LINE"
);
}
);
width = 620;
},
{
anchors = (
{
name = bottom;
position = "{307, 0}";
},
{
name = top;
position = "{295, 700}";
}
);
layerId = "5117E3E8-E17C-4812-BAF5-9E7064564A59";
paths = (
{
closed = 1;
nodes = (
"58 0 LINE",
"190 0 LINE",
"190 264 LINE",
"378 264 LINE SMOOTH",
"417 264 OFFCURVE",
"432 242 OFFCURVE",
"432 210 CURVE SMOOTH",
"432 0 LINE",
"564 0 LINE",
"564 229 LINE SMOOTH",
"564 285 OFFCURVE",
"533 321 OFFCURVE",
"480 324 CURVE",
"480 342 LINE",
"540 367 OFFCURVE",
"584 419 OFFCURVE",
"584 503 CURVE SMOOTH",
"584 621 OFFCURVE",
"497 700 OFFCURVE",
"366 700 CURVE SMOOTH",
"58 700 LINE"
);
},
{
closed = 1;
nodes = (
"352 580 LINE SMOOTH",
"416 580 OFFCURVE",
"452 540 OFFCURVE",
"452 482 CURVE SMOOTH",
"452 424 OFFCURVE",
"416 384 OFFCURVE",
"352 384 CURVE SMOOTH",
"190 384 LINE",
"190 580 LINE"
);
}
);
width = 620;
}
);
leftKerningGroup = H;
leftMetricsKey = I;
note = R;
rightKerningGroup = R;
unicode = 0052;
},
{
glyphname = S;
lastChange = "2019-10-04 11:24:27 +0000";
layers = (
{
anchors = (
{
name = bottom;
position = "{322, 0}";
},
{
name = top;
position = "{310, 700}";
}
);
layerId = "A285862E-BE3D-4D67-A40D-0E28E121AD88";
paths = (
{
closed = 1;
nodes = (
"166 714 OFFCURVE",
"70 643 OFFCURVE",
"70 531 CURVE SMOOTH",
"70 419 OFFCURVE",
"154 371 OFFCURVE",
"265 344 CURVE SMOOTH",
"335 327 LINE SMOOTH",
"433 303 OFFCURVE",
"504 272 OFFCURVE",
"504 184 CURVE SMOOTH",
"504 96 OFFCURVE",
"432 34 OFFCURVE",
"312 34 CURVE SMOOTH",
"192 34 OFFCURVE",
"106 96 OFFCURVE",
"106 238 CURVE SMOOTH",
"106 262 LINE",
"52 262 LINE",
"52 238 LINE SMOOTH",
"52 64 OFFCURVE",
"164 -14 OFFCURVE",
"312 -14 CURVE SMOOTH",
"460 -14 OFFCURVE",
"558 64 OFFCURVE",
"558 184 CURVE SMOOTH",
"558 304 OFFCURVE",
"467 347 OFFCURVE",
"359 373 CURVE SMOOTH",
"289 390 LINE SMOOTH",
"189 414 OFFCURVE",
"124 441 OFFCURVE",
"124 531 CURVE SMOOTH",
"124 619 OFFCURVE",
"200 666 OFFCURVE",
"302 666 CURVE SMOOTH",
"408 666 OFFCURVE",
"492 619 OFFCURVE",
"492 505 CURVE SMOOTH",
"492 450 LINE",
"546 450 LINE",
"546 505 LINE SMOOTH",
"546 643 OFFCURVE",
"438 714 OFFCURVE",
"302 714 CURVE SMOOTH"
);
}
);
width = 612;
},
{
anchors = (
{
name = bottom;
position = "{307, 0}";
},
{
name = top;
position = "{293, 700}";
}
);
layerId = "5117E3E8-E17C-4812-BAF5-9E7064564A59";
paths = (
{
closed = 1;
nodes = (
"139 714 OFFCURVE",
"42 638 OFFCURVE",
"42 510 CURVE SMOOTH",
"42 382 OFFCURVE",
"127 333 OFFCURVE",
"272 301 CURVE SMOOTH",
"295 296 LINE SMOOTH",
"385 276 OFFCURVE",
"434 256 OFFCURVE",
"434 198 CURVE SMOOTH",
"434 142 OFFCURVE",
"389 102 OFFCURVE",
"299 102 CURVE SMOOTH",
"209 102 OFFCURVE",
"154 144 OFFCURVE",
"154 228 CURVE SMOOTH",
"154 256 LINE",
"24 256 LINE",
"24 228 LINE SMOOTH",
"24 76 OFFCURVE",
"137 -14 OFFCURVE",
"299 -14 CURVE SMOOTH",
"461 -14 OFFCURVE",
"564 74 OFFCURVE",
"564 202 CURVE SMOOTH",
"564 330 OFFCURVE",
"467 382 OFFCURVE",
"318 414 CURVE SMOOTH",
"295 419 LINE SMOOTH",
"211 437 OFFCURVE",
"172 462 OFFCURVE",
"172 514 CURVE SMOOTH",
"172 566 OFFCURVE",
"209 598 OFFCURVE",
"289 598 CURVE SMOOTH",
"369 598 OFFCURVE",
"418 566 OFFCURVE",
"418 486 CURVE SMOOTH",
"418 456 LINE",
"548 456 LINE",
"548 486 LINE SMOOTH",
"548 638 OFFCURVE",
"439 714 OFFCURVE",
"289 714 CURVE SMOOTH"
);
}
);
width = 590;
}
);
leftKerningGroup = S;
note = S;
rightKerningGroup = S;
unicode = 0053;
},
{
glyphname = Germandbls;
lastChange = "2019-12-28 00:01:12 +0000";
layers = (
{
layerId = "A285862E-BE3D-4D67-A40D-0E28E121AD88";
paths = (
{
closed = 1;
nodes = (
"132 0 LINE",
"132 456 LINE SMOOTH",
"132 597 OFFCURVE",
"207 652 OFFCURVE",
"314 652 CURVE SMOOTH",
"482 652 LINE",
"348 496 LINE SMOOTH",
"315 458 OFFCURVE",
"290 425 OFFCURVE",
"290 384 CURVE SMOOTH",
"290 338 OFFCURVE",
"314 310 OFFCURVE",
"374 282 CURVE SMOOTH",
"421 260 LINE SMOOTH",
"476 234 OFFCURVE",
"522 207 OFFCURVE",
"522 145 CURVE SMOOTH",
"522 85 OFFCURVE",
"473 34 OFFCURVE",
"400 34 CURVE SMOOTH",
"304 34 OFFCURVE",
"262 95 OFFCURVE",
"262 168 CURVE",
"208 168 LINE",
"208 60 OFFCURVE",
"282 -14 OFFCURVE",
"400 -14 CURVE SMOOTH",
"508 -14 OFFCURVE",
"572 58 OFFCURVE",
"572 145 CURVE SMOOTH",
"572 229 OFFCURVE",
"515 271 OFFCURVE",
"440 306 CURVE SMOOTH",
"395 327 LINE SMOOTH",
"363 342 OFFCURVE",
"340 359 OFFCURVE",
"340 386 CURVE SMOOTH",
"340 410 OFFCURVE",
"354 429 OFFCURVE",
"368 445 CURVE SMOOTH",
"550 658 LINE",
"550 700 LINE",
"314 700 LINE SMOOTH",
"172 700 OFFCURVE",
"78 620 OFFCURVE",
"78 452 CURVE SMOOTH",
"78 0 LINE"
);
}
);
width = 602;
},
{
layerId = "5117E3E8-E17C-4812-BAF5-9E7064564A59";
paths = (
{
closed = 1;
nodes = (
"188 0 LINE",
"188 420 LINE SMOOTH",
"188 543 OFFCURVE",
"261 580 OFFCURVE",
"328 580 CURVE SMOOTH",
"435 580 LINE",
"355 479 LINE SMOOTH",
"322 437 OFFCURVE",
"295 401 OFFCURVE",
"295 355 CURVE SMOOTH",
"295 308 OFFCURVE",
"319 267 OFFCURVE",
"375 244 CURVE SMOOTH",
"423 224 LINE SMOOTH",
"457 210 OFFCURVE",
"487 194 OFFCURVE",
"487 159 CURVE SMOOTH",
"487 127 OFFCURVE",
"462 104 OFFCURVE",
"422 104 CURVE SMOOTH",
"382 104 OFFCURVE",
"352 129 OFFCURVE",
"352 168 CURVE",
"218 168 LINE",
"218 63 OFFCURVE",
"294 -14 OFFCURVE",
"422 -14 CURVE SMOOTH",
"550 -14 OFFCURVE",
"617 62 OFFCURVE",
"617 161 CURVE SMOOTH",
"617 257 OFFCURVE",
"561 300 OFFCURVE",
"490 331 CURVE SMOOTH",
"453 347 LINE SMOOTH",
"435 355 OFFCURVE",
"427 361 OFFCURVE",
"427 371 CURVE SMOOTH",
"427 379 OFFCURVE",
"430 384 OFFCURVE",
"438 394 CURVE SMOOTH",
"588 596 LINE",
"588 700 LINE",
"328 700 LINE SMOOTH",
"167 700 OFFCURVE",
"56 596 OFFCURVE",
"56 416 CURVE SMOOTH",
"56 0 LINE"
);
}
);
width = 639;
}
);
leftMetricsKey = U;
note = uni1E9E;
unicode = 1E9E;
},
{
glyphname = T;
lastChange = "2019-10-17 09:43:31 +0000";
layers = (
{
anchors = (
{
name = bottom;
position = "{295, 0}";
},
{
name = strokeC;
position = "{294, 484}";
},
{
name = top;
position = "{294, 700}";
}
);
layerId = "A285862E-BE3D-4D67-A40D-0E28E121AD88";
paths = (
{
closed = 1;
nodes = (
"22 652 LINE",
"267 652 LINE",
"267 0 LINE",
"321 0 LINE",
"321 652 LINE",
"566 652 LINE",
"566 700 LINE",
"22 700 LINE"
);
}
);
width = 588;
},
{
anchors = (
{
name = bottom;
position = "{286, 0}";
},
{
name = strokeC;
position = "{286, 496}";
},
{
name = top;
position = "{286, 700}";
}
);
layerId = "5117E3E8-E17C-4812-BAF5-9E7064564A59";
paths = (
{
closed = 1;
nodes = (
"8 580 LINE",
"220 580 LINE",
"220 0 LINE",
"352 0 LINE",
"352 580 LINE",
"564 580 LINE",
"564 700 LINE",
"8 700 LINE"
);
}
);
width = 572;
}
);
leftKerningGroup = T;
note = T;
rightKerningGroup = T;
unicode = 0054;
},
{
glyphname = U;
lastChange = "2019-12-28 00:00:30 +0000";
layers = (
{
anchors = (
{
name = bottom;
position = "{329, 0}";
},
{
name = top;
position = "{326, 700}";
}
);
layerId = "A285862E-BE3D-4D67-A40D-0E28E121AD88";
paths = (
{
closed = 1;
nodes = (
"78 227 LINE SMOOTH",
"78 62 OFFCURVE",
"180 -14 OFFCURVE",
"326 -14 CURVE SMOOTH",
"472 -14 OFFCURVE",
"574 62 OFFCURVE",
"574 227 CURVE SMOOTH",
"574 700 LINE",
"520 700 LINE",
"520 227 LINE SMOOTH",
"520 96 OFFCURVE",
"448 34 OFFCURVE",
"326 34 CURVE SMOOTH",
"204 34 OFFCURVE",
"132 96 OFFCURVE",
"132 227 CURVE SMOOTH",
"132 700 LINE",
"78 700 LINE"
);
}
);
width = 652;
},
{
anchors = (
{
name = bottom;
position = "{330, 0}";
},
{
name = top;
position = "{330, 700}";
}
);
layerId = "5117E3E8-E17C-4812-BAF5-9E7064564A59";
paths = (
{
closed = 1;
nodes = (
"56 246 LINE SMOOTH",
"56 86 OFFCURVE",
"158 -14 OFFCURVE",
"330 -14 CURVE SMOOTH",
"502 -14 OFFCURVE",
"604 86 OFFCURVE",
"604 246 CURVE SMOOTH",
"604 700 LINE",
"472 700 LINE",
"472 242 LINE SMOOTH",
"472 156 OFFCURVE",
"422 104 OFFCURVE",
"330 104 CURVE SMOOTH",
"238 104 OFFCURVE",
"188 156 OFFCURVE",
"188 242 CURVE SMOOTH",
"188 700 LINE",
"56 700 LINE"
);
}
);
width = 660;
}
);
leftKerningGroup = U;
note = U;
rightKerningGroup = U;
unicode = 0055;
},
{
glyphname = V;
lastChange = "2019-10-15 21:23:36 +0000";
layers = (
{
layerId = "A285862E-BE3D-4D67-A40D-0E28E121AD88";
paths = (
{
closed = 1;
nodes = (
"254 0 LINE",
"354 0 LINE",
"588 700 LINE",
"529 700 LINE",
"309 30 LINE",
"299 30 LINE",
"79 700 LINE",
"20 700 LINE"
);
}
);
width = 608;
},
{
layerId = "5117E3E8-E17C-4812-BAF5-9E7064564A59";
paths = (
{
closed = 1;
nodes = (
"188 0 LINE",
"414 0 LINE",
"598 700 LINE",
"462 700 LINE",
"308 85 LINE",
"294 85 LINE",
"140 700 LINE",
"4 700 LINE"
);
}
);
width = 602;
}
);
leftKerningGroup = V;
note = V;
rightKerningGroup = V;
unicode = 0056;
},
{
glyphname = W;
lastChange = "2020-04-22 10:26:40 +0000";
layers = (
{
anchors = (
{
name = top;
position = "{436, 700}";
}
);
layerId = "A285862E-BE3D-4D67-A40D-0E28E121AD88";
paths = (
{
closed = 1;
nodes = (
"170 0 LINE",
"275 0 LINE",
"431 670 LINE",
"441 670 LINE",
"597 0 LINE",
"702 0 LINE",
"833 700 LINE",
"776 700 LINE",
"654 30 LINE",
"644 30 LINE",
"488 700 LINE",
"384 700 LINE",
"228 30 LINE",
"218 30 LINE",
"96 700 LINE",
"39 700 LINE"
);
}
);
width = 872;
},
{
anchors = (
{
name = top;
position = "{446, 700}";
}
);
layerId = "5117E3E8-E17C-4812-BAF5-9E7064564A59";
paths = (
{
closed = 1;
nodes = (
"110 0 LINE",
"339 0 LINE",
"437 622 LINE",
"455 622 LINE",
"553 0 LINE",
"782 0 LINE",
"877 700 LINE",
"746 700 LINE",
"674 92 LINE",
"656 92 LINE",
"560 700 LINE",
"332 700 LINE",
"236 92 LINE",
"218 92 LINE",
"146 700 LINE",
"15 700 LINE"
);
}
);
width = 892;
}
);
leftKerningGroup = W;
note = W;
rightKerningGroup = W;
unicode = 0057;
},
{
glyphname = X;
lastChange = "2020-04-22 10:25:37 +0000";
layers = (
{
layerId = "A285862E-BE3D-4D67-A40D-0E28E121AD88";
paths = (
{
closed = 1;
nodes = (
"270 353 LINE",
"32 0 LINE",
"99 0 LINE",
"305 316 LINE",
"315 316 LINE",
"521 0 LINE",
"588 0 LINE",
"350 353 LINE",
"584 700 LINE",
"517 700 LINE",
"315 390 LINE",
"305 390 LINE",
"103 700 LINE",
"36 700 LINE"
);
}
);
width = 620;
},
{
layerId = "5117E3E8-E17C-4812-BAF5-9E7064564A59";
paths = (
{
closed = 1;
nodes = (
"217 353 LINE",
"12 0 LINE",
"162 0 LINE",
"303 259 LINE",
"321 259 LINE",
"462 0 LINE",
"612 0 LINE",
"407 353 LINE",
"610 700 LINE",
"460 700 LINE",
"321 447 LINE",
"303 447 LINE",
"164 700 LINE",
"14 700 LINE"
);
}
);
width = 624;
}
);
leftKerningGroup = X;
note = X;
rightKerningGroup = X;
unicode = 0058;
},
{
glyphname = Y;
lastChange = "2020-04-22 10:25:16 +0000";
layers = (
{
anchors = (
{
name = top;
position = "{310, 700}";
}
);
layerId = "A285862E-BE3D-4D67-A40D-0E28E121AD88";
paths = (
{
closed = 1;
nodes = (
"283 281 LINE",
"283 0 LINE",
"337 0 LINE",
"337 281 LINE",
"592 700 LINE",
"527 700 LINE",
"315 341 LINE",
"305 341 LINE",
"93 700 LINE",
"28 700 LINE"
);
}
);
width = 620;
},
{
anchors = (
{
name = top;
position = "{306, 700}";
}
);
layerId = "5117E3E8-E17C-4812-BAF5-9E7064564A59";
paths = (
{
closed = 1;
nodes = (
"240 247 LINE",
"240 0 LINE",
"372 0 LINE",
"372 247 LINE",
"618 700 LINE",
"470 700 LINE",
"315 397 LINE",
"297 397 LINE",
"142 700 LINE",
"-6 700 LINE"
);
}
);
width = 612;
}
);
leftKerningGroup = Y;
note = Y;
rightKerningGroup = Y;
unicode = 0059;
},
{
glyphname = Z;
lastChange = "2019-08-27 21:57:21 +0000";
layers = (
{
anchors = (
{
name = bottom;
position = "{287, 0}";
},
{
name = top;
position = "{286, 700}";
}
);
layerId = "A285862E-BE3D-4D67-A40D-0E28E121AD88";
paths = (
{
closed = 1;
nodes = (
"60 652 LINE",
"465 652 LINE",
"48 44 LINE",
"48 0 LINE",
"544 0 LINE",
"544 48 LINE",
"116 48 LINE",
"533 656 LINE",
"533 700 LINE",
"60 700 LINE"
);
}
);
width = 586;
},
{
anchors = (
{
name = bottom;
position = "{304, 0}";
},
{
name = top;
position = "{296, 700}";
}
);
layerId = "5117E3E8-E17C-4812-BAF5-9E7064564A59";
paths = (
{
closed = 1;
nodes = (
"38 582 LINE",
"375 582 LINE",
"28 114 LINE",
"28 0 LINE",
"542 0 LINE",
"542 118 LINE",
"193 118 LINE",
"540 586 LINE",
"540 700 LINE",
"38 700 LINE"
);
}
);
width = 570;
}
);
leftKerningGroup = Z;
note = Z;
rightKerningGroup = Z;
unicode = 005A;
},
{
glyphname = B.ss03;
lastChange = "2020-04-22 10:21:35 +0000";
layers = (
{
layerId = "A285862E-BE3D-4D67-A40D-0E28E121AD88";
paths = (
{
closed = 1;
nodes = (
"48 652 LINE",
"148 652 LINE",
"148 48 LINE",
"48 48 LINE",
"48 0 LINE",
"400 0 LINE SMOOTH",
"520 0 OFFCURVE",
"610 67 OFFCURVE",
"610 185 CURVE SMOOTH",
"610 282 OFFCURVE",
"544 332 OFFCURVE",
"489 347 CURVE",
"489 357 LINE",
"542 374 OFFCURVE",
"610 421 OFFCURVE",
"610 519 CURVE SMOOTH",
"610 631 OFFCURVE",
"521 700 OFFCURVE",
"404 700 CURVE SMOOTH",
"48 700 LINE"
);
},
{
closed = 1;
nodes = (
"396 328 LINE SMOOTH",
"502 328 OFFCURVE",
"556 273 OFFCURVE",
"556 189 CURVE SMOOTH",
"556 109 OFFCURVE",
"502 48 OFFCURVE",
"402 48 CURVE SMOOTH",
"202 48 LINE",
"202 328 LINE"
);
},
{
closed = 1;
nodes = (
"400 652 LINE SMOOTH",
"496 652 OFFCURVE",
"556 596 OFFCURVE",
"556 517 CURVE SMOOTH",
"556 435 OFFCURVE",
"500 376 OFFCURVE",
"402 376 CURVE SMOOTH",
"202 376 LINE",
"202 652 LINE"
);
}
);
width = 668;
},
{
layerId = "5117E3E8-E17C-4812-BAF5-9E7064564A59";
paths = (
{
closed = 1;
nodes = (
"44 584 LINE",
"136 584 LINE",
"136 116 LINE",
"44 116 LINE",
"44 0 LINE",
"416 0 LINE SMOOTH",
"536 0 OFFCURVE",
"622 72 OFFCURVE",
"622 191 CURVE SMOOTH",
"622 295 OFFCURVE",
"555 334 OFFCURVE",
"511 346 CURVE",
"511 364 LINE",
"555 377 OFFCURVE",
"618 415 OFFCURVE",
"618 515 CURVE SMOOTH",
"618 628 OFFCURVE",
"534 700 OFFCURVE",
"412 700 CURVE SMOOTH",
"44 700 LINE"
);
},
{
closed = 1;
nodes = (
"400 292 LINE SMOOTH",
"458 292 OFFCURVE",
"496 260 OFFCURVE",
"496 206 CURVE SMOOTH",
"496 152 OFFCURVE",
"458 120 OFFCURVE",
"400 120 CURVE SMOOTH",
"268 120 LINE",
"268 292 LINE"
);
},
{
closed = 1;
nodes = (
"398 580 LINE SMOOTH",
"454 580 OFFCURVE",
"492 548 OFFCURVE",
"492 496 CURVE SMOOTH",
"492 444 OFFCURVE",
"454 412 OFFCURVE",
"398 412 CURVE SMOOTH",
"268 412 LINE",
"268 580 LINE"
);
}
);
width = 652;
}
);
leftKerningGroup = Serif;
leftMetricsKey = I.ss04;
note = B.alt;
rightKerningGroup = B;
},
{
glyphname = D.ss03;
lastChange = "2020-01-01 23:59:12 +0000";
layers = (
{
anchors = (
{
name = stroke;
position = "{148, 484}";
},
{
name = top;
position = "{351, 700}";
}
);
layerId = "A285862E-BE3D-4D67-A40D-0E28E121AD88";
paths = (
{
closed = 1;
nodes = (
"48 652 LINE",
"148 652 LINE",
"148 48 LINE",
"48 48 LINE",
"48 0 LINE",
"330 0 LINE SMOOTH",
"512 0 OFFCURVE",
"620 90 OFFCURVE",
"620 287 CURVE SMOOTH",
"620 413 LINE SMOOTH",
"620 610 OFFCURVE",
"512 700 OFFCURVE",
"330 700 CURVE SMOOTH",
"48 700 LINE"
);
},
{
closed = 1;
nodes = (
"330 652 LINE SMOOTH",
"481 652 OFFCURVE",
"566 582 OFFCURVE",
"566 416 CURVE SMOOTH",
"566 284 LINE SMOOTH",
"566 118 OFFCURVE",
"485 48 OFFCURVE",
"330 48 CURVE SMOOTH",
"202 48 LINE",
"202 652 LINE"
);
}
);
width = 674;
},
{
anchors = (
{
name = stroke;
position = "{136, 496}";
},
{
name = top;
position = "{336, 700}";
}
);
layerId = "5117E3E8-E17C-4812-BAF5-9E7064564A59";
paths = (
{
closed = 1;
nodes = (
"44 584 LINE",
"136 584 LINE",
"136 116 LINE",
"44 116 LINE",
"44 0 LINE",
"338 0 LINE SMOOTH",
"526 0 OFFCURVE",
"626 96 OFFCURVE",
"626 284 CURVE SMOOTH",
"626 416 LINE SMOOTH",
"626 604 OFFCURVE",
"526 700 OFFCURVE",
"338 700 CURVE SMOOTH",
"44 700 LINE"
);
},
{
closed = 1;
nodes = (
"340 580 LINE SMOOTH",
"446 580 OFFCURVE",
"494 522 OFFCURVE",
"494 420 CURVE SMOOTH",
"494 280 LINE SMOOTH",
"494 178 OFFCURVE",
"446 120 OFFCURVE",
"340 120 CURVE SMOOTH",
"268 120 LINE",
"268 580 LINE"
);
}
);
width = 664;
}
);
leftKerningGroup = Serif;
leftMetricsKey = I.ss04;
note = D.alt;
rightKerningGroup = O;
rightMetricsKey = "=O-6";
},
{
glyphname = I.ss04;
lastChange = "2020-01-01 23:58:15 +0000";
layers = (
{
anchors = (
{
name = bottom;
position = "{195, 0}";
},
{
name = top;
position = "{195, 700}";
}
);
layerId = "A285862E-BE3D-4D67-A40D-0E28E121AD88";
paths = (
{
closed = 1;
nodes = (
"48 652 LINE",
"168 652 LINE",
"168 48 LINE",
"48 48 LINE",
"48 0 LINE",
"342 0 LINE",
"342 48 LINE",
"222 48 LINE",
"222 652 LINE",
"342 652 LINE",
"342 700 LINE",
"48 700 LINE"
);
}
);
width = 390;
},
{
anchors = (
{
name = bottom;
position = "{220, 0}";
},
{
name = top;
position = "{220, 700}";
}
);
layerId = "5117E3E8-E17C-4812-BAF5-9E7064564A59";
paths = (
{
closed = 1;
nodes = (
"44 584 LINE",
"154 584 LINE",
"154 116 LINE",
"44 116 LINE",
"44 0 LINE",
"396 0 LINE",
"396 116 LINE",
"286 116 LINE",
"286 584 LINE",
"396 584 LINE",
"396 700 LINE",
"44 700 LINE"
);
}
);
width = 440;
}
);
leftKerningGroup = Serif;
note = I;
rightKerningGroup = Serif;
},
{
glyphname = IJ.ss04;
lastChange = "2020-01-01 23:58:42 +0000";
layers = (
{
layerId = "A285862E-BE3D-4D67-A40D-0E28E121AD88";
paths = (
{
closed = 1;
nodes = (
"48 652 LINE",
"138 652 LINE",
"138 343 LINE",
"192 343 LINE",
"192 652 LINE",
"282 652 LINE",
"282 700 LINE",
"48 700 LINE"
);
},
{
closed = 1;
nodes = (
"412 652 LINE",
"522 652 LINE",
"522 210 LINE SMOOTH",
"522 108 OFFCURVE",
"485 34 OFFCURVE",
"364 34 CURVE SMOOTH",
"247 34 OFFCURVE",
"192 107 OFFCURVE",
"192 210 CURVE SMOOTH",
"192 227 LINE",
"138 227 LINE",
"138 210 LINE SMOOTH",
"138 63 OFFCURVE",
"223 -14 OFFCURVE",
"362 -14 CURVE SMOOTH",
"506 -14 OFFCURVE",
"576 65 OFFCURVE",
"576 210 CURVE SMOOTH",
"576 652 LINE",
"666 652 LINE",
"666 700 LINE",
"412 700 LINE"
);
}
);
width = 714;
},
{
layerId = "5117E3E8-E17C-4812-BAF5-9E7064564A59";
paths = (
{
closed = 1;
nodes = (
"36 580 LINE",
"116 580 LINE",
"116 342 LINE",
"248 342 LINE",
"248 580 LINE",
"328 580 LINE",
"328 700 LINE",
"36 700 LINE"
);
},
{
closed = 1;
nodes = (
"396 580 LINE",
"476 580 LINE",
"476 210 LINE SMOOTH",
"476 146 OFFCURVE",
"436 110 OFFCURVE",
"365 110 CURVE SMOOTH",
"290 110 OFFCURVE",
"248 147 OFFCURVE",
"248 210 CURVE SMOOTH",
"248 260 LINE",
"116 260 LINE",
"116 210 LINE SMOOTH",
"116 69 OFFCURVE",
"213 -14 OFFCURVE",
"369 -14 CURVE SMOOTH",
"518 -14 OFFCURVE",
"608 65 OFFCURVE",
"608 210 CURVE SMOOTH",
"608 580 LINE",
"688 580 LINE",
"688 700 LINE",
"396 700 LINE"
);
}
);
width = 724;
}
);
leftKerningGroup = JSerif;
note = IJ;
rightKerningGroup = JSerif;
rightMetricsKey = J.ss04;
},
{
glyphname = J.ss04;
lastChange = "2020-01-01 23:58:31 +0000";
layers = (
{
layerId = "A285862E-BE3D-4D67-A40D-0E28E121AD88";
paths = (
{
closed = 1;
nodes = (
"282 652 LINE",
"406 652 LINE",
"406 210 LINE SMOOTH",
"406 108 OFFCURVE",
"371 34 OFFCURVE",
"258 34 CURVE SMOOTH",
"148 34 OFFCURVE",
"96 107 OFFCURVE",
"96 210 CURVE SMOOTH",
"96 257 LINE",
"42 257 LINE",
"42 210 LINE SMOOTH",
"42 63 OFFCURVE",
"123 -14 OFFCURVE",
"256 -14 CURVE SMOOTH",
"393 -14 OFFCURVE",
"460 65 OFFCURVE",
"460 210 CURVE SMOOTH",
"460 652 LINE",
"530 652 LINE",
"530 700 LINE",
"282 700 LINE"
);
}
);
width = 578;
},
{
layerId = "5117E3E8-E17C-4812-BAF5-9E7064564A59";
paths = (
{
closed = 1;
nodes = (
"222 584 LINE",
"350 584 LINE",
"350 210 LINE SMOOTH",
"350 146 OFFCURVE",
"316 110 OFFCURVE",
"257 110 CURVE SMOOTH",
"194 110 OFFCURVE",
"158 147 OFFCURVE",
"158 210 CURVE SMOOTH",
"158 276 LINE",
"26 276 LINE",
"26 210 LINE SMOOTH",
"26 69 OFFCURVE",
"117 -14 OFFCURVE",
"261 -14 CURVE SMOOTH",
"398 -14 OFFCURVE",
"482 65 OFFCURVE",
"482 210 CURVE SMOOTH",
"482 584 LINE",
"562 584 LINE",
"562 700 LINE",
"222 700 LINE"
);
}
);
width = 598;
}
);
leftKerningGroup = J;
leftMetricsKey = J;
note = J;
rightKerningGroup = JSerif;
},
{
glyphname = a;
lastChange = "2020-04-22 10:13:48 +0000";
layers = (
{
anchors = (
{
name = bottom;
position = "{466, 0}";
},
{
name = top;
position = "{262, 484}";
}
);
layerId = "A285862E-BE3D-4D67-A40D-0E28E121AD88";
paths = (
{
closed = 1;
nodes = (
"111 330 LINE",
"129 403 OFFCURVE",
"181 452 OFFCURVE",
"271 452 CURVE SMOOTH",
"361 452 OFFCURVE",
"410 403 OFFCURVE",
"410 320 CURVE SMOOTH",
"410 278 LINE",
"226 278 LINE SMOOTH",
"126 278 OFFCURVE",
"48 232 OFFCURVE",
"48 136 CURVE SMOOTH",
"48 40 OFFCURVE",
"126 -14 OFFCURVE",
"228 -14 CURVE SMOOTH",
"326 -14 OFFCURVE",
"373 29 OFFCURVE",
"402 77 CURVE",
"460 77 LINE",
"460 318 LINE SMOOTH",
"460 430 OFFCURVE",
"391 498 OFFCURVE",
"271 498 CURVE SMOOTH",
"151 498 OFFCURVE",
"85 430 OFFCURVE",
"62 344 CURVE"
);
},
{
closed = 1;
nodes = (
"98 202 OFFCURVE",
"154 234 OFFCURVE",
"226 234 CURVE SMOOTH",
"410 234 LINE",
"410 220 LINE SMOOTH",
"410 100 OFFCURVE",
"338 30 OFFCURVE",
"230 30 CURVE SMOOTH",
"154 30 OFFCURVE",
"98 70 OFFCURVE",
"98 136 CURVE SMOOTH"
);
},
{
closed = 1;
nodes = (
"412 87 LINE",
"412 66 LINE SMOOTH",
"412 24 OFFCURVE",
"436 0 OFFCURVE",
"476 0 CURVE SMOOTH",
"536 0 LINE",
"536 42 LINE",
"488 42 LINE SMOOTH",
"470 42 OFFCURVE",
"460 52 OFFCURVE",
"460 72 CURVE SMOOTH",
"460 87 LINE"
);
}
);
width = 554;
},
{
anchors = (
{
name = bottom;
position = "{462, 0}";
},
{
name = top;
position = "{273, 496}";
}
);
layerId = "5117E3E8-E17C-4812-BAF5-9E7064564A59";
paths = (
{
closed = 1;
nodes = (
"168 331 LINE",
"177 376 OFFCURVE",
"205 410 OFFCURVE",
"268 410 CURVE SMOOTH",
"332 410 OFFCURVE",
"360 374 OFFCURVE",
"360 328 CURVE SMOOTH",
"360 300 LINE",
"224 300 LINE SMOOTH",
"112 300 OFFCURVE",
"32 247 OFFCURVE",
"32 145 CURVE SMOOTH",
"32 43 OFFCURVE",
"112 -14 OFFCURVE",
"218 -14 CURVE SMOOTH",
"322 -14 OFFCURVE",
"353 42 OFFCURVE",
"362 67 CURVE",
"482 67 LINE",
"482 319 LINE SMOOTH",
"482 443 OFFCURVE",
"400 510 OFFCURVE",
"270 510 CURVE SMOOTH",
"141 510 OFFCURVE",
"76 445 OFFCURVE",
"52 370 CURVE"
);
},
{
closed = 1;
nodes = (
"158 184 OFFCURVE",
"186 206 OFFCURVE",
"233 206 CURVE SMOOTH",
"360 206 LINE",
"360 196 LINE SMOOTH",
"360 130 OFFCURVE",
"310 86 OFFCURVE",
"240 86 CURVE SMOOTH",
"186 86 OFFCURVE",
"158 112 OFFCURVE",
"158 148 CURVE SMOOTH"
);
},
{
closed = 1;
nodes = (
"378 162 LINE",
"378 92 LINE SMOOTH",
"378 36 OFFCURVE",
"412 0 OFFCURVE",
"466 0 CURVE SMOOTH",
"550 0 LINE",
"550 100 LINE",
"510 100 LINE SMOOTH",
"492 100 OFFCURVE",
"482 110 OFFCURVE",
"482 130 CURVE SMOOTH",
"482 162 LINE"
);
}
);
width = 566;
},
{
anchors = (
{
name = bottom;
position = "{464, 0}";
},
{
name = top;
position = "{268, 491}";
}
);
associatedMasterId = "A285862E-BE3D-4D67-A40D-0E28E121AD88";
layerId = "FD3E7DFE-38A9-437D-80B0-3567753E73EB";
name = "Medium {530}";
paths = (
{
closed = 1;
nodes = (
"144 331 LINE",
"157 387 OFFCURVE",
"195 428 OFFCURVE",
"269 428 CURVE SMOOTH",
"344 428 OFFCURVE",
"381 386 OFFCURVE",
"381 325 CURVE SMOOTH",
"381 293 LINE",
"225 293 LINE SMOOTH",
"118 293 OFFCURVE",
"39 242 OFFCURVE",
"39 141 CURVE SMOOTH",
"39 42 OFFCURVE",
"118 -14 OFFCURVE",
"222 -14 CURVE SMOOTH",
"325 -14 OFFCURVE",
"363 38 OFFCURVE",
"381 75 CURVE",
"473 75 LINE",
"473 319 LINE SMOOTH",
"473 437 OFFCURVE",
"396 505 OFFCURVE",
"270 505 CURVE SMOOTH",
"145 505 OFFCURVE",
"80 439 OFFCURVE",
"56 359 CURVE"
);
},
{
closed = 1;
nodes = (
"133 192 OFFCURVE",
"172 217 OFFCURVE",
"230 217 CURVE SMOOTH",
"381 217 LINE",
"381 206 LINE SMOOTH",
"381 117 OFFCURVE",
"322 62 OFFCURVE",
"236 62 CURVE SMOOTH",
"172 62 OFFCURVE",
"133 94 OFFCURVE",
"133 143 CURVE SMOOTH"
);
},
{
closed = 1;
nodes = (
"392 130 LINE",
"392 81 LINE SMOOTH",
"392 31 OFFCURVE",
"422 0 OFFCURVE",
"470 0 CURVE SMOOTH",
"544 0 LINE",
"544 75 LINE",
"501 75 LINE SMOOTH",
"483 75 OFFCURVE",
"473 85 OFFCURVE",
"473 105 CURVE SMOOTH",
"473 130 LINE"
);
}
);
width = 561;
}
);
leftKerningGroup = a;
note = a.alt;
rightKerningGroup = a;
unicode = 0061;
},
{
glyphname = ae;
lastChange = "2020-04-22 10:14:36 +0000";
layers = (
{
anchors = (
{
name = top;
position = "{476, 484}";
}
);
layerId = "A285862E-BE3D-4D67-A40D-0E28E121AD88";
paths = (
{
closed = 1;
nodes = (
"111 332 LINE",
"130 405 OFFCURVE",
"186 452 OFFCURVE",
"278 452 CURVE SMOOTH",
"368 452 OFFCURVE",
"424 403 OFFCURVE",
"424 320 CURVE SMOOTH",
"424 275 LINE",
"234 275 LINE SMOOTH",
"129 275 OFFCURVE",
"48 230 OFFCURVE",
"48 134 CURVE SMOOTH",
"48 38 OFFCURVE",
"130 -14 OFFCURVE",
"242 -14 CURVE SMOOTH",
"358 -14 OFFCURVE",
"420 44 OFFCURVE",
"447 115 CURVE",
"472 115 LINE",
"456 252 LINE",
"478 390 LINE",
"458 390 LINE",
"434 457 OFFCURVE",
"369 498 OFFCURVE",
"278 498 CURVE SMOOTH",
"156 498 OFFCURVE",
"85 430 OFFCURVE",
"62 346 CURVE"
);
},
{
closed = 1;
nodes = (
"98 200 OFFCURVE",
"158 231 OFFCURVE",
"234 231 CURVE SMOOTH",
"424 231 LINE",
"424 220 LINE SMOOTH",
"424 99 OFFCURVE",
"350 30 OFFCURVE",
"242 30 CURVE SMOOTH",
"160 30 OFFCURVE",
"98 68 OFFCURVE",
"98 134 CURVE SMOOTH"
);
},
{
closed = 1;
nodes = (
"429 99 OFFCURVE",
"522 -14 OFFCURVE",
"669 -14 CURVE SMOOTH",
"787 -14 OFFCURVE",
"840 51 OFFCURVE",
"875 122 CURVE",
"829 144 LINE",
"802 83 OFFCURVE",
"758 32 OFFCURVE",
"669 32 CURVE SMOOTH",
"558 32 OFFCURVE",
"483 107 OFFCURVE",
"476 231 CURVE",
"885 231 LINE",
"885 263 LINE SMOOTH",
"885 411 OFFCURVE",
"792 498 OFFCURVE",
"660 498 CURVE SMOOTH",
"525 498 OFFCURVE",
"429 389 OFFCURVE",
"429 246 CURVE SMOOTH"
);
},
{
closed = 1;
nodes = (
"488 385 OFFCURVE",
"560 452 OFFCURVE",
"660 452 CURVE SMOOTH",
"761 452 OFFCURVE",
"829 391 OFFCURVE",
"833 275 CURVE",
"476 275 LINE"
);
}
);
width = 931;
},
{
anchors = (
{
name = top;
position = "{438, 496}";
}
);
layerId = "5117E3E8-E17C-4812-BAF5-9E7064564A59";
paths = (
{
closed = 1;
nodes = (
"158 331 LINE",
"171 376 OFFCURVE",
"203 410 OFFCURVE",
"264 410 CURVE SMOOTH",
"328 410 OFFCURVE",
"362 374 OFFCURVE",
"362 328 CURVE SMOOTH",
"362 299 LINE",
"228 299 LINE SMOOTH",
"112 299 OFFCURVE",
"32 246 OFFCURVE",
"32 144 CURVE SMOOTH",
"32 42 OFFCURVE",
"114 -14 OFFCURVE",
"230 -14 CURVE SMOOTH",
"347 -14 OFFCURVE",
"393 45 OFFCURVE",
"411 75 CURVE",
"439 75 LINE",
"430 260 LINE",
"452 442 LINE",
"424 442 LINE",
"392 482 OFFCURVE",
"345 510 OFFCURVE",
"264 510 CURVE SMOOTH",
"139 510 OFFCURVE",
"73 445 OFFCURVE",
"46 370 CURVE"
);
},
{
closed = 1;
nodes = (
"156 185 OFFCURVE",
"186 205 OFFCURVE",
"237 205 CURVE SMOOTH",
"362 205 LINE",
"362 198 LINE SMOOTH",
"362 132 OFFCURVE",
"314 88 OFFCURVE",
"244 88 CURVE SMOOTH",
"186 88 OFFCURVE",
"156 113 OFFCURVE",
"156 149 CURVE SMOOTH"
);
},
{
closed = 1;
nodes = (
"372 106 OFFCURVE",
"467 -14 OFFCURVE",
"609 -14 CURVE SMOOTH",
"720 -14 OFFCURVE",
"774 39 OFFCURVE",
"813 94 CURVE",
"720 161 LINE",
"702 132 OFFCURVE",
"671 94 OFFCURVE",
"603 94 CURVE SMOOTH",
"533 94 OFFCURVE",
"488 142 OFFCURVE",
"485 205 CURVE",
"826 205 LINE",
"826 266 LINE SMOOTH",
"826 400 OFFCURVE",
"745 510 OFFCURVE",
"601 510 CURVE SMOOTH",
"467 510 OFFCURVE",
"372 398 OFFCURVE",
"372 252 CURVE SMOOTH"
);
},
{
closed = 1;
nodes = (
"488 360 OFFCURVE",
"529 402 OFFCURVE",
"596 402 CURVE SMOOTH",
"659 402 OFFCURVE",
"700 362 OFFCURVE",
"702 299 CURVE",
"486 299 LINE"
);
}
);
width = 848;
},
{
anchors = (
{
name = top;
position = "{454, 491}";
}
);
associatedMasterId = "A285862E-BE3D-4D67-A40D-0E28E121AD88";
layerId = "E352CCE6-A533-42B6-BA97-53E88B97EC6F";
name = "Medium {530}";
paths = (
{
closed = 1;
nodes = (
"138 331 LINE",
"154 388 OFFCURVE",
"196 428 OFFCURVE",
"270 428 CURVE SMOOTH",
"345 428 OFFCURVE",
"388 386 OFFCURVE",
"388 325 CURVE SMOOTH",
"388 291 LINE",
"231 291 LINE SMOOTH",
"119 291 OFFCURVE",
"39 240 OFFCURVE",
"39 140 CURVE SMOOTH",
"39 40 OFFCURVE",
"121 -14 OFFCURVE",
"235 -14 CURVE SMOOTH",
"352 -14 OFFCURVE",
"406 46 OFFCURVE",
"427 94 CURVE",
"467 94 LINE",
"447 257 LINE",
"462 419 LINE",
"440 419 LINE",
"411 471 OFFCURVE",
"356 505 OFFCURVE",
"270 505 CURVE SMOOTH",
"146 505 OFFCURVE",
"78 439 OFFCURVE",
"53 360 CURVE"
);
},
{
closed = 1;
nodes = (
"131 191 OFFCURVE",
"174 215 OFFCURVE",
"236 215 CURVE SMOOTH",
"388 215 LINE",
"388 207 LINE SMOOTH",
"388 118 OFFCURVE",
"329 63 OFFCURVE",
"243 63 CURVE SMOOTH",
"175 63 OFFCURVE",
"131 94 OFFCURVE",
"131 143 CURVE SMOOTH"
);
},
{
closed = 1;
nodes = (
"396 103 OFFCURVE",
"490 -14 OFFCURVE",
"635 -14 CURVE SMOOTH",
"748 -14 OFFCURVE",
"802 44 OFFCURVE",
"839 106 CURVE",
"766 154 LINE",
"745 111 OFFCURVE",
"708 68 OFFCURVE",
"631 68 CURVE SMOOTH",
"544 68 OFFCURVE",
"486 126 OFFCURVE",
"481 215 CURVE",
"851 215 LINE",
"851 265 LINE SMOOTH",
"851 405 OFFCURVE",
"765 505 OFFCURVE",
"626 505 CURVE SMOOTH",
"492 505 OFFCURVE",
"396 394 OFFCURVE",
"396 249 CURVE SMOOTH"
);
},
{
closed = 1;
nodes = (
"488 372 OFFCURVE",
"542 423 OFFCURVE",
"623 423 CURVE SMOOTH",
"702 423 OFFCURVE",
"755 375 OFFCURVE",
"758 291 CURVE",
"482 291 LINE"
);
}
);
width = 883;
}
);
leftKerningGroup = a;
leftMetricsKey = a;
note = ae;
rightKerningGroup = o;
rightMetricsKey = e;
unicode = 00E6;
},
{
glyphname = b;
lastChange = "2020-04-22 10:08:49 +0000";
layers = (
{
layerId = "A285862E-BE3D-4D67-A40D-0E28E121AD88";
paths = (
{
closed = 1;
nodes = (
"82 0 LINE",
"130 0 LINE",
"130 94 LINE",
"140 94 LINE",
"170 39 OFFCURVE",
"226 -14 OFFCURVE",
"336 -14 CURVE SMOOTH",
"469 -14 OFFCURVE",
"570 87 OFFCURVE",
"570 242 CURVE SMOOTH",
"570 397 OFFCURVE",
"469 498 OFFCURVE",
"336 498 CURVE SMOOTH",
"226 498 OFFCURVE",
"170 445 OFFCURVE",
"142 393 CURVE",
"132 393 LINE",
"132 700 LINE",
"82 700 LINE"
);
},
{
closed = 1;
nodes = (
"441 452 OFFCURVE",
"518 371 OFFCURVE",
"518 242 CURVE SMOOTH",
"518 113 OFFCURVE",
"441 32 OFFCURVE",
"327 32 CURVE SMOOTH",
"213 32 OFFCURVE",
"132 115 OFFCURVE",
"132 242 CURVE SMOOTH",
"132 369 OFFCURVE",
"213 452 OFFCURVE",
"327 452 CURVE SMOOTH"
);
}
);
width = 620;
},
{
layerId = "5117E3E8-E17C-4812-BAF5-9E7064564A59";
paths = (
{
closed = 1;
nodes = (
"56 0 LINE",
"180 0 LINE",
"180 60 LINE",
"198 60 LINE",
"221 22 OFFCURVE",
"264 -14 OFFCURVE",
"354 -14 CURVE SMOOTH",
"472 -14 OFFCURVE",
"578 86 OFFCURVE",
"578 248 CURVE SMOOTH",
"578 410 OFFCURVE",
"472 510 OFFCURVE",
"354 510 CURVE SMOOTH",
"264 510 OFFCURVE",
"221 474 OFFCURVE",
"200 439 CURVE",
"182 439 LINE",
"182 700 LINE",
"56 700 LINE"
);
},
{
closed = 1;
nodes = (
"394 402 OFFCURVE",
"452 346 OFFCURVE",
"452 248 CURVE SMOOTH",
"452 150 OFFCURVE",
"394 94 OFFCURVE",
"316 94 CURVE SMOOTH",
"238 94 OFFCURVE",
"180 150 OFFCURVE",
"180 248 CURVE SMOOTH",
"180 346 OFFCURVE",
"238 402 OFFCURVE",
"316 402 CURVE SMOOTH"
);
}
);
width = 604;
}
);
leftKerningGroup = h;
leftMetricsKey = l;
note = b;
rightKerningGroup = o;
rightMetricsKey = o;
unicode = 0062;
},
{
glyphname = c;
lastChange = "2019-10-15 19:08:06 +0000";
layers = (
{
anchors = (
{
name = bottom;
position = "{301, 0}";
},
{
name = top;
position = "{300, 484}";
}
);
layerId = "A285862E-BE3D-4D67-A40D-0E28E121AD88";
paths = (
{
closed = 1;
nodes = (
"50 88 OFFCURVE",
"158 -14 OFFCURVE",
"299 -14 CURVE SMOOTH",
"434 -14 OFFCURVE",
"509 72 OFFCURVE",
"528 170 CURVE",
"478 180 LINE",
"463 97 OFFCURVE",
"405 32 OFFCURVE",
"299 32 CURVE SMOOTH",
"187 32 OFFCURVE",
"102 115 OFFCURVE",
"102 242 CURVE SMOOTH",
"102 369 OFFCURVE",
"187 452 OFFCURVE",
"298 452 CURVE SMOOTH",
"400 452 OFFCURVE",
"464 387 OFFCURVE",
"475 305 CURVE",
"525 315 LINE",
"511 409 OFFCURVE",
"430 498 OFFCURVE",
"298 498 CURVE SMOOTH",
"158 498 OFFCURVE",
"50 396 OFFCURVE",
"50 242 CURVE SMOOTH"
);
}
);
width = 574;
},
{
anchors = (
{
name = bottom;
position = "{290, 0}";
},
{
name = top;
position = "{288, 496}";
}
);
layerId = "5117E3E8-E17C-4812-BAF5-9E7064564A59";
paths = (
{
closed = 1;
nodes = (
"26 90 OFFCURVE",
"140 -14 OFFCURVE",
"284 -14 CURVE SMOOTH",
"423 -14 OFFCURVE",
"504 67 OFFCURVE",
"532 176 CURVE",
"410 205 LINE",
"399 141 OFFCURVE",
"362 96 OFFCURVE",
"286 96 CURVE SMOOTH",
"210 96 OFFCURVE",
"152 152 OFFCURVE",
"152 248 CURVE SMOOTH",
"152 344 OFFCURVE",
"210 400 OFFCURVE",
"286 400 CURVE SMOOTH",
"362 400 OFFCURVE",
"399 352 OFFCURVE",
"406 292 CURVE",
"528 318 LINE",
"506 429 OFFCURVE",
"422 510 OFFCURVE",
"284 510 CURVE SMOOTH",
"140 510 OFFCURVE",
"26 406 OFFCURVE",
"26 248 CURVE SMOOTH"
);
}
);
width = 554;
}
);
leftKerningGroup = o;
leftMetricsKey = o;
note = c;
rightKerningGroup = o;
rightMetricsKey = "=o-4";
unicode = 0063;
},
{
glyphname = d;
lastChange = "2020-04-22 10:09:04 +0000";
layers = (
{
anchors = (
{
name = caron;
position = "{538, 700}";
},
{
name = strokeB;
position = "{538, 484}";
}
);
layerId = "A285862E-BE3D-4D67-A40D-0E28E121AD88";
paths = (
{
closed = 1;
nodes = (
"488 700 LINE",
"488 393 LINE",
"478 393 LINE",
"450 445 OFFCURVE",
"394 498 OFFCURVE",
"284 498 CURVE SMOOTH",
"151 498 OFFCURVE",
"50 397 OFFCURVE",
"50 242 CURVE SMOOTH",
"50 87 OFFCURVE",
"151 -14 OFFCURVE",
"284 -14 CURVE SMOOTH",
"394 -14 OFFCURVE",
"450 39 OFFCURVE",
"480 94 CURVE",
"490 94 LINE",
"490 0 LINE",
"538 0 LINE",
"538 700 LINE"
);
},
{
closed = 1;
nodes = (
"407 452 OFFCURVE",
"488 369 OFFCURVE",
"488 242 CURVE SMOOTH",
"488 115 OFFCURVE",
"407 32 OFFCURVE",
"293 32 CURVE SMOOTH",
"179 32 OFFCURVE",
"102 113 OFFCURVE",
"102 242 CURVE SMOOTH",
"102 371 OFFCURVE",
"179 452 OFFCURVE",
"293 452 CURVE SMOOTH"
);
}
);
width = 620;
},
{
anchors = (
{
name = caron;
position = "{548, 700}";
},
{
name = strokeB;
position = "{548, 496}";
}
);
layerId = "5117E3E8-E17C-4812-BAF5-9E7064564A59";
paths = (
{
closed = 1;
nodes = (
"422 700 LINE",
"422 439 LINE",
"404 439 LINE",
"383 474 OFFCURVE",
"340 510 OFFCURVE",
"250 510 CURVE SMOOTH",
"132 510 OFFCURVE",
"26 410 OFFCURVE",
"26 248 CURVE SMOOTH",
"26 86 OFFCURVE",
"132 -14 OFFCURVE",
"250 -14 CURVE SMOOTH",
"340 -14 OFFCURVE",
"383 22 OFFCURVE",
"406 60 CURVE",
"424 60 LINE",
"424 0 LINE",
"548 0 LINE",
"548 700 LINE"
);
},
{
closed = 1;
nodes = (
"366 402 OFFCURVE",
"424 346 OFFCURVE",
"424 248 CURVE SMOOTH",
"424 150 OFFCURVE",
"366 94 OFFCURVE",
"288 94 CURVE SMOOTH",
"210 94 OFFCURVE",
"152 150 OFFCURVE",
"152 248 CURVE SMOOTH",
"152 346 OFFCURVE",
"210 402 OFFCURVE",
"288 402 CURVE SMOOTH"
);
}
);
width = 604;
}
);
leftKerningGroup = o;
leftMetricsKey = o;
note = d;
rightKerningGroup = l;
rightMetricsKey = l;
unicode = 0064;
},
{
glyphname = eth;
lastChange = "2020-04-22 10:13:06 +0000";
layers = (
{
layerId = "A285862E-BE3D-4D67-A40D-0E28E121AD88";
paths = (
{
closed = 1;
nodes = (
"356 628 OFFCURVE",
"439 524 OFFCURVE",
"466 418 CURVE",
"456 418 LINE",
"421 466 OFFCURVE",
"367 498 OFFCURVE",
"288 498 CURVE SMOOTH",
"146 498 OFFCURVE",
"50 391 OFFCURVE",
"50 242 CURVE SMOOTH",
"50 93 OFFCURVE",
"146 -14 OFFCURVE",
"294 -14 CURVE SMOOTH",
"442 -14 OFFCURVE",
"538 90 OFFCURVE",
"538 247 CURVE SMOOTH",
"538 514 OFFCURVE",
"409 663 OFFCURVE",
"169 705 CURVE",
"161 662 LINE"
);
},
{
closed = 1;
nodes = (
"100 361 OFFCURVE",
"175 452 OFFCURVE",
"294 452 CURVE SMOOTH",
"412 452 OFFCURVE",
"488 366 OFFCURVE",
"488 242 CURVE SMOOTH",
"488 120 OFFCURVE",
"412 32 OFFCURVE",
"294 32 CURVE SMOOTH",
"175 32 OFFCURVE",
"100 115 OFFCURVE",
"100 242 CURVE SMOOTH"
);
},
{
closed = 1;
nodes = (
"248 568 LINE",
"285 549 LINE",
"369 707 LINE",
"332 726 LINE"
);
}
);
width = 593;
},
{
layerId = "5117E3E8-E17C-4812-BAF5-9E7064564A59";
paths = (
{
closed = 1;
nodes = (
"266 621 OFFCURVE",
"369 567 OFFCURVE",
"405 455 CURVE",
"387 455 LINE",
"357 487 OFFCURVE",
"319 506 OFFCURVE",
"255 506 CURVE SMOOTH",
"134 506 OFFCURVE",
"26 404 OFFCURVE",
"26 248 CURVE SMOOTH",
"26 92 OFFCURVE",
"134 -14 OFFCURVE",
"287 -14 CURVE SMOOTH",
"440 -14 OFFCURVE",
"548 92 OFFCURVE",
"548 275 CURVE SMOOTH",
"548 509 OFFCURVE",
"439 700 OFFCURVE",
"129 747 CURVE",
"110 642 LINE"
);
},
{
closed = 1;
nodes = (
"152 336 OFFCURVE",
"206 394 OFFCURVE",
"286 394 CURVE SMOOTH",
"366 394 OFFCURVE",
"420 336 OFFCURVE",
"420 248 CURVE SMOOTH",
"420 160 OFFCURVE",
"366 102 OFFCURVE",
"286 102 CURVE SMOOTH",
"206 102 OFFCURVE",
"152 160 OFFCURVE",
"152 248 CURVE SMOOTH"
);
},
{
closed = 1;
nodes = (
"179 553 LINE",
"260 531 LINE",
"327 770 LINE",
"246 792 LINE"
);
}
);
width = 578;
}
);
leftKerningGroup = o;
leftMetricsKey = o;
note = eth;
rightKerningGroup = o;
unicode = 00F0;
},
{
glyphname = e;
lastChange = "2019-12-06 14:57:57 +0000";
layers = (
{
anchors = (
{
name = bottom;
position = "{294, 0}";
},
{
name = top;
position = "{292, 484}";
}
);
layerId = "A285862E-BE3D-4D67-A40D-0E28E121AD88";
paths = (
{
closed = 1;
nodes = (
"50 95 OFFCURVE",
"148 -14 OFFCURVE",
"299 -14 CURVE SMOOTH",
"428 -14 OFFCURVE",
"483 57 OFFCURVE",
"516 125 CURVE",
"468 144 LINE",
"440 81 OFFCURVE",
"393 32 OFFCURVE",
"299 32 CURVE SMOOTH",
"186 32 OFFCURVE",
"108 108 OFFCURVE",
"102 235 CURVE",
"523 235 LINE",
"523 263 LINE SMOOTH",
"523 411 OFFCURVE",
"426 498 OFFCURVE",
"292 498 CURVE SMOOTH",
"153 498 OFFCURVE",
"50 393 OFFCURVE",
"50 246 CURVE SMOOTH"
);
},
{
closed = 1;
nodes = (
"115 385 OFFCURVE",
"190 452 OFFCURVE",
"292 452 CURVE SMOOTH",
"395 452 OFFCURVE",
"467 391 OFFCURVE",
"471 279 CURVE",
"103 279 LINE"
);
}
);
width = 569;
},
{
anchors = (
{
name = bottom;
position = "{277, 0}";
},
{
name = top;
position = "{275, 496}";
}
);
layerId = "5117E3E8-E17C-4812-BAF5-9E7064564A59";
paths = (
{
closed = 1;
nodes = (
"26 90 OFFCURVE",
"129 -14 OFFCURVE",
"277 -14 CURVE SMOOTH",
"413 -14 OFFCURVE",
"472 63 OFFCURVE",
"500 116 CURVE",
"397 170 LINE",
"380 132 OFFCURVE",
"351 94 OFFCURVE",
"281 94 CURVE SMOOTH",
"211 94 OFFCURVE",
"158 143 OFFCURVE",
"155 211 CURVE",
"516 211 LINE",
"516 254 LINE SMOOTH",
"516 406 OFFCURVE",
"421 510 OFFCURVE",
"275 510 CURVE SMOOTH",
"129 510 OFFCURVE",
"26 406 OFFCURVE",
"26 248 CURVE SMOOTH"
);
},
{
closed = 1;
nodes = (
"164 360 OFFCURVE",
"206 402 OFFCURVE",
"274 402 CURVE SMOOTH",
"339 402 OFFCURVE",
"382 362 OFFCURVE",
"388 305 CURVE",
"156 305 LINE"
);
}
);
width = 538;
},
{
anchors = (
{
name = bottom;
position = "{284, 0}";
},
{
name = top;
position = "{282, 491}";
}
);
associatedMasterId = "A285862E-BE3D-4D67-A40D-0E28E121AD88";
layerId = "ED94B97C-BE62-435C-81F1-549793FB848B";
name = "Medium {530}";
paths = (
{
closed = 1;
nodes = (
"36 92 OFFCURVE",
"137 -14 OFFCURVE",
"286 -14 CURVE SMOOTH",
"419 -14 OFFCURVE",
"477 60 OFFCURVE",
"507 120 CURVE",
"427 159 LINE",
"406 110 OFFCURVE",
"369 68 OFFCURVE",
"289 68 CURVE SMOOTH",
"200 68 OFFCURVE",
"137 127 OFFCURVE",
"132 220 CURVE",
"519 220 LINE",
"519 258 LINE SMOOTH",
"519 408 OFFCURVE",
"423 505 OFFCURVE",
"282 505 CURVE SMOOTH",
"139 505 OFFCURVE",
"36 400 OFFCURVE",
"36 247 CURVE SMOOTH"
);
},
{
closed = 1;
nodes = (
"143 372 OFFCURVE",
"199 423 OFFCURVE",
"282 423 CURVE SMOOTH",
"363 423 OFFCURVE",
"418 375 OFFCURVE",
"423 296 CURVE",
"133 296 LINE"
);
}
);
width = 551;
}
);
leftKerningGroup = o;
leftMetricsKey = o;
note = e;
rightKerningGroup = o;
rightMetricsKey = "=o-4";
unicode = 0065;
},
{
glyphname = f;
lastChange = "2019-10-15 20:34:49 +0000";
layers = (
{
layerId = "A285862E-BE3D-4D67-A40D-0E28E121AD88";
paths = (
{
closed = 1;
nodes = (
"24 440 LINE",
"190 440 LINE",
"190 0 LINE",
"240 0 LINE",
"240 440 LINE",
"408 440 LINE",
"408 484 LINE",
"240 484 LINE",
"240 626 LINE SMOOTH",
"240 646 OFFCURVE",
"250 656 OFFCURVE",
"268 656 CURVE SMOOTH",
"382 656 LINE",
"382 700 LINE",
"254 700 LINE SMOOTH",
"214 700 OFFCURVE",
"190 676 OFFCURVE",
"190 634 CURVE SMOOTH",
"190 484 LINE",
"24 484 LINE"
);
}
);
width = 440;
},
{
layerId = "5117E3E8-E17C-4812-BAF5-9E7064564A59";
paths = (
{
closed = 1;
nodes = (
"14 394 LINE",
"140 394 LINE",
"140 0 LINE",
"266 0 LINE",
"266 394 LINE",
"396 394 LINE",
"396 496 LINE",
"266 496 LINE",
"266 568 LINE SMOOTH",
"266 588 OFFCURVE",
"276 598 OFFCURVE",
"294 598 CURVE SMOOTH",
"380 598 LINE",
"380 700 LINE",
"250 700 LINE SMOOTH",
"184 700 OFFCURVE",
"140 656 OFFCURVE",
"140 588 CURVE SMOOTH",
"140 496 LINE",
"14 496 LINE"
);
}
);
width = 414;
}
);
leftKerningGroup = t;
note = f;
rightKerningGroup = f;
unicode = 0066;
},
{
glyphname = g;
lastChange = "2020-04-22 10:12:39 +0000";
layers = (
{
anchors = (
{
name = top;
position = "{312, 484}";
}
);
layerId = "A285862E-BE3D-4D67-A40D-0E28E121AD88";
paths = (
{
closed = 1;
nodes = (
"490 484 LINE",
"490 390 LINE",
"480 390 LINE",
"450 445 OFFCURVE",
"393 498 OFFCURVE",
"284 498 CURVE SMOOTH",
"151 498 OFFCURVE",
"50 399 OFFCURVE",
"50 246 CURVE SMOOTH",
"50 93 OFFCURVE",
"151 -6 OFFCURVE",
"284 -6 CURVE SMOOTH",
"393 -6 OFFCURVE",
"450 48 OFFCURVE",
"478 98 CURVE",
"488 98 LINE",
"488 0 LINE",
"538 0 LINE",
"538 484 LINE"
);
},
{
closed = 1;
nodes = (
"407 452 OFFCURVE",
"488 371 OFFCURVE",
"488 246 CURVE SMOOTH",
"488 121 OFFCURVE",
"407 40 OFFCURVE",
"293 40 CURVE SMOOTH",
"179 40 OFFCURVE",
"102 119 OFFCURVE",
"102 246 CURVE SMOOTH",
"102 373 OFFCURVE",
"179 452 OFFCURVE",
"293 452 CURVE SMOOTH"
);
},
{
closed = 1;
nodes = (
"134 -200 LINE",
"474 -200 LINE SMOOTH",
"514 -200 OFFCURVE",
"538 -176 OFFCURVE",
"538 -134 CURVE SMOOTH",
"538 0 LINE",
"488 0 LINE",
"488 -126 LINE SMOOTH",
"488 -146 OFFCURVE",
"478 -156 OFFCURVE",
"460 -156 CURVE SMOOTH",
"134 -156 LINE"
);
}
);
width = 620;
},
{
anchors = (
{
name = top;
position = "{304, 496}";
}
);
layerId = "5117E3E8-E17C-4812-BAF5-9E7064564A59";
paths = (
{
closed = 1;
nodes = (
"424 496 LINE",
"424 436 LINE",
"406 436 LINE",
"383 474 OFFCURVE",
"340 510 OFFCURVE",
"250 510 CURVE SMOOTH",
"131 510 OFFCURVE",
"26 410 OFFCURVE",
"26 256 CURVE SMOOTH",
"26 102 OFFCURVE",
"131 2 OFFCURVE",
"250 2 CURVE SMOOTH",
"341 2 OFFCURVE",
"383 39 OFFCURVE",
"404 73 CURVE",
"422 73 LINE",
"422 0 LINE",
"548 0 LINE",
"548 496 LINE"
);
},
{
closed = 1;
nodes = (
"366 402 OFFCURVE",
"424 346 OFFCURVE",
"424 256 CURVE SMOOTH",
"424 166 OFFCURVE",
"366 110 OFFCURVE",
"288 110 CURVE SMOOTH",
"210 110 OFFCURVE",
"152 166 OFFCURVE",
"152 256 CURVE SMOOTH",
"152 346 OFFCURVE",
"210 402 OFFCURVE",
"288 402 CURVE SMOOTH"
);
},
{
closed = 1;
nodes = (
"106 -200 LINE",
"438 -200 LINE SMOOTH",
"504 -200 OFFCURVE",
"548 -156 OFFCURVE",
"548 -88 CURVE SMOOTH",
"548 0 LINE",
"422 0 LINE",
"422 -66 LINE SMOOTH",
"422 -86 OFFCURVE",
"412 -96 OFFCURVE",
"394 -96 CURVE SMOOTH",
"106 -96 LINE"
);
}
);
width = 604;
}
);
leftKerningGroup = o;
leftMetricsKey = o;
note = g;
rightKerningGroup = u;
rightMetricsKey = u;
unicode = 0067;
},
{
glyphname = h;
lastChange = "2020-04-22 10:06:59 +0000";
layers = (
{
anchors = (
{
name = strokeA;
position = "{82, 484}";
}
);
layerId = "A285862E-BE3D-4D67-A40D-0E28E121AD88";
paths = (
{
closed = 1;
nodes = (
"82 0 LINE",
"132 0 LINE",
"132 242 LINE SMOOTH",
"132 380 OFFCURVE",
"211 448 OFFCURVE",
"314 448 CURVE SMOOTH",
"407 448 OFFCURVE",
"468 402 OFFCURVE",
"468 292 CURVE SMOOTH",
"468 0 LINE",
"518 0 LINE",
"518 296 LINE SMOOTH",
"518 431 OFFCURVE",
"426 494 OFFCURVE",
"324 494 CURVE SMOOTH",
"218 494 OFFCURVE",
"169 447 OFFCURVE",
"142 402 CURVE",
"132 402 LINE",
"132 700 LINE",
"82 700 LINE"
);
}
);
width = 594;
},
{
anchors = (
{
name = strokeA;
position = "{56, 496}";
}
);
layerId = "5117E3E8-E17C-4812-BAF5-9E7064564A59";
paths = (
{
closed = 1;
nodes = (
"56 0 LINE",
"182 0 LINE",
"182 256 LINE SMOOTH",
"182 348 OFFCURVE",
"227 402 OFFCURVE",
"304 402 CURVE SMOOTH",
"372 402 OFFCURVE",
"410 365 OFFCURVE",
"410 290 CURVE SMOOTH",
"410 0 LINE",
"536 0 LINE",
"536 296 LINE SMOOTH",
"536 419 OFFCURVE",
"459 504 OFFCURVE",
"343 504 CURVE SMOOTH",
"255 504 OFFCURVE",
"216 467 OFFCURVE",
"200 435 CURVE",
"182 435 LINE",
"182 700 LINE",
"56 700 LINE"
);
}
);
width = 586;
}
);
leftKerningGroup = h;
leftMetricsKey = l;
note = h;
rightKerningGroup = n;
rightMetricsKey = n;
unicode = 0068;
},
{
glyphname = idotless;
lastChange = "2018-08-19 09:57:24 +0000";
layers = (
{
anchors = (
{
name = bottom;
position = "{107, 0}";
},
{
name = top;
position = "{107, 484}";
}
);
layerId = "A285862E-BE3D-4D67-A40D-0E28E121AD88";
paths = (
{
closed = 1;
nodes = (
"82 484 LINE",
"82 0 LINE",
"132 0 LINE",
"132 484 LINE"
);
}
);
width = 214;
},
{
anchors = (
{
name = bottom;
position = "{119, 0}";
},
{
name = top;
position = "{119, 496}";
}
);
layerId = "5117E3E8-E17C-4812-BAF5-9E7064564A59";
paths = (
{
closed = 1;
nodes = (
"56 496 LINE",
"56 0 LINE",
"182 0 LINE",
"182 496 LINE"
);
}
);
width = 238;
}
);
leftKerningGroup = n;
note = dotlessi;
rightKerningGroup = u;
unicode = 0131;
},
{
glyphname = jdotless;
lastChange = "2019-01-08 22:01:46 +0000";
layers = (
{
anchors = (
{
name = top;
position = "{115, 484}";
}
);
layerId = "A285862E-BE3D-4D67-A40D-0E28E121AD88";
paths = (
{
closed = 1;
nodes = (
"90 484 LINE",
"90 -126 LINE SMOOTH",
"90 -146 OFFCURVE",
"80 -156 OFFCURVE",
"62 -156 CURVE SMOOTH",
"-40 -156 LINE",
"-40 -200 LINE",
"76 -200 LINE SMOOTH",
"116 -200 OFFCURVE",
"140 -176 OFFCURVE",
"140 -134 CURVE SMOOTH",
"140 484 LINE"
);
}
);
width = 222;
},
{
anchors = (
{
name = top;
position = "{123, 496}";
}
);
layerId = "5117E3E8-E17C-4812-BAF5-9E7064564A59";
paths = (
{
closed = 1;
nodes = (
"60 496 LINE",
"60 -68 LINE SMOOTH",
"60 -88 OFFCURVE",
"50 -98 OFFCURVE",
"32 -98 CURVE SMOOTH",
"-54 -98 LINE",
"-54 -200 LINE",
"76 -200 LINE SMOOTH",
"142 -200 OFFCURVE",
"186 -156 OFFCURVE",
"186 -88 CURVE SMOOTH",
"186 496 LINE"
);
}
);
width = 242;
}
);
leftKerningGroup = n;
note = uni0237;
rightKerningGroup = u;
rightMetricsKey = idotless;
unicode = 0237;
},
{
glyphname = k;
lastChange = "2020-04-22 10:07:19 +0000";
layers = (
{
anchors = (
{
name = bottom;
position = "{268, 0}";
}
);
layerId = "A285862E-BE3D-4D67-A40D-0E28E121AD88";
paths = (
{
closed = 1;
nodes = (
"132 0 LINE",
"132 227 LINE",
"142 227 LINE",
"412 0 LINE",
"488 0 LINE",
"184 252 LINE",
"472 484 LINE",
"395 484 LINE",
"142 277 LINE",
"132 277 LINE",
"132 700 LINE",
"82 700 LINE",
"82 0 LINE"
);
}
);
width = 500;
},
{
anchors = (
{
name = bottom;
position = "{269, 0}";
}
);
layerId = "5117E3E8-E17C-4812-BAF5-9E7064564A59";
paths = (
{
closed = 1;
nodes = (
"182 0 LINE",
"182 197 LINE",
"200 197 LINE",
"374 0 LINE",
"536 0 LINE",
"299 256 LINE",
"528 496 LINE",
"364 496 LINE",
"200 313 LINE",
"182 313 LINE",
"182 700 LINE",
"56 700 LINE",
"56 0 LINE"
);
}
);
width = 544;
}
);
leftKerningGroup = h;
leftMetricsKey = l;
note = k;
rightKerningGroup = k;
unicode = 006B;
},
{
glyphname = l;
lastChange = "2019-10-17 09:50:43 +0000";
layers = (
{
anchors = (
{
name = bottom;
position = "{107, 0}";
},
{
name = sidecaron;
position = "{132, 700}";
},
{
name = top;
position = "{107, 700}";
}
);
layerId = "A285862E-BE3D-4D67-A40D-0E28E121AD88";
paths = (
{
closed = 1;
nodes = (
"82 700 LINE",
"82 0 LINE",
"132 0 LINE",
"132 700 LINE"
);
}
);
width = 214;
},
{
anchors = (
{
name = bottom;
position = "{119, 0}";
},
{
name = sidecaron;
position = "{172, 700}";
},
{
name = top;
position = "{119, 700}";
}
);
layerId = "5117E3E8-E17C-4812-BAF5-9E7064564A59";
paths = (
{
closed = 1;
nodes = (
"56 700 LINE",
"56 0 LINE",
"182 0 LINE",
"182 700 LINE"
);
}
);
width = 238;
}
);
leftKerningGroup = l;
note = l;
rightKerningGroup = l;
unicode = 006C;
},
{
glyphname = lslash;
lastChange = "2019-10-16 18:28:47 +0000";
layers = (
{
layerId = "A285862E-BE3D-4D67-A40D-0E28E121AD88";
paths = (
{
closed = 1;
nodes = (
"136 700 LINE",
"136 0 LINE",
"186 0 LINE",
"186 700 LINE"
);
},
{
closed = 1;
nodes = (
"42 206 LINE",
"300 347 LINE",
"280 384 LINE",
"22 243 LINE"
);
}
);
width = 322;
},
{
layerId = "5117E3E8-E17C-4812-BAF5-9E7064564A59";
paths = (
{
closed = 1;
nodes = (
"139 700 LINE",
"139 0 LINE",
"265 0 LINE",
"265 700 LINE"
);
},
{
closed = 1;
nodes = (
"45 187 LINE",
"396 359 LINE",
"359 434 LINE",
"8 262 LINE"
);
}
);
width = 404;
}
);
leftKerningGroup = lslash;
note = lslash;
rightKerningGroup = lslash;
unicode = 0142;
},
{
glyphname = m;
lastChange = "2020-04-22 10:07:59 +0000";
layers = (
{
layerId = "A285862E-BE3D-4D67-A40D-0E28E121AD88";
paths = (
{
closed = 1;
nodes = (
"82 0 LINE",
"132 0 LINE",
"132 295 LINE SMOOTH",
"132 395 OFFCURVE",
"195 448 OFFCURVE",
"274 448 CURVE SMOOTH",
"354 448 OFFCURVE",
"400 399 OFFCURVE",
"400 328 CURVE SMOOTH",
"400 0 LINE",
"450 0 LINE",
"450 295 LINE SMOOTH",
"450 395 OFFCURVE",
"513 448 OFFCURVE",
"592 448 CURVE SMOOTH",
"672 448 OFFCURVE",
"718 399 OFFCURVE",
"718 328 CURVE SMOOTH",
"718 0 LINE",
"768 0 LINE",
"768 334 LINE SMOOTH",
"768 428 OFFCURVE",
"702 494 OFFCURVE",
"603 494 CURVE SMOOTH",
"526 494 OFFCURVE",
"474 460 OFFCURVE",
"445 400 CURVE",
"435 400 LINE",
"414 452 OFFCURVE",
"365 494 OFFCURVE",
"286 494 CURVE SMOOTH",
"212 494 OFFCURVE",
"166 465 OFFCURVE",
"140 419 CURVE",
"130 419 LINE",
"130 484 LINE",
"82 484 LINE"
);
}
);
width = 844;
},
{
layerId = "5117E3E8-E17C-4812-BAF5-9E7064564A59";
paths = (
{
closed = 1;
nodes = (
"56 0 LINE",
"182 0 LINE",
"182 296 LINE SMOOTH",
"182 364 OFFCURVE",
"214 402 OFFCURVE",
"272 402 CURVE SMOOTH",
"322 402 OFFCURVE",
"352 374 OFFCURVE",
"352 320 CURVE SMOOTH",
"352 0 LINE",
"478 0 LINE",
"478 296 LINE SMOOTH",
"478 364 OFFCURVE",
"510 402 OFFCURVE",
"568 402 CURVE SMOOTH",
"618 402 OFFCURVE",
"648 374 OFFCURVE",
"648 320 CURVE SMOOTH",
"648 0 LINE",
"774 0 LINE",
"774 326 LINE SMOOTH",
"774 446 OFFCURVE",
"700 504 OFFCURVE",
"608 504 CURVE SMOOTH",
"526 504 OFFCURVE",
"492 469 OFFCURVE",
"472 430 CURVE",
"454 430 LINE",
"431 474 OFFCURVE",
"391 504 OFFCURVE",
"320 504 CURVE SMOOTH",
"248 504 OFFCURVE",
"213 473 OFFCURVE",
"198 442 CURVE",
"180 442 LINE",
"180 496 LINE",
"56 496 LINE"
);
}
);
width = 824;
}
);
leftKerningGroup = n;
leftMetricsKey = idotless;
note = m;
rightKerningGroup = m;
rightMetricsKey = n;
unicode = 006D;
},
{
glyphname = n;
lastChange = "2020-04-22 10:01:07 +0000";
layers = (
{
anchors = (
{
name = bottom;
position = "{300, 0}";
},
{
name = top;
position = "{301, 484}";
}
);
layerId = "A285862E-BE3D-4D67-A40D-0E28E121AD88";
paths = (
{
closed = 1;
nodes = (
"82 0 LINE",
"132 0 LINE",
"132 242 LINE SMOOTH",
"132 380 OFFCURVE",
"211 448 OFFCURVE",
"314 448 CURVE SMOOTH",
"407 448 OFFCURVE",
"468 402 OFFCURVE",
"468 292 CURVE SMOOTH",
"468 0 LINE",
"518 0 LINE",
"518 296 LINE SMOOTH",
"518 431 OFFCURVE",
"426 494 OFFCURVE",
"324 494 CURVE SMOOTH",
"218 494 OFFCURVE",
"166 446 OFFCURVE",
"140 398 CURVE",
"130 398 LINE",
"130 484 LINE",
"82 484 LINE"
);
}
);
width = 594;
},
{
anchors = (
{
name = bottom;
position = "{296, 0}";
},
{
name = top;
position = "{289, 496}";
}
);
layerId = "5117E3E8-E17C-4812-BAF5-9E7064564A59";
paths = (
{
closed = 1;
nodes = (
"56 0 LINE",
"182 0 LINE",
"182 256 LINE SMOOTH",
"182 348 OFFCURVE",
"227 402 OFFCURVE",
"304 402 CURVE SMOOTH",
"372 402 OFFCURVE",
"410 365 OFFCURVE",
"410 290 CURVE SMOOTH",
"410 0 LINE",
"536 0 LINE",
"536 296 LINE SMOOTH",
"536 419 OFFCURVE",
"459 504 OFFCURVE",
"343 504 CURVE SMOOTH",
"254 504 OFFCURVE",
"214 465 OFFCURVE",
"198 431 CURVE",
"180 431 LINE",
"180 496 LINE",
"56 496 LINE"
);
}
);
width = 586;
}
);
leftKerningGroup = n;
leftMetricsKey = idotless;
note = n;
rightKerningGroup = n;
unicode = 006E;
},
{
glyphname = eng;
lastChange = "2020-04-22 10:06:27 +0000";
layers = (
{
layerId = "A285862E-BE3D-4D67-A40D-0E28E121AD88";
paths = (
{
closed = 1;
nodes = (
"82 0 LINE",
"132 0 LINE",
"132 242 LINE SMOOTH",
"132 380 OFFCURVE",
"211 448 OFFCURVE",
"314 448 CURVE SMOOTH",
"407 448 OFFCURVE",
"468 402 OFFCURVE",
"468 292 CURVE SMOOTH",
"468 0 LINE",
"518 0 LINE",
"518 296 LINE SMOOTH",
"518 431 OFFCURVE",
"426 494 OFFCURVE",
"324 494 CURVE SMOOTH",
"218 494 OFFCURVE",
"166 446 OFFCURVE",
"140 398 CURVE",
"130 398 LINE",
"130 484 LINE",
"82 484 LINE"
);
},
{
closed = 1;
nodes = (
"468 0 LINE",
"468 -126 LINE SMOOTH",
"468 -146 OFFCURVE",
"458 -156 OFFCURVE",
"440 -156 CURVE SMOOTH",
"338 -156 LINE",
"338 -200 LINE",
"454 -200 LINE SMOOTH",
"494 -200 OFFCURVE",
"518 -176 OFFCURVE",
"518 -134 CURVE SMOOTH",
"518 0 LINE"
);
}
);
width = 594;
},
{
layerId = "5117E3E8-E17C-4812-BAF5-9E7064564A59";
paths = (
{
closed = 1;
nodes = (
"56 0 LINE",
"182 0 LINE",
"182 256 LINE SMOOTH",
"182 348 OFFCURVE",
"227 402 OFFCURVE",
"304 402 CURVE SMOOTH",
"372 402 OFFCURVE",
"410 365 OFFCURVE",
"410 290 CURVE SMOOTH",
"410 0 LINE",
"536 0 LINE",
"536 296 LINE SMOOTH",
"536 419 OFFCURVE",
"459 504 OFFCURVE",
"343 504 CURVE SMOOTH",
"254 504 OFFCURVE",
"214 465 OFFCURVE",
"198 431 CURVE",
"180 431 LINE",
"180 496 LINE",
"56 496 LINE"
);
},
{
closed = 1;
nodes = (
"410 0 LINE",
"410 -64 LINE SMOOTH",
"410 -84 OFFCURVE",
"400 -94 OFFCURVE",
"382 -94 CURVE SMOOTH",
"296 -94 LINE",
"296 -200 LINE",
"438 -200 LINE SMOOTH",
"494 -200 OFFCURVE",
"536 -160 OFFCURVE",
"536 -104 CURVE SMOOTH",
"536 0 LINE"
);
}
);
width = 586;
}
);
leftKerningGroup = n;
leftMetricsKey = n;
note = eng;
rightKerningGroup = n;
rightMetricsKey = n;
unicode = 014B;
},
{
glyphname = o;
lastChange = "2019-10-15 21:16:46 +0000";
layers = (
{
anchors = (
{
name = top;
position = "{294, 484}";
}
);
layerId = "A285862E-BE3D-4D67-A40D-0E28E121AD88";
paths = (
{
closed = 1;
nodes = (
"50 93 OFFCURVE",
"146 -14 OFFCURVE",
"294 -14 CURVE SMOOTH",
"442 -14 OFFCURVE",
"538 93 OFFCURVE",
"538 242 CURVE SMOOTH",
"538 391 OFFCURVE",
"442 498 OFFCURVE",
"294 498 CURVE SMOOTH",
"146 498 OFFCURVE",
"50 391 OFFCURVE",
"50 242 CURVE SMOOTH"
);
},
{
closed = 1;
nodes = (
"100 361 OFFCURVE",
"175 452 OFFCURVE",
"294 452 CURVE SMOOTH",
"412 452 OFFCURVE",
"488 366 OFFCURVE",
"488 242 CURVE SMOOTH",
"488 120 OFFCURVE",
"412 32 OFFCURVE",
"294 32 CURVE SMOOTH",
"175 32 OFFCURVE",
"100 115 OFFCURVE",
"100 242 CURVE SMOOTH"
);
}
);
width = 588;
},
{
anchors = (
{
name = top;
position = "{286, 496}";
}
);
layerId = "5117E3E8-E17C-4812-BAF5-9E7064564A59";
paths = (
{
closed = 1;
nodes = (
"26 86 OFFCURVE",
"138 -14 OFFCURVE",
"286 -14 CURVE SMOOTH",
"434 -14 OFFCURVE",
"546 86 OFFCURVE",
"546 248 CURVE SMOOTH",
"546 410 OFFCURVE",
"434 510 OFFCURVE",
"286 510 CURVE SMOOTH",
"138 510 OFFCURVE",
"26 410 OFFCURVE",
"26 248 CURVE SMOOTH"
);
},
{
closed = 1;
nodes = (
"152 344 OFFCURVE",
"208 400 OFFCURVE",
"286 400 CURVE SMOOTH",
"364 400 OFFCURVE",
"420 344 OFFCURVE",
"420 248 CURVE SMOOTH",
"420 152 OFFCURVE",
"364 96 OFFCURVE",
"286 96 CURVE SMOOTH",
"208 96 OFFCURVE",
"152 152 OFFCURVE",
"152 248 CURVE SMOOTH"
);
}
);
width = 572;
}
);
leftKerningGroup = o;
note = o;
rightKerningGroup = o;
unicode = 006F;
},
{
glyphname = oe;
lastChange = "2020-04-22 10:15:14 +0000";
layers = (
{
layerId = "A285862E-BE3D-4D67-A40D-0E28E121AD88";
paths = (
{
closed = 1;
nodes = (
"50 93 OFFCURVE",
"146 -14 OFFCURVE",
"294 -14 CURVE SMOOTH",
"397 -14 OFFCURVE",
"475 38 OFFCURVE",
"509 128 CURVE",
"521 128 LINE",
"557 42 OFFCURVE",
"638 -14 OFFCURVE",
"744 -14 CURVE SMOOTH",
"872 -14 OFFCURVE",
"926 57 OFFCURVE",
"959 125 CURVE",
"911 144 LINE",
"883 81 OFFCURVE",
"836 32 OFFCURVE",
"742 32 CURVE SMOOTH",
"629 32 OFFCURVE",
"551 108 OFFCURVE",
"545 235 CURVE",
"966 235 LINE",
"966 263 LINE SMOOTH",
"966 411 OFFCURVE",
"870 498 OFFCURVE",
"737 498 CURVE SMOOTH",
"638 498 OFFCURVE",
"558 443 OFFCURVE",
"521 356 CURVE",
"509 356 LINE",
"475 446 OFFCURVE",
"397 498 OFFCURVE",
"294 498 CURVE SMOOTH",
"146 498 OFFCURVE",
"50 391 OFFCURVE",
"50 242 CURVE SMOOTH"
);
},
{
closed = 1;
nodes = (
"100 361 OFFCURVE",
"175 452 OFFCURVE",
"294 452 CURVE SMOOTH",
"412 452 OFFCURVE",
"488 366 OFFCURVE",
"488 242 CURVE SMOOTH",
"488 120 OFFCURVE",
"412 32 OFFCURVE",
"294 32 CURVE SMOOTH",
"175 32 OFFCURVE",
"100 115 OFFCURVE",
"100 242 CURVE SMOOTH"
);
},
{
closed = 1;
nodes = (
"558 385 OFFCURVE",
"633 452 OFFCURVE",
"735 452 CURVE SMOOTH",
"838 452 OFFCURVE",
"910 391 OFFCURVE",
"914 279 CURVE",
"546 279 LINE"
);
}
);
width = 1012;
},
{
layerId = "5117E3E8-E17C-4812-BAF5-9E7064564A59";
paths = (
{
closed = 1;
nodes = (
"26 92 OFFCURVE",
"140 -14 OFFCURVE",
"282 -14 CURVE SMOOTH",
"372 -14 OFFCURVE",
"439 24 OFFCURVE",
"477 84 CURVE",
"495 84 LINE",
"528 25 OFFCURVE",
"598 -14 OFFCURVE",
"687 -14 CURVE SMOOTH",
"819 -14 OFFCURVE",
"878 63 OFFCURVE",
"906 116 CURVE",
"803 170 LINE",
"786 132 OFFCURVE",
"757 94 OFFCURVE",
"687 94 CURVE SMOOTH",
"617 94 OFFCURVE",
"564 143 OFFCURVE",
"561 211 CURVE",
"922 211 LINE",
"922 254 LINE SMOOTH",
"922 406 OFFCURVE",
"827 510 OFFCURVE",
"681 510 CURVE SMOOTH",
"601 510 OFFCURVE",
"535 472 OFFCURVE",
"495 412 CURVE",
"477 412 LINE",
"439 472 OFFCURVE",
"372 510 OFFCURVE",
"282 510 CURVE SMOOTH",
"140 510 OFFCURVE",
"26 404 OFFCURVE",
"26 248 CURVE SMOOTH"
);
},
{
closed = 1;
nodes = (
"152 338 OFFCURVE",
"206 398 OFFCURVE",
"286 398 CURVE SMOOTH",
"366 398 OFFCURVE",
"420 338 OFFCURVE",
"420 248 CURVE SMOOTH",
"420 158 OFFCURVE",
"366 98 OFFCURVE",
"286 98 CURVE SMOOTH",
"206 98 OFFCURVE",
"152 158 OFFCURVE",
"152 248 CURVE SMOOTH"
);
},
{
closed = 1;
nodes = (
"570 360 OFFCURVE",
"612 402 OFFCURVE",
"680 402 CURVE SMOOTH",
"745 402 OFFCURVE",
"788 362 OFFCURVE",
"794 305 CURVE",
"562 305 LINE"
);
}
);
width = 944;
},
{
associatedMasterId = "A285862E-BE3D-4D67-A40D-0E28E121AD88";
layerId = "47D8E10F-F4CB-4DE1-BD52-540D5A768CC3";
name = "Medium {530}";
paths = (
{
closed = 1;
nodes = (
"36 92 OFFCURVE",
"143 -14 OFFCURVE",
"287 -14 CURVE SMOOTH",
"383 -14 OFFCURVE",
"455 30 OFFCURVE",
"492 105 CURVE",
"504 105 LINE",
"539 33 OFFCURVE",
"614 -14 OFFCURVE",
"711 -14 CURVE SMOOTH",
"842 -14 OFFCURVE",
"898 60 OFFCURVE",
"929 120 CURVE",
"849 159 LINE",
"827 110 OFFCURVE",
"791 68 OFFCURVE",
"710 68 CURVE SMOOTH",
"622 68 OFFCURVE",
"558 127 OFFCURVE",
"554 220 CURVE",
"941 220 LINE",
"941 258 LINE SMOOTH",
"941 408 OFFCURVE",
"845 505 OFFCURVE",
"705 505 CURVE SMOOTH",
"616 505 OFFCURVE",
"544 460 OFFCURVE",
"504 386 CURVE",
"492 386 LINE",
"455 461 OFFCURVE",
"383 505 OFFCURVE",
"287 505 CURVE SMOOTH",
"143 505 OFFCURVE",
"36 398 OFFCURVE",
"36 245 CURVE SMOOTH"
);
},
{
closed = 1;
nodes = (
"130 348 OFFCURVE",
"193 421 OFFCURVE",
"289 421 CURVE SMOOTH",
"386 421 OFFCURVE",
"449 350 OFFCURVE",
"449 245 CURVE SMOOTH",
"449 142 OFFCURVE",
"386 70 OFFCURVE",
"289 70 CURVE SMOOTH",
"193 70 OFFCURVE",
"130 140 OFFCURVE",
"130 245 CURVE SMOOTH"
);
},
{
closed = 1;
nodes = (
"565 372 OFFCURVE",
"621 423 OFFCURVE",
"703 423 CURVE SMOOTH",
"785 423 OFFCURVE",
"840 375 OFFCURVE",
"845 296 CURVE",
"555 296 LINE"
);
}
);
width = 973;
}
);
leftKerningGroup = o;
leftMetricsKey = o;
note = oe;
rightKerningGroup = o;
rightMetricsKey = e;
unicode = 0153;
},
{
glyphname = p;
lastChange = "2020-04-22 10:09:16 +0000";
layers = (
{
layerId = "A285862E-BE3D-4D67-A40D-0E28E121AD88";
paths = (
{
closed = 1;
nodes = (
"132 -200 LINE",
"132 91 LINE",
"142 91 LINE",
"170 39 OFFCURVE",
"226 -14 OFFCURVE",
"336 -14 CURVE SMOOTH",
"469 -14 OFFCURVE",
"570 87 OFFCURVE",
"570 242 CURVE SMOOTH",
"570 397 OFFCURVE",
"469 498 OFFCURVE",
"336 498 CURVE SMOOTH",
"226 498 OFFCURVE",
"170 445 OFFCURVE",
"140 390 CURVE",
"130 390 LINE",
"130 484 LINE",
"82 484 LINE",
"82 -200 LINE"
);
},
{
closed = 1;
nodes = (
"213 32 OFFCURVE",
"132 115 OFFCURVE",
"132 242 CURVE SMOOTH",
"132 369 OFFCURVE",
"213 452 OFFCURVE",
"327 452 CURVE SMOOTH",
"441 452 OFFCURVE",
"518 371 OFFCURVE",
"518 242 CURVE SMOOTH",
"518 113 OFFCURVE",
"441 32 OFFCURVE",
"327 32 CURVE SMOOTH"
);
}
);
width = 620;
},
{
layerId = "5117E3E8-E17C-4812-BAF5-9E7064564A59";
paths = (
{
closed = 1;
nodes = (
"182 -200 LINE",
"182 57 LINE",
"200 57 LINE",
"221 22 OFFCURVE",
"264 -14 OFFCURVE",
"354 -14 CURVE SMOOTH",
"472 -14 OFFCURVE",
"578 86 OFFCURVE",
"578 248 CURVE SMOOTH",
"578 410 OFFCURVE",
"472 510 OFFCURVE",
"354 510 CURVE SMOOTH",
"264 510 OFFCURVE",
"221 474 OFFCURVE",
"198 436 CURVE",
"180 436 LINE",
"180 496 LINE",
"56 496 LINE",
"56 -200 LINE"
);
},
{
closed = 1;
nodes = (
"238 94 OFFCURVE",
"180 150 OFFCURVE",
"180 248 CURVE SMOOTH",
"180 346 OFFCURVE",
"238 402 OFFCURVE",
"316 402 CURVE SMOOTH",
"394 402 OFFCURVE",
"452 346 OFFCURVE",
"452 248 CURVE SMOOTH",
"452 150 OFFCURVE",
"394 94 OFFCURVE",
"316 94 CURVE SMOOTH"
);
}
);
width = 604;
}
);
leftKerningGroup = n;
leftMetricsKey = idotless;
note = p;
rightKerningGroup = o;
rightMetricsKey = o;
unicode = 0070;
},
{
glyphname = thorn;
lastChange = "2020-04-22 10:10:00 +0000";
layers = (
{
layerId = "A285862E-BE3D-4D67-A40D-0E28E121AD88";
paths = (
{
closed = 1;
nodes = (
"132 -200 LINE",
"132 91 LINE",
"142 91 LINE",
"170 39 OFFCURVE",
"226 -14 OFFCURVE",
"336 -14 CURVE SMOOTH",
"469 -14 OFFCURVE",
"570 87 OFFCURVE",
"570 242 CURVE SMOOTH",
"570 397 OFFCURVE",
"469 498 OFFCURVE",
"336 498 CURVE SMOOTH",
"226 498 OFFCURVE",
"170 445 OFFCURVE",
"142 393 CURVE",
"132 393 LINE",
"132 700 LINE",
"82 700 LINE",
"82 -200 LINE"
);
},
{
closed = 1;
nodes = (
"213 32 OFFCURVE",
"132 115 OFFCURVE",
"132 242 CURVE SMOOTH",
"132 369 OFFCURVE",
"213 452 OFFCURVE",
"327 452 CURVE SMOOTH",
"441 452 OFFCURVE",
"518 371 OFFCURVE",
"518 242 CURVE SMOOTH",
"518 113 OFFCURVE",
"441 32 OFFCURVE",
"327 32 CURVE SMOOTH"
);
}
);
width = 620;
},
{
layerId = "5117E3E8-E17C-4812-BAF5-9E7064564A59";
paths = (
{
closed = 1;
nodes = (
"182 -204 LINE",
"182 57 LINE",
"200 57 LINE",
"221 22 OFFCURVE",
"264 -14 OFFCURVE",
"354 -14 CURVE SMOOTH",
"472 -14 OFFCURVE",
"578 86 OFFCURVE",
"578 248 CURVE SMOOTH",
"578 410 OFFCURVE",
"472 510 OFFCURVE",
"354 510 CURVE SMOOTH",
"264 510 OFFCURVE",
"221 474 OFFCURVE",
"200 439 CURVE",
"182 439 LINE",
"182 700 LINE",
"56 700 LINE",
"56 -204 LINE"
);
},
{
closed = 1;
nodes = (
"238 94 OFFCURVE",
"180 150 OFFCURVE",
"180 248 CURVE SMOOTH",
"180 346 OFFCURVE",
"238 402 OFFCURVE",
"316 402 CURVE SMOOTH",
"394 402 OFFCURVE",
"452 346 OFFCURVE",
"452 248 CURVE SMOOTH",
"452 150 OFFCURVE",
"394 94 OFFCURVE",
"316 94 CURVE SMOOTH"
);
}
);
width = 604;
}
);
leftKerningGroup = h;
leftMetricsKey = l;
note = thorn;
rightKerningGroup = o;
rightMetricsKey = o;
unicode = 00FE;
},
{
glyphname = q;
lastChange = "2020-04-22 10:09:25 +0000";
layers = (
{
layerId = "A285862E-BE3D-4D67-A40D-0E28E121AD88";
paths = (
{
closed = 1;
nodes = (
"538 484 LINE",
"490 484 LINE",
"490 390 LINE",
"480 390 LINE",
"450 445 OFFCURVE",
"394 498 OFFCURVE",
"284 498 CURVE SMOOTH",
"151 498 OFFCURVE",
"50 397 OFFCURVE",
"50 242 CURVE SMOOTH",
"50 87 OFFCURVE",
"151 -14 OFFCURVE",
"284 -14 CURVE SMOOTH",
"394 -14 OFFCURVE",
"450 39 OFFCURVE",
"478 91 CURVE",
"488 91 LINE",
"488 -200 LINE",
"538 -200 LINE"
);
},
{
closed = 1;
nodes = (
"179 32 OFFCURVE",
"102 113 OFFCURVE",
"102 242 CURVE SMOOTH",
"102 371 OFFCURVE",
"179 452 OFFCURVE",
"293 452 CURVE SMOOTH",
"407 452 OFFCURVE",
"488 369 OFFCURVE",
"488 242 CURVE SMOOTH",
"488 115 OFFCURVE",
"407 32 OFFCURVE",
"293 32 CURVE SMOOTH"
);
}
);
width = 620;
},
{
layerId = "5117E3E8-E17C-4812-BAF5-9E7064564A59";
paths = (
{
closed = 1;
nodes = (
"548 496 LINE",
"424 496 LINE",
"424 436 LINE",
"406 436 LINE",
"383 474 OFFCURVE",
"340 510 OFFCURVE",
"250 510 CURVE SMOOTH",
"132 510 OFFCURVE",
"26 410 OFFCURVE",
"26 248 CURVE SMOOTH",
"26 86 OFFCURVE",
"132 -14 OFFCURVE",
"250 -14 CURVE SMOOTH",
"340 -14 OFFCURVE",
"383 22 OFFCURVE",
"404 57 CURVE",
"422 57 LINE",
"422 -200 LINE",
"548 -200 LINE"
);
},
{
closed = 1;
nodes = (
"210 94 OFFCURVE",
"152 150 OFFCURVE",
"152 248 CURVE SMOOTH",
"152 346 OFFCURVE",
"210 402 OFFCURVE",
"288 402 CURVE SMOOTH",
"366 402 OFFCURVE",
"424 346 OFFCURVE",
"424 248 CURVE SMOOTH",
"424 150 OFFCURVE",
"366 94 OFFCURVE",
"288 94 CURVE SMOOTH"
);
}
);
width = 604;
}
);
leftKerningGroup = o;
leftMetricsKey = o;
note = q;
rightKerningGroup = u;
rightMetricsKey = idotless;
unicode = 0071;
},
{
glyphname = r;
lastChange = "2020-04-22 10:16:06 +0000";
layers = (
{
anchors = (
{
name = bottom;
position = "{106, 0}";
},
{
name = top;
position = "{201, 484}";
}
);
layerId = "A285862E-BE3D-4D67-A40D-0E28E121AD88";
paths = (
{
closed = 1;
nodes = (
"82 484 LINE",
"82 0 LINE",
"132 0 LINE",
"132 307 LINE SMOOTH",
"132 398 OFFCURVE",
"179 440 OFFCURVE",
"255 440 CURVE SMOOTH",
"330 440 LINE",
"330 486 LINE",
"262 486 LINE SMOOTH",
"195 486 OFFCURVE",
"160 467 OFFCURVE",
"140 423 CURVE",
"130 423 LINE",
"130 484 LINE"
);
}
);
width = 354;
},
{
anchors = (
{
name = bottom;
position = "{121, 0}";
},
{
name = top;
position = "{202, 496}";
}
);
layerId = "5117E3E8-E17C-4812-BAF5-9E7064564A59";
paths = (
{
closed = 1;
nodes = (
"56 496 LINE",
"56 0 LINE",
"182 0 LINE",
"182 288 LINE SMOOTH",
"182 358 OFFCURVE",
"228 392 OFFCURVE",
"292 392 CURVE SMOOTH",
"352 392 LINE",
"352 498 LINE",
"294 498 LINE SMOOTH",
"248 498 OFFCURVE",
"212 480 OFFCURVE",
"198 440 CURVE",
"180 440 LINE",
"180 496 LINE"
);
}
);
width = 360;
}
);
leftKerningGroup = n;
leftMetricsKey = idotless;
note = r;
rightKerningGroup = r;
unicode = 0072;
},
{
glyphname = s;
lastChange = "2019-10-15 21:13:20 +0000";
layers = (
{
anchors = (
{
name = bottom;
position = "{260, 0}";
},
{
name = top;
position = "{249, 484}";
}
);
layerId = "A285862E-BE3D-4D67-A40D-0E28E121AD88";
paths = (
{
closed = 1;
nodes = (
"70 283 OFFCURVE",
"136 243 OFFCURVE",
"221 231 CURVE SMOOTH",
"284 222 LINE SMOOTH",
"360 211 OFFCURVE",
"410 188 OFFCURVE",
"410 130 CURVE SMOOTH",
"410 68 OFFCURVE",
"352 30 OFFCURVE",
"268 30 CURVE SMOOTH",
"184 30 OFFCURVE",
"111 65 OFFCURVE",
"94 180 CURVE",
"44 170 LINE",
"63 40 OFFCURVE",
"152 -14 OFFCURVE",
"268 -14 CURVE SMOOTH",
"384 -14 OFFCURVE",
"460 40 OFFCURVE",
"460 130 CURVE SMOOTH",
"460 222 OFFCURVE",
"388 254 OFFCURVE",
"295 267 CURVE SMOOTH",
"232 276 LINE SMOOTH",
"170 285 OFFCURVE",
"120 309 OFFCURVE",
"120 364 CURVE SMOOTH",
"120 422 OFFCURVE",
"172 454 OFFCURVE",
"248 454 CURVE SMOOTH",
"324 454 OFFCURVE",
"381 422 OFFCURVE",
"396 340 CURVE",
"444 351 LINE",
"427 446 OFFCURVE",
"358 498 OFFCURVE",
"248 498 CURVE SMOOTH",
"138 498 OFFCURVE",
"70 446 OFFCURVE",
"70 364 CURVE SMOOTH"
);
}
);
width = 504;
},
{
anchors = (
{
name = bottom;
position = "{247, 0}";
},
{
name = top;
position = "{249, 496}";
}
);
layerId = "5117E3E8-E17C-4812-BAF5-9E7064564A59";
paths = (
{
closed = 1;
nodes = (
"48 259 OFFCURVE",
"130 223 OFFCURVE",
"234 203 CURVE SMOOTH",
"260 198 LINE SMOOTH",
"322 186 OFFCURVE",
"350 171 OFFCURVE",
"350 139 CURVE SMOOTH",
"350 107 OFFCURVE",
"322 82 OFFCURVE",
"264 82 CURVE SMOOTH",
"206 82 OFFCURVE",
"159 106 OFFCURVE",
"146 178 CURVE",
"30 148 LINE",
"47 44 OFFCURVE",
"134 -14 OFFCURVE",
"264 -14 CURVE SMOOTH",
"390 -14 OFFCURVE",
"472 45 OFFCURVE",
"472 149 CURVE SMOOTH",
"472 253 OFFCURVE",
"388 281 OFFCURVE",
"276 303 CURVE SMOOTH",
"250 308 LINE SMOOTH",
"198 318 OFFCURVE",
"170 332 OFFCURVE",
"170 365 CURVE SMOOTH",
"170 395 OFFCURVE",
"196 414 OFFCURVE",
"244 414 CURVE SMOOTH",
"292 414 OFFCURVE",
"326 394 OFFCURVE",
"338 340 CURVE",
"452 375 LINE",
"428 455 OFFCURVE",
"355 510 OFFCURVE",
"244 510 CURVE SMOOTH",
"126 510 OFFCURVE",
"48 455 OFFCURVE",
"48 357 CURVE SMOOTH"
);
}
);
width = 500;
},
{
anchors = (
{
name = bottom;
position = "{281, 0}";
},
{
name = top;
position = "{268, 484}";
}
);
associatedMasterId = "A285862E-BE3D-4D67-A40D-0E28E121AD88";
layerId = "975F05D0-480C-47FB-BB21-37C8741BEED8";
name = "1.1";
paths = (
{
closed = 1;
nodes = (
"73 274 OFFCURVE",
"147 244 OFFCURVE",
"247 229 CURVE SMOOTH",
"301 221 LINE SMOOTH",
"383 209 OFFCURVE",
"442 193 OFFCURVE",
"442 135 CURVE SMOOTH",
"442 73 OFFCURVE",
"380 32 OFFCURVE",
"284 32 CURVE SMOOTH",
"184 32 OFFCURVE",
"115 83 OFFCURVE",
"81 174 CURVE",
"35 155 LINE",
"68 71 OFFCURVE",
"147 -14 OFFCURVE",
"284 -14 CURVE SMOOTH",
"412 -14 OFFCURVE",
"492 48 OFFCURVE",
"492 136 CURVE SMOOTH",
"492 218 OFFCURVE",
"424 250 OFFCURVE",
"309 267 CURVE SMOOTH",
"255 275 LINE SMOOTH",
"182 286 OFFCURVE",
"123 302 OFFCURVE",
"123 366 CURVE SMOOTH",
"123 425 OFFCURVE",
"177 454 OFFCURVE",
"252 454 CURVE SMOOTH",
"330 454 OFFCURVE",
"402 416 OFFCURVE",
"451 339 CURVE",
"492 364 LINE",
"423 459 OFFCURVE",
"347 498 OFFCURVE",
"251 498 CURVE SMOOTH",
"152 498 OFFCURVE",
"73 449 OFFCURVE",
"73 364 CURVE SMOOTH"
);
}
);
width = 536;
},
{
anchors = (
{
name = bottom;
position = "{265, 0}";
},
{
name = top;
position = "{254, 496}";
}
);
associatedMasterId = "5117E3E8-E17C-4812-BAF5-9E7064564A59";
layerId = "39EC1C9D-2CF0-4E69-B53C-635ABF9F3430";
name = "1.1";
paths = (
{
closed = 1;
nodes = (
"40 264 OFFCURVE",
"103 219 OFFCURVE",
"242 203 CURVE SMOOTH",
"259 201 LINE SMOOTH",
"313 195 OFFCURVE",
"364 188 OFFCURVE",
"364 151 CURVE SMOOTH",
"364 112 OFFCURVE",
"317 90 OFFCURVE",
"266 90 CURVE SMOOTH",
"202 90 OFFCURVE",
"135 124 OFFCURVE",
"104 189 CURVE",
"4 126 LINE",
"50 56 OFFCURVE",
"126 -14 OFFCURVE",
"263 -14 CURVE SMOOTH",
"395 -14 OFFCURVE",
"486 57 OFFCURVE",
"486 154 CURVE SMOOTH",
"486 245 OFFCURVE",
"427 286 OFFCURVE",
"268 305 CURVE SMOOTH",
"251 307 LINE SMOOTH",
"199 313 OFFCURVE",
"162 322 OFFCURVE",
"162 358 CURVE SMOOTH",
"162 388 OFFCURVE",
"188 408 OFFCURVE",
"235 408 CURVE SMOOTH",
"301 408 OFFCURVE",
"351 368 OFFCURVE",
"389 323 CURVE",
"480 395 LINE",
"413 465 OFFCURVE",
"341 510 OFFCURVE",
"239 510 CURVE SMOOTH",
"124 510 OFFCURVE",
"40 448 OFFCURVE",
"40 356 CURVE SMOOTH"
);
}
);
width = 508;
}
);
leftKerningGroup = s;
note = s;
rightKerningGroup = s;
unicode = 0073;
},
{
glyphname = germandbls;
lastChange = "2019-10-10 15:01:46 +0000";
layers = (
{
layerId = "A285862E-BE3D-4D67-A40D-0E28E121AD88";
paths = (
{
closed = 1;
nodes = (
"126 0 LINE",
"126 452 LINE SMOOTH",
"126 609 OFFCURVE",
"229 668 OFFCURVE",
"316 668 CURVE SMOOTH",
"389 668 OFFCURVE",
"448 632 OFFCURVE",
"448 567 CURVE SMOOTH",
"448 507 OFFCURVE",
"405 474 OFFCURVE",
"355 448 CURVE SMOOTH",
"317 428 OFFCURVE",
"287 407 OFFCURVE",
"287 363 CURVE SMOOTH",
"287 330 OFFCURVE",
"309 303 OFFCURVE",
"353 282 CURVE SMOOTH",
"388 265 LINE SMOOTH",
"451 235 OFFCURVE",
"517 205 OFFCURVE",
"517 137 CURVE SMOOTH",
"517 69 OFFCURVE",
"467 32 OFFCURVE",
"384 32 CURVE SMOOTH",
"301 32 OFFCURVE",
"239 69 OFFCURVE",
"224 161 CURVE",
"175 151 LINE",
"194 43 OFFCURVE",
"275 -14 OFFCURVE",
"384 -14 CURVE SMOOTH",
"493 -14 OFFCURVE",
"567 43 OFFCURVE",
"567 137 CURVE SMOOTH",
"567 231 OFFCURVE",
"492 266 OFFCURVE",
"417 302 CURVE SMOOTH",
"371 324 LINE SMOOTH",
"349 334 OFFCURVE",
"337 348 OFFCURVE",
"337 363 CURVE SMOOTH",
"337 379 OFFCURVE",
"346 391 OFFCURVE",
"370 404 CURVE SMOOTH",
"440 441 OFFCURVE",
"498 483 OFFCURVE",
"498 567 CURVE SMOOTH",
"498 647 OFFCURVE",
"428 714 OFFCURVE",
"316 714 CURVE SMOOTH",
"175 714 OFFCURVE",
"76 614 OFFCURVE",
"76 448 CURVE SMOOTH",
"76 0 LINE"
);
}
);
width = 599;
},
{
layerId = "5117E3E8-E17C-4812-BAF5-9E7064564A59";
paths = (
{
closed = 1;
nodes = (
"176 0 LINE",
"176 434 LINE SMOOTH",
"176 564 OFFCURVE",
"249 610 OFFCURVE",
"316 610 CURVE SMOOTH",
"370 610 OFFCURVE",
"408 581 OFFCURVE",
"408 543 CURVE SMOOTH",
"408 501 OFFCURVE",
"377 473 OFFCURVE",
"345 450 CURVE SMOOTH",
"302 419 OFFCURVE",
"280 393 OFFCURVE",
"280 347 CURVE SMOOTH",
"280 303 OFFCURVE",
"306 269 OFFCURVE",
"365 248 CURVE SMOOTH",
"407 233 LINE SMOOTH",
"454 216 OFFCURVE",
"483 199 OFFCURVE",
"483 159 CURVE SMOOTH",
"483 119 OFFCURVE",
"454 88 OFFCURVE",
"406 88 CURVE SMOOTH",
"352 88 OFFCURVE",
"323 119 OFFCURVE",
"313 164 CURVE",
"199 127 LINE",
"217 60 OFFCURVE",
"280 -14 OFFCURVE",
"406 -14 CURVE SMOOTH",
"532 -14 OFFCURVE",
"607 60 OFFCURVE",
"607 158 CURVE SMOOTH",
"607 256 OFFCURVE",
"544 298 OFFCURVE",
"460 328 CURVE SMOOTH",
"435 337 LINE SMOOTH",
"417 343 OFFCURVE",
"409 350 OFFCURVE",
"409 360 CURVE SMOOTH",
"409 369 OFFCURVE",
"415 375 OFFCURVE",
"426 382 CURVE SMOOTH",
"480 417 OFFCURVE",
"532 460 OFFCURVE",
"532 547 CURVE SMOOTH",
"532 643 OFFCURVE",
"440 714 OFFCURVE",
"316 714 CURVE SMOOTH",
"159 714 OFFCURVE",
"50 610 OFFCURVE",
"50 430 CURVE SMOOTH",
"50 0 LINE"
);
}
);
width = 621;
}
);
leftMetricsKey = "=l-6";
note = germandbls;
unicode = 00DF;
},
{
glyphname = t;
lastChange = "2019-10-15 20:35:30 +0000";
layers = (
{
anchors = (
{
name = bottom;
position = "{251, 0}";
},
{
name = sidecaron;
position = "{238, 748}";
}
);
layerId = "A285862E-BE3D-4D67-A40D-0E28E121AD88";
paths = (
{
closed = 1;
nodes = (
"178 440 LINE",
"178 66 LINE SMOOTH",
"178 24 OFFCURVE",
"202 0 OFFCURVE",
"242 0 CURVE SMOOTH",
"374 0 LINE",
"374 44 LINE",
"256 44 LINE SMOOTH",
"238 44 OFFCURVE",
"228 54 OFFCURVE",
"228 74 CURVE SMOOTH",
"228 440 LINE",
"402 440 LINE",
"402 484 LINE",
"228 484 LINE",
"228 670 LINE",
"178 670 LINE",
"178 484 LINE",
"18 484 LINE",
"18 440 LINE"
);
}
);
width = 442;
},
{
anchors = (
{
name = bottom;
position = "{216, 0}";
},
{
name = sidecaron;
position = "{270, 745}";
}
);
layerId = "5117E3E8-E17C-4812-BAF5-9E7064564A59";
paths = (
{
closed = 1;
nodes = (
"134 394 LINE",
"134 112 LINE SMOOTH",
"134 44 OFFCURVE",
"178 0 OFFCURVE",
"244 0 CURVE SMOOTH",
"384 0 LINE",
"384 102 LINE",
"288 102 LINE SMOOTH",
"270 102 OFFCURVE",
"260 112 OFFCURVE",
"260 132 CURVE SMOOTH",
"260 394 LINE",
"396 394 LINE",
"396 496 LINE",
"260 496 LINE",
"260 650 LINE",
"134 650 LINE",
"134 496 LINE",
"10 496 LINE",
"10 394 LINE"
);
}
);
width = 424;
}
);
leftKerningGroup = t;
note = t;
rightKerningGroup = t;
unicode = 0074;
},
{
glyphname = tbar;
lastChange = "2019-10-16 18:39:41 +0000";
layers = (
{
layerId = "A285862E-BE3D-4D67-A40D-0E28E121AD88";
paths = (
{
closed = 1;
nodes = (
"178 440 LINE",
"178 66 LINE SMOOTH",
"178 24 OFFCURVE",
"202 0 OFFCURVE",
"242 0 CURVE SMOOTH",
"374 0 LINE",
"374 44 LINE",
"256 44 LINE SMOOTH",
"238 44 OFFCURVE",
"228 54 OFFCURVE",
"228 74 CURVE SMOOTH",
"228 440 LINE",
"402 440 LINE",
"402 484 LINE",
"228 484 LINE",
"228 670 LINE",
"178 670 LINE",
"178 484 LINE",
"18 484 LINE",
"18 440 LINE"
);
},
{
closed = 1;
nodes = (
"18 268 LINE",
"18 226 LINE",
"402 226 LINE",
"402 268 LINE"
);
}
);
width = 442;
},
{
layerId = "5117E3E8-E17C-4812-BAF5-9E7064564A59";
paths = (
{
closed = 1;
nodes = (
"134 394 LINE",
"134 112 LINE SMOOTH",
"134 44 OFFCURVE",
"178 0 OFFCURVE",
"244 0 CURVE SMOOTH",
"384 0 LINE",
"384 102 LINE",
"288 102 LINE SMOOTH",
"270 102 OFFCURVE",
"260 112 OFFCURVE",
"260 132 CURVE SMOOTH",
"260 394 LINE",
"396 394 LINE",
"396 496 LINE",
"260 496 LINE",
"260 650 LINE",
"134 650 LINE",
"134 496 LINE",
"10 496 LINE",
"10 394 LINE"
);
},
{
closed = 1;
nodes = (
"10 292 LINE",
"10 208 LINE",
"396 208 LINE",
"396 292 LINE"
);
}
);
width = 424;
}
);
leftKerningGroup = t;
leftMetricsKey = t;
note = tbar;
rightKerningGroup = t;
rightMetricsKey = t;
unicode = 0167;
},
{
glyphname = u;
lastChange = "2020-04-22 10:01:53 +0000";
layers = (
{
anchors = (
{
name = bottom;
position = "{488, 0}";
},
{
name = top;
position = "{296, 484}";
}
);
layerId = "A285862E-BE3D-4D67-A40D-0E28E121AD88";
paths = (
{
closed = 1;
nodes = (
"512 484 LINE",
"462 484 LINE",
"462 242 LINE SMOOTH",
"462 104 OFFCURVE",
"383 36 OFFCURVE",
"280 36 CURVE SMOOTH",
"187 36 OFFCURVE",
"126 82 OFFCURVE",
"126 192 CURVE SMOOTH",
"126 484 LINE",
"76 484 LINE",
"76 188 LINE SMOOTH",
"76 53 OFFCURVE",
"168 -10 OFFCURVE",
"270 -10 CURVE SMOOTH",
"376 -10 OFFCURVE",
"428 38 OFFCURVE",
"454 86 CURVE",
"464 86 LINE",
"464 0 LINE",
"512 0 LINE"
);
}
);
width = 594;
},
{
anchors = (
{
name = bottom;
position = "{468, 0}";
},
{
name = top;
position = "{290, 496}";
}
);
layerId = "5117E3E8-E17C-4812-BAF5-9E7064564A59";
paths = (
{
closed = 1;
nodes = (
"530 496 LINE",
"404 496 LINE",
"404 240 LINE SMOOTH",
"404 148 OFFCURVE",
"359 94 OFFCURVE",
"282 94 CURVE SMOOTH",
"214 94 OFFCURVE",
"176 131 OFFCURVE",
"176 206 CURVE SMOOTH",
"176 496 LINE",
"50 496 LINE",
"50 200 LINE SMOOTH",
"50 77 OFFCURVE",
"127 -8 OFFCURVE",
"243 -8 CURVE SMOOTH",
"332 -8 OFFCURVE",
"372 31 OFFCURVE",
"388 65 CURVE",
"406 65 LINE",
"406 0 LINE",
"530 0 LINE"
);
}
);
width = 586;
}
);
leftKerningGroup = u;
note = u;
rightKerningGroup = u;
rightMetricsKey = idotless;
unicode = 0075;
},
{
glyphname = v;
lastChange = "2020-04-22 10:16:28 +0000";
layers = (
{
layerId = "A285862E-BE3D-4D67-A40D-0E28E121AD88";
paths = (
{
closed = 1;
nodes = (
"223 0 LINE",
"301 0 LINE",
"490 484 LINE",
"435 484 LINE",
"267 40 LINE",
"257 40 LINE",
"89 484 LINE",
"34 484 LINE"
);
}
);
width = 524;
},
{
layerId = "5117E3E8-E17C-4812-BAF5-9E7064564A59";
paths = (
{
closed = 1;
nodes = (
"162 0 LINE",
"362 0 LINE",
"520 496 LINE",
"386 496 LINE",
"271 92 LINE",
"253 92 LINE",
"138 496 LINE",
"4 496 LINE"
);
}
);
width = 524;
}
);
leftKerningGroup = v;
note = v;
rightKerningGroup = v;
unicode = 0076;
},
{
glyphname = w;
lastChange = "2020-04-22 10:17:18 +0000";
layers = (
{
anchors = (
{
name = top;
position = "{398, 484}";
}
);
layerId = "A285862E-BE3D-4D67-A40D-0E28E121AD88";
paths = (
{
closed = 1;
nodes = (
"169 0 LINE",
"258 0 LINE",
"392 449 LINE",
"404 449 LINE",
"538 0 LINE",
"627 0 LINE",
"744 484 LINE",
"691 484 LINE",
"588 35 LINE",
"576 35 LINE",
"442 484 LINE",
"354 484 LINE",
"220 35 LINE",
"208 35 LINE",
"105 484 LINE",
"52 484 LINE"
);
}
);
width = 796;
},
{
anchors = (
{
name = top;
position = "{378, 496}";
}
);
layerId = "5117E3E8-E17C-4812-BAF5-9E7064564A59";
paths = (
{
closed = 1;
nodes = (
"94 0 LINE",
"305 0 LINE",
"369 411 LINE",
"387 411 LINE",
"451 0 LINE",
"662 0 LINE",
"732 496 LINE",
"607 496 LINE",
"563 85 LINE",
"545 85 LINE",
"481 496 LINE",
"275 496 LINE",
"211 85 LINE",
"193 85 LINE",
"149 496 LINE",
"24 496 LINE"
);
}
);
width = 756;
}
);
leftKerningGroup = w;
note = w;
rightKerningGroup = w;
unicode = 0077;
},
{
glyphname = x;
lastChange = "2020-04-22 10:25:00 +0000";
layers = (
{
layerId = "A285862E-BE3D-4D67-A40D-0E28E121AD88";
paths = (
{
closed = 1;
nodes = (
"252 247 LINE",
"46 0 LINE",
"112 0 LINE",
"284 213 LINE",
"294 213 LINE",
"466 0 LINE",
"532 0 LINE",
"326 247 LINE",
"524 484 LINE",
"459 484 LINE",
"294 281 LINE",
"284 281 LINE",
"119 484 LINE",
"54 484 LINE"
);
}
);
width = 578;
},
{
layerId = "5117E3E8-E17C-4812-BAF5-9E7064564A59";
paths = (
{
closed = 1;
nodes = (
"194 250 LINE",
"14 0 LINE",
"162 0 LINE",
"275 167 LINE",
"293 167 LINE",
"406 0 LINE",
"554 0 LINE",
"374 250 LINE",
"552 496 LINE",
"406 496 LINE",
"293 331 LINE",
"275 331 LINE",
"162 496 LINE",
"16 496 LINE"
);
}
);
width = 568;
}
);
leftKerningGroup = x;
note = x;
rightKerningGroup = x;
unicode = 0078;
},
{
glyphname = y;
lastChange = "2020-04-22 10:17:35 +0000";
layers = (
{
anchors = (
{
name = top;
position = "{294, 484}";
}
);
layerId = "A285862E-BE3D-4D67-A40D-0E28E121AD88";
paths = (
{
closed = 1;
nodes = (
"512 484 LINE",
"462 484 LINE",
"462 242 LINE SMOOTH",
"462 104 OFFCURVE",
"383 36 OFFCURVE",
"280 36 CURVE SMOOTH",
"187 36 OFFCURVE",
"126 82 OFFCURVE",
"126 192 CURVE SMOOTH",
"126 484 LINE",
"76 484 LINE",
"76 188 LINE SMOOTH",
"76 53 OFFCURVE",
"168 -10 OFFCURVE",
"270 -10 CURVE SMOOTH",
"376 -10 OFFCURVE",
"428 38 OFFCURVE",
"454 86 CURVE",
"464 86 LINE",
"464 0 LINE",
"512 0 LINE"
);
},
{
closed = 1;
nodes = (
"146 -200 LINE",
"448 -200 LINE SMOOTH",
"488 -200 OFFCURVE",
"512 -176 OFFCURVE",
"512 -134 CURVE SMOOTH",
"512 0 LINE",
"464 0 LINE",
"464 -126 LINE SMOOTH",
"464 -146 OFFCURVE",
"454 -156 OFFCURVE",
"436 -156 CURVE SMOOTH",
"146 -156 LINE"
);
}
);
width = 594;
},
{
anchors = (
{
name = top;
position = "{290, 496}";
}
);
layerId = "5117E3E8-E17C-4812-BAF5-9E7064564A59";
paths = (
{
closed = 1;
nodes = (
"530 496 LINE",
"404 496 LINE",
"404 240 LINE SMOOTH",
"404 148 OFFCURVE",
"359 94 OFFCURVE",
"282 94 CURVE SMOOTH",
"214 94 OFFCURVE",
"176 131 OFFCURVE",
"176 206 CURVE SMOOTH",
"176 496 LINE",
"50 496 LINE",
"50 200 LINE SMOOTH",
"50 77 OFFCURVE",
"127 -8 OFFCURVE",
"243 -8 CURVE SMOOTH",
"332 -8 OFFCURVE",
"372 31 OFFCURVE",
"388 65 CURVE",
"406 65 LINE",
"406 0 LINE",
"530 0 LINE"
);
},
{
closed = 1;
nodes = (
"108 -200 LINE",
"420 -200 LINE SMOOTH",
"486 -200 OFFCURVE",
"530 -156 OFFCURVE",
"530 -88 CURVE SMOOTH",
"530 0 LINE",
"406 0 LINE",
"406 -66 LINE SMOOTH",
"406 -86 OFFCURVE",
"396 -96 OFFCURVE",
"378 -96 CURVE SMOOTH",
"108 -96 LINE"
);
}
);
width = 586;
},
{
anchors = (
{
name = top;
position = "{274, 496}";
}
);
associatedMasterId = "5117E3E8-E17C-4812-BAF5-9E7064564A59";
layerId = "9D0E3B52-0C7F-449D-9D20-01CA693A13A8";
name = "Sep 28 19, 01:54";
paths = (
{
closed = 1;
nodes = (
"156 0 LINE",
"306 0 LINE",
"331 -200 LINE",
"544 496 LINE",
"408 496 LINE",
"280 40 LINE",
"268 40 LINE",
"140 496 LINE",
"4 496 LINE"
);
},
{
closed = 1;
nodes = (
"331 -200 LINE",
"544 496 LINE",
"408 496 LINE",
"280 40 LINE",
"264 0 LINE",
"195 -200 LINE"
);
}
);
width = 548;
},
{
anchors = (
{
name = top;
position = "{274, 484}";
}
);
associatedMasterId = "A285862E-BE3D-4D67-A40D-0E28E121AD88";
layerId = "B72CDA94-854A-4073-A7E2-F6A336532C55";
name = "Sep 28 19, 01:54";
paths = (
{
closed = 1;
nodes = (
"231 0 LINE",
"289 0 LINE",
"236 -200 LINE",
"514 484 LINE",
"458 484 LINE",
"279 30 LINE",
"269 30 LINE",
"90 484 LINE",
"34 484 LINE"
);
},
{
closed = 1;
nodes = (
"236 -200 LINE",
"514 484 LINE",
"458 484 LINE",
"279 30 LINE",
"268 0 LINE",
"180 -200 LINE"
);
}
);
width = 548;
}
);
leftKerningGroup = u;
leftMetricsKey = u;
note = y;
rightKerningGroup = u;
rightMetricsKey = u;
unicode = 0079;
},
{
glyphname = z;
lastChange = "2019-10-02 19:44:41 +0000";
layers = (
{
anchors = (
{
name = top;
position = "{248, 484}";
}
);
layerId = "A285862E-BE3D-4D67-A40D-0E28E121AD88";
paths = (
{
closed = 1;
nodes = (
"63 440 LINE",
"390 440 LINE",
"54 40 LINE",
"54 0 LINE",
"462 0 LINE",
"462 44 LINE",
"118 44 LINE",
"454 444 LINE",
"454 484 LINE",
"63 484 LINE"
);
}
);
width = 506;
},
{
anchors = (
{
name = top;
position = "{255, 496}";
}
);
layerId = "5117E3E8-E17C-4812-BAF5-9E7064564A59";
paths = (
{
closed = 1;
nodes = (
"52 394 LINE",
"304 394 LINE",
"42 92 LINE",
"42 0 LINE",
"472 0 LINE",
"472 102 LINE",
"202 102 LINE",
"464 404 LINE",
"464 496 LINE",
"52 496 LINE"
);
}
);
width = 508;
}
);
leftKerningGroup = z;
note = z;
rightKerningGroup = z;
unicode = 007A;
},
{
glyphname = a.ss01;
lastChange = "2020-04-22 10:18:57 +0000";
layers = (
{
anchors = (
{
name = bottom;
position = "{544, 0}";
},
{
name = top;
position = "{312, 484}";
}
);
layerId = "A285862E-BE3D-4D67-A40D-0E28E121AD88";
paths = (
{
closed = 1;
nodes = (
"538 484 LINE",
"490 484 LINE",
"490 390 LINE",
"480 390 LINE",
"450 445 OFFCURVE",
"394 498 OFFCURVE",
"284 498 CURVE SMOOTH",
"151 498 OFFCURVE",
"50 397 OFFCURVE",
"50 242 CURVE SMOOTH",
"50 87 OFFCURVE",
"151 -14 OFFCURVE",
"284 -14 CURVE SMOOTH",
"394 -14 OFFCURVE",
"450 39 OFFCURVE",
"480 94 CURVE",
"538 94 LINE"
);
},
{
closed = 1;
nodes = (
"179 32 OFFCURVE",
"102 113 OFFCURVE",
"102 242 CURVE SMOOTH",
"102 371 OFFCURVE",
"179 452 OFFCURVE",
"293 452 CURVE SMOOTH",
"407 452 OFFCURVE",
"488 369 OFFCURVE",
"488 242 CURVE SMOOTH",
"488 115 OFFCURVE",
"407 32 OFFCURVE",
"293 32 CURVE SMOOTH"
);
},
{
closed = 1;
nodes = (
"490 104 LINE",
"490 66 LINE SMOOTH",
"490 24 OFFCURVE",
"514 0 OFFCURVE",
"554 0 CURVE SMOOTH",
"614 0 LINE",
"614 42 LINE",
"566 42 LINE SMOOTH",
"548 42 OFFCURVE",
"538 52 OFFCURVE",
"538 72 CURVE SMOOTH",
"538 104 LINE"
);
}
);
width = 632;
},
{
anchors = (
{
name = bottom;
position = "{526, 0}";
},
{
name = top;
position = "{300, 496}";
}
);
layerId = "5117E3E8-E17C-4812-BAF5-9E7064564A59";
paths = (
{
closed = 1;
nodes = (
"548 496 LINE",
"424 496 LINE",
"424 436 LINE",
"406 436 LINE",
"383 474 OFFCURVE",
"340 510 OFFCURVE",
"250 510 CURVE SMOOTH",
"132 510 OFFCURVE",
"26 410 OFFCURVE",
"26 248 CURVE SMOOTH",
"26 86 OFFCURVE",
"132 -14 OFFCURVE",
"250 -14 CURVE SMOOTH",
"347 -14 OFFCURVE",
"392 27 OFFCURVE",
"415 76 CURVE",
"548 76 LINE"
);
},
{
closed = 1;
nodes = (
"210 94 OFFCURVE",
"152 150 OFFCURVE",
"152 248 CURVE SMOOTH",
"152 346 OFFCURVE",
"210 402 OFFCURVE",
"288 402 CURVE SMOOTH",
"366 402 OFFCURVE",
"424 346 OFFCURVE",
"424 248 CURVE SMOOTH",
"424 150 OFFCURVE",
"366 94 OFFCURVE",
"288 94 CURVE SMOOTH"
);
},
{
closed = 1;
nodes = (
"432 162 LINE",
"432 92 LINE SMOOTH",
"432 36 OFFCURVE",
"466 0 OFFCURVE",
"520 0 CURVE SMOOTH",
"616 0 LINE",
"616 100 LINE",
"576 100 LINE SMOOTH",
"558 100 OFFCURVE",
"548 110 OFFCURVE",
"548 130 CURVE SMOOTH",
"548 162 LINE"
);
}
);
width = 632;
}
);
leftKerningGroup = o;
leftMetricsKey = o;
note = a;
rightKerningGroup = a.ss01;
},
{
glyphname = f_f.liga;
lastChange = "2019-10-15 20:35:55 +0000";
layers = (
{
anchors = (
{
name = caret_1;
position = "{365, 0}";
}
);
layerId = "A285862E-BE3D-4D67-A40D-0E28E121AD88";
paths = (
{
closed = 1;
nodes = (
"24 440 LINE",
"190 440 LINE",
"190 0 LINE",
"240 0 LINE",
"240 440 LINE",
"408 440 LINE",
"408 484 LINE",
"240 484 LINE",
"240 626 LINE SMOOTH",
"240 646 OFFCURVE",
"250 656 OFFCURVE",
"268 656 CURVE SMOOTH",
"382 656 LINE",
"382 700 LINE",
"254 700 LINE SMOOTH",
"214 700 OFFCURVE",
"190 676 OFFCURVE",
"190 634 CURVE SMOOTH",
"190 484 LINE",
"24 484 LINE"
);
},
{
closed = 1;
nodes = (
"314 440 LINE",
"480 440 LINE",
"480 0 LINE",
"530 0 LINE",
"530 440 LINE",
"698 440 LINE",
"698 484 LINE",
"530 484 LINE",
"530 626 LINE SMOOTH",
"530 646 OFFCURVE",
"540 656 OFFCURVE",
"558 656 CURVE SMOOTH",
"672 656 LINE",
"672 700 LINE",
"544 700 LINE SMOOTH",
"504 700 OFFCURVE",
"480 676 OFFCURVE",
"480 634 CURVE SMOOTH",
"480 484 LINE",
"314 484 LINE"
);
}
);
width = 730;
},
{
anchors = (
{
name = caret_1;
position = "{359, 0}";
}
);
layerId = "5117E3E8-E17C-4812-BAF5-9E7064564A59";
paths = (
{
closed = 1;
nodes = (
"14 390 LINE",
"140 390 LINE",
"140 0 LINE",
"266 0 LINE",
"266 390 LINE",
"396 390 LINE",
"396 496 LINE",
"266 496 LINE",
"266 566 LINE SMOOTH",
"266 586 OFFCURVE",
"276 596 OFFCURVE",
"294 596 CURVE SMOOTH",
"370 596 LINE",
"370 700 LINE",
"240 700 LINE SMOOTH",
"182 700 OFFCURVE",
"140 656 OFFCURVE",
"140 598 CURVE SMOOTH",
"140 496 LINE",
"14 496 LINE"
);
},
{
closed = 1;
nodes = (
"320 390 LINE",
"446 390 LINE",
"446 0 LINE",
"572 0 LINE",
"572 390 LINE",
"702 390 LINE",
"702 496 LINE",
"572 496 LINE",
"572 566 LINE SMOOTH",
"572 586 OFFCURVE",
"582 596 OFFCURVE",
"600 596 CURVE SMOOTH",
"676 596 LINE",
"676 700 LINE",
"546 700 LINE SMOOTH",
"488 700 OFFCURVE",
"446 656 OFFCURVE",
"446 598 CURVE SMOOTH",
"446 496 LINE",
"320 496 LINE"
);
}
);
width = 720;
}
);
leftKerningGroup = t;
leftMetricsKey = f;
note = fi;
rightKerningGroup = f;
rightMetricsKey = f;
},
{
glyphname = f_f_i.liga;
lastChange = "2019-10-07 18:50:32 +0000";
layers = (
{
anchors = (
{
name = caret_1;
position = "{344, 0}";
},
{
name = caret_2;
position = "{652, 0}";
}
);
components = (
{
name = i;
transform = "{1, 0, 0, 1, 688, 0}";
}
);
layerId = "A285862E-BE3D-4D67-A40D-0E28E121AD88";
paths = (
{
closed = 1;
nodes = (
"24 440 LINE",
"190 440 LINE",
"190 0 LINE",
"240 0 LINE",
"240 440 LINE",
"408 440 LINE",
"408 484 LINE",
"240 484 LINE",
"240 626 LINE SMOOTH",
"240 646 OFFCURVE",
"250 656 OFFCURVE",
"268 656 CURVE SMOOTH",
"382 656 LINE",
"382 700 LINE",
"254 700 LINE SMOOTH",
"214 700 OFFCURVE",
"190 676 OFFCURVE",
"190 634 CURVE SMOOTH",
"190 484 LINE",
"24 484 LINE"
);
},
{
closed = 1;
nodes = (
"314 440 LINE",
"480 440 LINE",
"480 0 LINE",
"530 0 LINE",
"530 440 LINE",
"820 440 LINE",
"820 484 LINE",
"530 484 LINE",
"530 626 LINE SMOOTH",
"530 646 OFFCURVE",
"540 656 OFFCURVE",
"558 656 CURVE SMOOTH",
"666 656 LINE",
"666 700 LINE",
"544 700 LINE SMOOTH",
"504 700 OFFCURVE",
"480 676 OFFCURVE",
"480 634 CURVE SMOOTH",
"480 484 LINE",
"314 484 LINE"
);
}
);
width = 902;
},
{
anchors = (
{
name = caret_1;
position = "{358, 0}";
},
{
name = caret_2;
position = "{662, 0}";
}
);
components = (
{
name = i;
transform = "{1, 0, 0, 1, 696, 0}";
}
);
layerId = "5117E3E8-E17C-4812-BAF5-9E7064564A59";
paths = (
{
closed = 1;
nodes = (
"14 390 LINE",
"140 390 LINE",
"140 0 LINE",
"266 0 LINE",
"266 390 LINE",
"396 390 LINE",
"396 496 LINE",
"266 496 LINE",
"266 566 LINE SMOOTH",
"266 586 OFFCURVE",
"276 596 OFFCURVE",
"294 596 CURVE SMOOTH",
"370 596 LINE",
"370 700 LINE",
"240 700 LINE SMOOTH",
"182 700 OFFCURVE",
"140 656 OFFCURVE",
"140 598 CURVE SMOOTH",
"140 496 LINE",
"14 496 LINE"
);
},
{
closed = 1;
nodes = (
"320 390 LINE",
"446 390 LINE",
"446 0 LINE",
"572 0 LINE",
"572 390 LINE",
"878 390 LINE",
"878 496 LINE",
"572 496 LINE",
"572 566 LINE SMOOTH",
"572 586 OFFCURVE",
"582 596 OFFCURVE",
"600 596 CURVE SMOOTH",
"662 596 LINE",
"662 700 LINE",
"546 700 LINE SMOOTH",
"488 700 OFFCURVE",
"446 656 OFFCURVE",
"446 598 CURVE SMOOTH",
"446 496 LINE",
"320 496 LINE"
);
}
);
width = 934;
}
);
leftKerningGroup = t;
leftMetricsKey = f;
note = fi;
rightKerningGroup = i;
rightMetricsKey = i;
},
{
glyphname = f_f_j.liga;
lastChange = "2019-10-07 18:50:32 +0000";
layers = (
{
anchors = (
{
name = caret_1;
position = "{353, 0}";
},
{
name = caret_2;
position = "{668, 0}";
}
);
components = (
{
name = j;
transform = "{1, 0, 0, 1, 680, 0}";
}
);
layerId = "A285862E-BE3D-4D67-A40D-0E28E121AD88";
paths = (
{
closed = 1;
nodes = (
"24 440 LINE",
"190 440 LINE",
"190 0 LINE",
"240 0 LINE",
"240 440 LINE",
"408 440 LINE",
"408 484 LINE",
"240 484 LINE",
"240 626 LINE SMOOTH",
"240 646 OFFCURVE",
"250 656 OFFCURVE",
"268 656 CURVE SMOOTH",
"382 656 LINE",
"382 700 LINE",
"254 700 LINE SMOOTH",
"214 700 OFFCURVE",
"190 676 OFFCURVE",
"190 634 CURVE SMOOTH",
"190 484 LINE",
"24 484 LINE"
);
},
{
closed = 1;
nodes = (
"314 440 LINE",
"480 440 LINE",
"480 0 LINE",
"530 0 LINE",
"530 440 LINE",
"820 440 LINE",
"820 484 LINE",
"530 484 LINE",
"530 626 LINE SMOOTH",
"530 646 OFFCURVE",
"540 656 OFFCURVE",
"558 656 CURVE SMOOTH",
"666 656 LINE",
"666 700 LINE",
"544 700 LINE SMOOTH",
"504 700 OFFCURVE",
"480 676 OFFCURVE",
"480 634 CURVE SMOOTH",
"480 484 LINE",
"314 484 LINE"
);
}
);
width = 902;
},
{
anchors = (
{
name = caret_1;
position = "{355, 0}";
},
{
name = caret_2;
position = "{688, 0}";
}
);
components = (
{
name = j;
transform = "{1, 0, 0, 1, 692, 0}";
}
);
layerId = "5117E3E8-E17C-4812-BAF5-9E7064564A59";
paths = (
{
closed = 1;
nodes = (
"14 390 LINE",
"140 390 LINE",
"140 0 LINE",
"266 0 LINE",
"266 390 LINE",
"396 390 LINE",
"396 496 LINE",
"266 496 LINE",
"266 566 LINE SMOOTH",
"266 586 OFFCURVE",
"276 596 OFFCURVE",
"294 596 CURVE SMOOTH",
"370 596 LINE",
"370 700 LINE",
"240 700 LINE SMOOTH",
"182 700 OFFCURVE",
"140 656 OFFCURVE",
"140 598 CURVE SMOOTH",
"140 496 LINE",
"14 496 LINE"
);
},
{
closed = 1;
nodes = (
"320 390 LINE",
"446 390 LINE",
"446 0 LINE",
"572 0 LINE",
"572 390 LINE",
"878 390 LINE",
"878 496 LINE",
"572 496 LINE",
"572 566 LINE SMOOTH",
"572 586 OFFCURVE",
"582 596 OFFCURVE",
"600 596 CURVE SMOOTH",
"662 596 LINE",
"662 700 LINE",
"546 700 LINE SMOOTH",
"488 700 OFFCURVE",
"446 656 OFFCURVE",
"446 598 CURVE SMOOTH",
"446 496 LINE",
"320 496 LINE"
);
}
);
width = 934;
}
);
leftKerningGroup = t;
leftMetricsKey = f;
note = fi;
rightKerningGroup = i;
rightMetricsKey = i;
},
{
glyphname = f_i.liga;
lastChange = "2019-10-07 18:50:32 +0000";
layers = (
{
anchors = (
{
name = caret_1;
position = "{360, 0}";
}
);
components = (
{
name = i;
transform = "{1, 0, 0, 1, 398, 0}";
}
);
layerId = "A285862E-BE3D-4D67-A40D-0E28E121AD88";
paths = (
{
closed = 1;
nodes = (
"24 440 LINE",
"190 440 LINE",
"190 0 LINE",
"240 0 LINE",
"240 440 LINE",
"530 440 LINE",
"530 484 LINE",
"240 484 LINE",
"240 626 LINE SMOOTH",
"240 646 OFFCURVE",
"250 656 OFFCURVE",
"268 656 CURVE SMOOTH",
"376 656 LINE",
"376 700 LINE",
"254 700 LINE SMOOTH",
"214 700 OFFCURVE",
"190 676 OFFCURVE",
"190 634 CURVE SMOOTH",
"190 484 LINE",
"24 484 LINE"
);
}
);
width = 612;
},
{
anchors = (
{
name = caret_1;
position = "{356, 0}";
}
);
components = (
{
name = i;
transform = "{1, 0, 0, 1, 390, 0}";
}
);
layerId = "5117E3E8-E17C-4812-BAF5-9E7064564A59";
paths = (
{
closed = 1;
nodes = (
"14 390 LINE",
"140 390 LINE",
"140 0 LINE",
"266 0 LINE",
"266 390 LINE",
"572 390 LINE",
"572 496 LINE",
"266 496 LINE",
"266 566 LINE SMOOTH",
"266 586 OFFCURVE",
"276 596 OFFCURVE",
"294 596 CURVE SMOOTH",
"356 596 LINE",
"356 700 LINE",
"240 700 LINE SMOOTH",
"182 700 OFFCURVE",
"140 656 OFFCURVE",
"140 598 CURVE SMOOTH",
"140 496 LINE",
"14 496 LINE"
);
}
);
width = 628;
}
);
leftKerningGroup = t;
leftMetricsKey = f;
note = fi;
rightKerningGroup = i;
rightMetricsKey = i;
},
{
glyphname = f_j.liga;
lastChange = "2019-10-07 18:50:32 +0000";
layers = (
{
anchors = (
{
name = caret_1;
position = "{370, 0}";
}
);
components = (
{
name = j;
transform = "{1, 0, 0, 1, 390, 0}";
}
);
layerId = "A285862E-BE3D-4D67-A40D-0E28E121AD88";
paths = (
{
closed = 1;
nodes = (
"24 440 LINE",
"190 440 LINE",
"190 0 LINE",
"240 0 LINE",
"240 440 LINE",
"530 440 LINE",
"530 484 LINE",
"240 484 LINE",
"240 626 LINE SMOOTH",
"240 646 OFFCURVE",
"250 656 OFFCURVE",
"268 656 CURVE SMOOTH",
"376 656 LINE",
"376 700 LINE",
"254 700 LINE SMOOTH",
"214 700 OFFCURVE",
"190 676 OFFCURVE",
"190 634 CURVE SMOOTH",
"190 484 LINE",
"24 484 LINE"
);
}
);
width = 612;
},
{
anchors = (
{
name = caret_1;
position = "{366, 0}";
}
);
components = (
{
name = j;
transform = "{1, 0, 0, 1, 386, 0}";
}
);
layerId = "5117E3E8-E17C-4812-BAF5-9E7064564A59";
paths = (
{
closed = 1;
nodes = (
"14 390 LINE",
"140 390 LINE",
"140 0 LINE",
"266 0 LINE",
"266 390 LINE",
"572 390 LINE",
"572 496 LINE",
"266 496 LINE",
"266 566 LINE SMOOTH",
"266 586 OFFCURVE",
"276 596 OFFCURVE",
"294 596 CURVE SMOOTH",
"356 596 LINE",
"356 700 LINE",
"240 700 LINE SMOOTH",
"182 700 OFFCURVE",
"140 656 OFFCURVE",
"140 598 CURVE SMOOTH",
"140 496 LINE",
"14 496 LINE"
);
}
);
width = 628;
}
);
leftKerningGroup = t;
leftMetricsKey = f;
note = fi;
rightKerningGroup = i;
rightMetricsKey = i;
},
{
glyphname = f_l.liga;
lastChange = "2019-10-07 18:50:32 +0000";
layers = (
{
anchors = (
{
name = caret_1;
position = "{377, 0}";
},
{
name = sidecaron;
position = "{525, 700}";
}
);
layerId = "A285862E-BE3D-4D67-A40D-0E28E121AD88";
paths = (
{
closed = 1;
nodes = (
"480 0 LINE",
"530 0 LINE",
"530 700 LINE",
"480 700 LINE"
);
},
{
closed = 1;
nodes = (
"24 440 LINE",
"190 440 LINE",
"190 0 LINE",
"240 0 LINE",
"240 440 LINE",
"394 440 LINE",
"394 484 LINE",
"240 484 LINE",
"240 626 LINE SMOOTH",
"240 646 OFFCURVE",
"250 656 OFFCURVE",
"268 656 CURVE SMOOTH",
"372 656 LINE",
"372 700 LINE",
"254 700 LINE SMOOTH",
"214 700 OFFCURVE",
"190 676 OFFCURVE",
"190 634 CURVE SMOOTH",
"190 484 LINE",
"24 484 LINE"
);
}
);
width = 612;
},
{
anchors = (
{
name = caret_1;
position = "{365, 0}";
},
{
name = sidecaron;
position = "{567, 700}";
}
);
layerId = "5117E3E8-E17C-4812-BAF5-9E7064564A59";
paths = (
{
closed = 1;
nodes = (
"446 0 LINE",
"572 0 LINE",
"572 700 LINE",
"446 700 LINE"
);
},
{
closed = 1;
nodes = (
"14 388 LINE",
"140 388 LINE",
"140 0 LINE",
"266 0 LINE",
"266 388 LINE",
"382 388 LINE",
"382 496 LINE",
"266 496 LINE",
"266 562 LINE SMOOTH",
"266 582 OFFCURVE",
"276 592 OFFCURVE",
"294 592 CURVE SMOOTH",
"360 592 LINE",
"360 700 LINE",
"240 700 LINE SMOOTH",
"182 700 OFFCURVE",
"140 656 OFFCURVE",
"140 598 CURVE SMOOTH",
"140 496 LINE",
"14 496 LINE"
);
}
);
width = 628;
}
);
leftKerningGroup = t;
leftMetricsKey = f;
note = fl;
rightKerningGroup = l;
rightMetricsKey = l;
},
{
glyphname = f_lcaron.liga;
lastChange = "2019-10-07 18:50:32 +0000";
layers = (
{
anchors = (
{
name = caret_1;
position = "{362, 0}";
}
);
components = (
{
alignment = -1;
name = l;
transform = "{1, 0, 0, 1, 398, 0}";
},
{
name = sidecaron;
transform = "{1, 0, 0, 1, 469, 0}";
}
);
layerId = "A285862E-BE3D-4D67-A40D-0E28E121AD88";
paths = (
{
closed = 1;
nodes = (
"24 440 LINE",
"190 440 LINE",
"190 0 LINE",
"240 0 LINE",
"240 440 LINE",
"394 440 LINE",
"394 484 LINE",
"240 484 LINE",
"240 626 LINE SMOOTH",
"240 646 OFFCURVE",
"250 656 OFFCURVE",
"268 656 CURVE SMOOTH",
"372 656 LINE",
"372 700 LINE",
"254 700 LINE SMOOTH",
"214 700 OFFCURVE",
"190 676 OFFCURVE",
"190 634 CURVE SMOOTH",
"190 484 LINE",
"24 484 LINE"
);
}
);
width = 644;
},
{
anchors = (
{
name = caret_1;
position = "{373, 0}";
}
);
components = (
{
alignment = -1;
name = l;
transform = "{1, 0, 0, 1, 390, 0}";
},
{
name = sidecaron;
transform = "{1, 0, 0, 1, 521, 0}";
}
);
layerId = "5117E3E8-E17C-4812-BAF5-9E7064564A59";
paths = (
{
closed = 1;
nodes = (
"14 388 LINE",
"140 388 LINE",
"140 0 LINE",
"266 0 LINE",
"266 388 LINE",
"382 388 LINE",
"382 496 LINE",
"266 496 LINE",
"266 562 LINE SMOOTH",
"266 582 OFFCURVE",
"276 592 OFFCURVE",
"294 592 CURVE SMOOTH",
"360 592 LINE",
"360 700 LINE",
"240 700 LINE SMOOTH",
"182 700 OFFCURVE",
"140 656 OFFCURVE",
"140 598 CURVE SMOOTH",
"140 496 LINE",
"14 496 LINE"
);
}
);
width = 730;
}
);
leftKerningGroup = t;
leftMetricsKey = f;
note = fl;
rightKerningGroup = lcaron;
rightMetricsKey = lcaron;
},
{
glyphname = t_t.liga;
lastChange = "2019-10-07 18:50:32 +0000";
layers = (
{
anchors = (
{
name = caret_1;
position = "{435, 0}";
}
);
layerId = "A285862E-BE3D-4D67-A40D-0E28E121AD88";
paths = (
{
closed = 1;
nodes = (
"184 440 LINE",
"184 66 LINE SMOOTH",
"184 24 OFFCURVE",
"208 0 OFFCURVE",
"248 0 CURVE SMOOTH",
"376 0 LINE",
"376 44 LINE",
"262 44 LINE SMOOTH",
"244 44 OFFCURVE",
"234 54 OFFCURVE",
"234 74 CURVE SMOOTH",
"234 440 LINE",
"408 440 LINE",
"408 484 LINE",
"234 484 LINE",
"234 670 LINE",
"184 670 LINE",
"184 484 LINE",
"18 484 LINE",
"18 440 LINE"
);
},
{
closed = 1;
nodes = (
"474 440 LINE",
"474 66 LINE SMOOTH",
"474 24 OFFCURVE",
"498 0 OFFCURVE",
"538 0 CURVE SMOOTH",
"670 0 LINE",
"670 44 LINE",
"552 44 LINE SMOOTH",
"534 44 OFFCURVE",
"524 54 OFFCURVE",
"524 74 CURVE SMOOTH",
"524 440 LINE",
"698 440 LINE",
"698 484 LINE",
"524 484 LINE",
"524 670 LINE",
"474 670 LINE",
"474 484 LINE",
"308 484 LINE",
"308 440 LINE"
);
}
);
width = 738;
},
{
anchors = (
{
name = caret_1;
position = "{422, 0}";
}
);
layerId = "5117E3E8-E17C-4812-BAF5-9E7064564A59";
paths = (
{
closed = 1;
nodes = (
"134 394 LINE",
"134 112 LINE SMOOTH",
"134 44 OFFCURVE",
"178 0 OFFCURVE",
"244 0 CURVE SMOOTH",
"374 0 LINE",
"374 102 LINE",
"288 102 LINE SMOOTH",
"270 102 OFFCURVE",
"260 112 OFFCURVE",
"260 132 CURVE SMOOTH",
"260 394 LINE",
"396 394 LINE",
"396 496 LINE",
"260 496 LINE",
"260 650 LINE",
"134 650 LINE",
"134 496 LINE",
"10 496 LINE",
"10 394 LINE"
);
},
{
closed = 1;
nodes = (
"440 394 LINE",
"440 112 LINE SMOOTH",
"440 44 OFFCURVE",
"484 0 OFFCURVE",
"550 0 CURVE SMOOTH",
"690 0 LINE",
"690 102 LINE",
"594 102 LINE SMOOTH",
"576 102 OFFCURVE",
"566 112 OFFCURVE",
"566 132 CURVE SMOOTH",
"566 394 LINE",
"702 394 LINE",
"702 496 LINE",
"566 496 LINE",
"566 650 LINE",
"440 650 LINE",
"440 496 LINE",
"316 496 LINE",
"316 394 LINE"
);
}
);
width = 730;
}
);
leftMetricsKey = t;
rightMetricsKey = t;
},
{
glyphname = ordfeminine;
lastChange = "2019-12-08 14:37:41 +0000";
layers = (
{
background = {
paths = (
{
closed = 1;
nodes = (
"17 594 LINE",
"32 641 OFFCURVE",
"65 675 OFFCURVE",
"127 675 CURVE SMOOTH",
"189 675 OFFCURVE",
"225 640 OFFCURVE",
"225 588 CURVE SMOOTH",
"225 577 LINE",
"91 560 LINE SMOOTH",
"23 551 OFFCURVE",
"-33 525 OFFCURVE",
"-33 462 CURVE SMOOTH",
"-33 399 OFFCURVE",
"21 365 OFFCURVE",
"92 365 CURVE SMOOTH",
"161 365 OFFCURVE",
"200 397 OFFCURVE",
"219 427 CURVE",
"226 427 LINE",
"226 375 LINE",
"271 375 LINE",
"271 585 LINE SMOOTH",
"271 665 OFFCURVE",
"217 716 OFFCURVE",
"128 716 CURVE SMOOTH",
"40 716 OFFCURVE",
"-8 665 OFFCURVE",
"-27 609 CURVE"
);
},
{
closed = 1;
nodes = (
"13 499 OFFCURVE",
"49 517 OFFCURVE",
"96 523 CURVE SMOOTH",
"225 540 LINE",
"225 522 LINE SMOOTH",
"225 444 OFFCURVE",
"167 404 OFFCURVE",
"96 404 CURVE SMOOTH",
"46 404 OFFCURVE",
"13 426 OFFCURVE",
"13 463 CURVE SMOOTH"
);
}
);
};
layerId = "A285862E-BE3D-4D67-A40D-0E28E121AD88";
paths = (
{
closed = 1;
nodes = (
"48 374 OFFCURVE",
"109 340 OFFCURVE",
"183 340 CURVE SMOOTH",
"252 340 OFFCURVE",
"285 369 OFFCURVE",
"302 401 CURVE",
"311 401 LINE",
"311 368 OFFCURVE",
"333 350 OFFCURVE",
"368 350 CURVE SMOOTH",
"405 350 LINE",
"405 388 LINE",
"371 388 LINE SMOOTH",
"358 388 OFFCURVE",
"351 395 OFFCURVE",
"351 410 CURVE SMOOTH",
"351 571 LINE SMOOTH",
"351 651 OFFCURVE",
"298 700 OFFCURVE",
"212 700 CURVE SMOOTH",
"126 700 OFFCURVE",
"75 651 OFFCURVE",
"59 590 CURVE",
"102 580 LINE",
"115 628 OFFCURVE",
"148 660 OFFCURVE",
"212 660 CURVE SMOOTH",
"276 660 OFFCURVE",
"307 628 OFFCURVE",
"307 573 CURVE SMOOTH",
"307 549 LINE",
"180 549 LINE SMOOTH",
"108 549 OFFCURVE",
"48 518 OFFCURVE",
"48 446 CURVE SMOOTH"
);
},
{
closed = 1;
nodes = (
"92 493 OFFCURVE",
"129 511 OFFCURVE",
"181 511 CURVE SMOOTH",
"307 511 LINE",
"307 503 LINE SMOOTH",
"307 424 OFFCURVE",
"262 380 OFFCURVE",
"185 380 CURVE SMOOTH",
"130 380 OFFCURVE",
"92 403 OFFCURVE",
"92 448 CURVE SMOOTH"
);
}
);
userData = {
RMXScaler = {
adjustSpace = 10;
height = 68;
verticalShift = 375;
weight = -30;
width = 70;
};
};
width = 417;
},
{
background = {
paths = (
{
closed = 1;
nodes = (
"104 577 LINE",
"111 611 OFFCURVE",
"134 639 OFFCURVE",
"182 639 CURVE SMOOTH",
"228 639 OFFCURVE",
"247 613 OFFCURVE",
"247 584 CURVE SMOOTH",
"247 576 LINE",
"140 560 LINE SMOOTH",
"66 549 OFFCURVE",
"12 518 OFFCURVE",
"12 455 CURVE SMOOTH",
"12 391 OFFCURVE",
"66 354 OFFCURVE",
"137 354 CURVE SMOOTH",
"203 354 OFFCURVE",
"231 388 OFFCURVE",
"241 406 CURVE",
"248 406 LINE",
"248 364 LINE",
"337 364 LINE",
"337 577 LINE SMOOTH",
"337 662 OFFCURVE",
"277 712 OFFCURVE",
"186 712 CURVE SMOOTH",
"95 712 OFFCURVE",
"39 662 OFFCURVE",
"15 607 CURVE"
);
},
{
closed = 1;
nodes = (
"104 480 OFFCURVE",
"120 492 OFFCURVE",
"150 497 CURVE SMOOTH",
"247 512 LINE",
"247 505 LINE SMOOTH",
"247 459 OFFCURVE",
"213 424 OFFCURVE",
"158 424 CURVE SMOOTH",
"120 424 OFFCURVE",
"104 442 OFFCURVE",
"104 460 CURVE SMOOTH"
);
}
);
};
layerId = "5117E3E8-E17C-4812-BAF5-9E7064564A59";
paths = (
{
closed = 1;
nodes = (
"28 379 OFFCURVE",
"83 340 OFFCURVE",
"157 340 CURVE SMOOTH",
"228 340 OFFCURVE",
"252 381 OFFCURVE",
"258 401 CURVE",
"268 401 LINE",
"271 369 OFFCURVE",
"296 350 OFFCURVE",
"331 350 CURVE SMOOTH",
"395 350 LINE",
"395 422 LINE",
"364 422 LINE SMOOTH",
"352 422 OFFCURVE",
"345 429 OFFCURVE",
"345 443 CURVE SMOOTH",
"345 574 LINE SMOOTH",
"345 663 OFFCURVE",
"283 710 OFFCURVE",
"195 710 CURVE",
"107 710 OFFCURVE",
"54 663 OFFCURVE",
"37 613 CURVE",
"124 586 LINE",
"130 612 OFFCURVE",
"151 636 OFFCURVE",
"192 636 CURVE SMOOTH",
"234 636 OFFCURVE",
"251 612 OFFCURVE",
"251 578 CURVE SMOOTH",
"251 561 LINE",
"162 561 LINE SMOOTH",
"84 561 OFFCURVE",
"28 523 OFFCURVE",
"28 452 CURVE SMOOTH"
);
},
{
closed = 1;
nodes = (
"122 477 OFFCURVE",
"141 491 OFFCURVE",
"171 491 CURVE SMOOTH",
"251 491 LINE",
"251 485 LINE SMOOTH",
"251 442 OFFCURVE",
"221 414 OFFCURVE",
"175 414 CURVE SMOOTH",
"141 414 OFFCURVE",
"122 430 OFFCURVE",
"122 454 CURVE SMOOTH"
);
}
);
userData = {
RMXScaler = {
adjustSpace = 10;
height = 68;
verticalShift = 364;
weight = -190;
width = 70;
};
};
width = 401;
}
);
unicode = 00AA;
userData = {
RMXScaler = {
source = a;
};
};
},
{
glyphname = ordmasculine;
lastChange = "2019-11-07 11:15:27 +0000";
layers = (
{
layerId = "A285862E-BE3D-4D67-A40D-0E28E121AD88";
paths = (
{
closed = 1;
nodes = (
"42 413 OFFCURVE",
"108 340 OFFCURVE",
"214 340 CURVE SMOOTH",
"320 340 OFFCURVE",
"386 413 OFFCURVE",
"386 525 CURVE SMOOTH",
"386 637 OFFCURVE",
"320 710 OFFCURVE",
"214 710 CURVE SMOOTH",
"108 710 OFFCURVE",
"42 637 OFFCURVE",
"42 525 CURVE SMOOTH"
);
},
{
closed = 1;
nodes = (
"86 611 OFFCURVE",
"136 670 OFFCURVE",
"214 670 CURVE SMOOTH",
"292 670 OFFCURVE",
"342 611 OFFCURVE",
"342 525 CURVE SMOOTH",
"342 439 OFFCURVE",
"292 380 OFFCURVE",
"214 380 CURVE SMOOTH",
"136 380 OFFCURVE",
"86 439 OFFCURVE",
"86 525 CURVE SMOOTH"
);
}
);
userData = {
RMXScaler = {
adjustSpace = 10;
height = 68;
verticalShift = 370;
weight = -10;
width = 69;
};
};
width = 428;
},
{
background = {
paths = (
{
closed = 1;
nodes = (
"24 418 OFFCURVE",
"103 350 OFFCURVE",
"204 350 CURVE SMOOTH",
"306 350 OFFCURVE",
"385 418 OFFCURVE",
"385 529 CURVE SMOOTH",
"385 640 OFFCURVE",
"307 708 OFFCURVE",
"204 708 CURVE SMOOTH",
"102 708 OFFCURVE",
"24 640 OFFCURVE",
"24 529 CURVE SMOOTH"
);
},
{
closed = 1;
nodes = (
"116 592 OFFCURVE",
"153 628 OFFCURVE",
"204 628 CURVE SMOOTH",
"255 628 OFFCURVE",
"293 592 OFFCURVE",
"293 529 CURVE SMOOTH",
"293 466 OFFCURVE",
"255 431 OFFCURVE",
"204 431 CURVE SMOOTH",
"153 431 OFFCURVE",
"116 467 OFFCURVE",
"116 529 CURVE SMOOTH"
);
}
);
};
layerId = "5117E3E8-E17C-4812-BAF5-9E7064564A59";
paths = (
{
closed = 1;
nodes = (
"24 407 OFFCURVE",
"98 340 OFFCURVE",
"204 340 CURVE SMOOTH",
"310 340 OFFCURVE",
"384 407 OFFCURVE",
"384 525 CURVE SMOOTH",
"384 643 OFFCURVE",
"310 710 OFFCURVE",
"204 710 CURVE SMOOTH",
"98 710 OFFCURVE",
"24 643 OFFCURVE",
"24 525 CURVE SMOOTH"
);
},
{
closed = 1;
nodes = (
"118 597 OFFCURVE",
"154 634 OFFCURVE",
"204 634 CURVE SMOOTH",
"254 634 OFFCURVE",
"290 597 OFFCURVE",
"290 525 CURVE SMOOTH",
"290 453 OFFCURVE",
"254 416 OFFCURVE",
"204 416 CURVE SMOOTH",
"154 416 OFFCURVE",
"118 453 OFFCURVE",
"118 525 CURVE SMOOTH"
);
}
);
userData = {
RMXScaler = {
adjustSpace = 10;
height = 68;
verticalShift = 360;
weight = -190;
width = 69;
};
};
width = 408;
}
);
unicode = 00BA;
userData = {
RMXScaler = {
source = o;
};
};
},
{
glyphname = pi;
lastChange = "2017-07-18 09:12:28 +0000";
layers = (
{
layerId = "A285862E-BE3D-4D67-A40D-0E28E121AD88";
paths = (
{
closed = 1;
nodes = (
"201 452 LINE",
"421 452 LINE",
"421 68 LINE SMOOTH",
"421 29 OFFCURVE",
"448 0 OFFCURVE",
"487 0 CURVE SMOOTH",
"540 0 LINE",
"540 44 LINE",
"498 44 LINE SMOOTH",
"480 44 OFFCURVE",
"471 54 OFFCURVE",
"471 74 CURVE SMOOTH",
"471 452 LINE",
"540 452 LINE",
"540 496 LINE",
"83 496 LINE",
"83 452 LINE",
"151 452 LINE",
"151 0 LINE",
"201 0 LINE"
);
}
);
width = 620;
},
{
layerId = "5117E3E8-E17C-4812-BAF5-9E7064564A59";
paths = (
{
closed = 1;
nodes = (
"258 376 LINE",
"364 376 LINE",
"364 96 LINE SMOOTH",
"364 40 OFFCURVE",
"404 0 OFFCURVE",
"460 0 CURVE SMOOTH",
"568 0 LINE",
"568 120 LINE",
"517 120 LINE SMOOTH",
"499 120 OFFCURVE",
"490 130 OFFCURVE",
"490 150 CURVE SMOOTH",
"490 376 LINE",
"568 376 LINE",
"568 496 LINE",
"54 496 LINE",
"54 376 LINE",
"132 376 LINE",
"132 0 LINE",
"258 0 LINE"
);
}
);
width = 620;
}
);
note = pi;
unicode = 03C0;
},
{
glyphname = zero;
lastChange = "2019-12-28 00:01:12 +0000";
layers = (
{
layerId = "A285862E-BE3D-4D67-A40D-0E28E121AD88";
paths = (
{
closed = 1;
nodes = (
"60 272 LINE SMOOTH",
"60 84 OFFCURVE",
"156 -14 OFFCURVE",
"312 -14 CURVE SMOOTH",
"468 -14 OFFCURVE",
"564 84 OFFCURVE",
"564 272 CURVE SMOOTH",
"564 428 LINE SMOOTH",
"564 616 OFFCURVE",
"468 714 OFFCURVE",
"312 714 CURVE SMOOTH",
"156 714 OFFCURVE",
"60 616 OFFCURVE",
"60 428 CURVE SMOOTH"
);
},
{
closed = 1;
nodes = (
"112 578 OFFCURVE",
"180 666 OFFCURVE",
"312 666 CURVE SMOOTH",
"444 666 OFFCURVE",
"512 578 OFFCURVE",
"512 432 CURVE SMOOTH",
"512 268 LINE SMOOTH",
"512 122 OFFCURVE",
"444 34 OFFCURVE",
"312 34 CURVE SMOOTH",
"180 34 OFFCURVE",
"112 122 OFFCURVE",
"112 268 CURVE SMOOTH",
"112 432 LINE SMOOTH"
);
}
);
width = 624;
},
{
layerId = "5117E3E8-E17C-4812-BAF5-9E7064564A59";
paths = (
{
closed = 1;
nodes = (
"44 262 LINE SMOOTH",
"44 78 OFFCURVE",
"152 -14 OFFCURVE",
"318 -14 CURVE SMOOTH",
"484 -14 OFFCURVE",
"592 78 OFFCURVE",
"592 262 CURVE SMOOTH",
"592 438 LINE SMOOTH",
"592 616 OFFCURVE",
"484 714 OFFCURVE",
"318 714 CURVE SMOOTH",
"152 714 OFFCURVE",
"44 616 OFFCURVE",
"44 438 CURVE SMOOTH"
);
},
{
closed = 1;
nodes = (
"174 539 OFFCURVE",
"226 600 OFFCURVE",
"318 600 CURVE SMOOTH",
"407 600 OFFCURVE",
"462 543 OFFCURVE",
"462 444 CURVE SMOOTH",
"462 258 LINE SMOOTH",
"462 161 OFFCURVE",
"418 100 OFFCURVE",
"318 100 CURVE SMOOTH",
"221 100 OFFCURVE",
"174 157 OFFCURVE",
"174 258 CURVE SMOOTH",
"174 444 LINE SMOOTH"
);
}
);
width = 636;
}
);
leftKerningGroup = zero;
leftMetricsKey = O;
note = zero;
rightKerningGroup = zero;
rightMetricsKey = O;
unicode = 0030;
},
{
glyphname = one;
lastChange = "2020-04-22 10:40:28 +0000";
layers = (
{
layerId = "A285862E-BE3D-4D67-A40D-0E28E121AD88";
paths = (
{
closed = 1;
nodes = (
"15 404 LINE",
"76 404 LINE",
"237 670 LINE",
"249 670 LINE",
"249 0 LINE",
"301 0 LINE",
"301 700 LINE",
"197 700 LINE"
);
}
);
width = 383;
},
{
layerId = "5117E3E8-E17C-4812-BAF5-9E7064564A59";
paths = (
{
closed = 1;
nodes = (
"6 384 LINE",
"140 384 LINE",
"234 606 LINE",
"252 606 LINE",
"252 0 LINE",
"382 0 LINE",
"382 700 LINE",
"149 700 LINE"
);
}
);
width = 440;
}
);
leftKerningGroup = one;
note = one;
rightKerningGroup = one;
rightMetricsKey = I;
unicode = 0031;
},
{
glyphname = two;
lastChange = "2019-11-07 10:52:05 +0000";
layers = (
{
layerId = "A285862E-BE3D-4D67-A40D-0E28E121AD88";
paths = (
{
closed = 1;
nodes = (
"60 452 LINE",
"110 452 LINE",
"110 472 LINE SMOOTH",
"110 597 OFFCURVE",
"191 666 OFFCURVE",
"306 666 CURVE SMOOTH",
"414 666 OFFCURVE",
"494 601 OFFCURVE",
"494 495 CURVE SMOOTH",
"494 393 OFFCURVE",
"423 336 OFFCURVE",
"309 306 CURVE SMOOTH",
"290 301 LINE SMOOTH",
"146 263 OFFCURVE",
"54 219 OFFCURVE",
"54 67 CURVE SMOOTH",
"54 0 LINE",
"540 0 LINE",
"540 48 LINE",
"106 48 LINE",
"106 73 LINE SMOOTH",
"106 191 OFFCURVE",
"178 222 OFFCURVE",
"301 254 CURVE SMOOTH",
"320 259 LINE SMOOTH",
"460 296 OFFCURVE",
"546 365 OFFCURVE",
"546 495 CURVE SMOOTH",
"546 625 OFFCURVE",
"447 714 OFFCURVE",
"306 714 CURVE SMOOTH",
"166 714 OFFCURVE",
"60 625 OFFCURVE",
"60 476 CURVE SMOOTH"
);
}
);
width = 596;
},
{
layerId = "5117E3E8-E17C-4812-BAF5-9E7064564A59";
paths = (
{
closed = 1;
nodes = (
"36 448 LINE",
"166 448 LINE",
"166 480 LINE SMOOTH",
"166 562 OFFCURVE",
"223 600 OFFCURVE",
"295 600 CURVE SMOOTH",
"367 600 OFFCURVE",
"418 562 OFFCURVE",
"418 488 CURVE SMOOTH",
"418 421 OFFCURVE",
"366 377 OFFCURVE",
"271 347 CURVE SMOOTH",
"239 337 LINE SMOOTH",
"107 296 OFFCURVE",
"34 230 OFFCURVE",
"34 84 CURVE SMOOTH",
"34 0 LINE",
"542 0 LINE",
"542 114 LINE",
"165 114 LINE",
"165 118 LINE SMOOTH",
"165 169 OFFCURVE",
"189 198 OFFCURVE",
"275 225 CURVE SMOOTH",
"307 235 LINE SMOOTH",
"445 278 OFFCURVE",
"548 346 OFFCURVE",
"548 488 CURVE SMOOTH",
"548 630 OFFCURVE",
"439 714 OFFCURVE",
"295 714 CURVE SMOOTH",
"151 714 OFFCURVE",
"36 632 OFFCURVE",
"36 478 CURVE SMOOTH"
);
}
);
width = 576;
}
);
leftKerningGroup = two;
note = two;
rightKerningGroup = two;
unicode = 0032;
},
{
glyphname = three;
lastChange = "2020-04-22 10:40:42 +0000";
layers = (
{
layerId = "A285862E-BE3D-4D67-A40D-0E28E121AD88";
paths = (
{
closed = 1;
nodes = (
"62 652 LINE",
"462 652 LINE",
"207 428 LINE",
"207 374 LINE",
"293 374 LINE SMOOTH",
"394 374 OFFCURVE",
"480 320 OFFCURVE",
"480 208 CURVE SMOOTH",
"480 111 OFFCURVE",
"408 34 OFFCURVE",
"298 34 CURVE SMOOTH",
"180 34 OFFCURVE",
"100 94 OFFCURVE",
"100 224 CURVE SMOOTH",
"100 261 LINE",
"48 261 LINE",
"48 226 LINE SMOOTH",
"48 70 OFFCURVE",
"147 -14 OFFCURVE",
"298 -14 CURVE SMOOTH",
"431 -14 OFFCURVE",
"532 77 OFFCURVE",
"532 206 CURVE SMOOTH",
"532 341 OFFCURVE",
"435 422 OFFCURVE",
"304 422 CURVE SMOOTH",
"281 422 LINE",
"281 432 LINE",
"534 653 LINE",
"534 700 LINE",
"62 700 LINE"
);
}
);
width = 584;
},
{
layerId = "5117E3E8-E17C-4812-BAF5-9E7064564A59";
paths = (
{
closed = 1;
nodes = (
"40 586 LINE",
"360 586 LINE",
"168 430 LINE",
"168 320 LINE",
"308 320 LINE SMOOTH",
"375 320 OFFCURVE",
"426 286 OFFCURVE",
"426 218 CURVE SMOOTH",
"426 150 OFFCURVE",
"374 100 OFFCURVE",
"290 100 CURVE SMOOTH",
"206 100 OFFCURVE",
"152 150 OFFCURVE",
"152 228 CURVE SMOOTH",
"152 252 LINE",
"22 252 LINE",
"22 224 LINE SMOOTH",
"22 76 OFFCURVE",
"132 -14 OFFCURVE",
"290 -14 CURVE SMOOTH",
"448 -14 OFFCURVE",
"556 76 OFFCURVE",
"556 218 CURVE SMOOTH",
"556 350 OFFCURVE",
"456 412 OFFCURVE",
"362 412 CURVE SMOOTH",
"342 412 LINE",
"342 430 LINE",
"538 590 LINE",
"538 700 LINE",
"40 700 LINE"
);
}
);
width = 580;
}
);
leftKerningGroup = three;
note = three;
rightKerningGroup = three;
unicode = 0033;
},
{
glyphname = four;
lastChange = "2020-04-22 10:41:03 +0000";
layers = (
{
layerId = "A285862E-BE3D-4D67-A40D-0E28E121AD88";
paths = (
{
closed = 1;
nodes = (
"28 190 LINE",
"28 144 LINE",
"412 144 LINE",
"412 0 LINE",
"464 0 LINE",
"464 144 LINE",
"588 144 LINE",
"588 192 LINE",
"464 192 LINE",
"464 700 LINE",
"362 700 LINE"
);
},
{
closed = 1;
nodes = (
"412 670 LINE",
"412 192 LINE",
"89 192 LINE",
"402 670 LINE"
);
}
);
width = 610;
},
{
layerId = "5117E3E8-E17C-4812-BAF5-9E7064564A59";
paths = (
{
closed = 1;
nodes = (
"16 252 LINE",
"16 142 LINE",
"364 142 LINE",
"364 0 LINE",
"494 0 LINE",
"494 142 LINE",
"608 142 LINE",
"608 256 LINE",
"494 256 LINE",
"494 700 LINE",
"267 700 LINE"
);
},
{
closed = 1;
nodes = (
"364 608 LINE",
"364 256 LINE",
"149 256 LINE",
"346 608 LINE"
);
}
);
width = 620;
}
);
leftKerningGroup = four;
note = four;
rightKerningGroup = four;
unicode = 0034;
},
{
glyphname = five;
lastChange = "2020-04-22 10:41:20 +0000";
layers = (
{
layerId = "A285862E-BE3D-4D67-A40D-0E28E121AD88";
paths = (
{
closed = 1;
nodes = (
"74 330 LINE",
"156 330 LINE",
"176 369 OFFCURVE",
"214 424 OFFCURVE",
"308 424 CURVE SMOOTH",
"414 424 OFFCURVE",
"484 351 OFFCURVE",
"484 233 CURVE SMOOTH",
"484 109 OFFCURVE",
"412 34 OFFCURVE",
"294 34 CURVE SMOOTH",
"184 34 OFFCURVE",
"104 95 OFFCURVE",
"104 222 CURVE SMOOTH",
"104 246 LINE",
"52 246 LINE",
"52 218 LINE SMOOTH",
"52 79 OFFCURVE",
"149 -14 OFFCURVE",
"294 -14 CURVE SMOOTH",
"444 -14 OFFCURVE",
"536 91 OFFCURVE",
"536 233 CURVE SMOOTH",
"536 379 OFFCURVE",
"442 470 OFFCURVE",
"320 470 CURVE SMOOTH",
"208 470 OFFCURVE",
"159 415 OFFCURVE",
"138 372 CURVE",
"126 372 LINE",
"126 652 LINE",
"522 652 LINE",
"522 700 LINE",
"74 700 LINE"
);
}
);
width = 588;
},
{
layerId = "5117E3E8-E17C-4812-BAF5-9E7064564A59";
paths = (
{
closed = 1;
nodes = (
"52 308 LINE",
"207 308 LINE",
"222 332 OFFCURVE",
"248 360 OFFCURVE",
"306 360 CURVE SMOOTH",
"376 360 OFFCURVE",
"426 311 OFFCURVE",
"426 233 CURVE SMOOTH",
"426 153 OFFCURVE",
"376 100 OFFCURVE",
"294 100 CURVE SMOOTH",
"210 100 OFFCURVE",
"160 153 OFFCURVE",
"160 223 CURVE SMOOTH",
"160 238 LINE",
"28 238 LINE",
"28 226 LINE SMOOTH",
"28 85 OFFCURVE",
"132 -14 OFFCURVE",
"296 -14 CURVE SMOOTH",
"460 -14 OFFCURVE",
"558 85 OFFCURVE",
"558 237 CURVE SMOOTH",
"558 385 OFFCURVE",
"454 462 OFFCURVE",
"333 462 CURVE SMOOTH",
"262 462 OFFCURVE",
"218 434 OFFCURVE",
"198 411 CURVE",
"180 411 LINE",
"180 584 LINE",
"530 584 LINE",
"530 700 LINE",
"52 700 LINE"
);
}
);
width = 582;
}
);
leftKerningGroup = five;
note = five;
rightKerningGroup = five;
unicode = 0035;
},
{
glyphname = six;
lastChange = "2020-04-22 10:41:45 +0000";
layers = (
{
layerId = "A285862E-BE3D-4D67-A40D-0E28E121AD88";
paths = (
{
closed = 1;
nodes = (
"544 369 OFFCURVE",
"442 460 OFFCURVE",
"314 460 CURVE SMOOTH",
"208 460 OFFCURVE",
"149 411 OFFCURVE",
"124 365 CURVE",
"112 365 LINE",
"112 477 LINE SMOOTH",
"112 595 OFFCURVE",
"182 666 OFFCURVE",
"304 666 CURVE SMOOTH",
"422 666 OFFCURVE",
"486 601 OFFCURVE",
"486 500 CURVE",
"538 500 LINE",
"538 618 OFFCURVE",
"458 714 OFFCURVE",
"304 714 CURVE SMOOTH",
"148 714 OFFCURVE",
"60 618 OFFCURVE",
"60 470 CURVE SMOOTH",
"60 222 LINE SMOOTH",
"60 72 OFFCURVE",
"166 -14 OFFCURVE",
"302 -14 CURVE SMOOTH",
"438 -14 OFFCURVE",
"544 75 OFFCURVE",
"544 222 CURVE SMOOTH"
);
},
{
closed = 1;
nodes = (
"414 414 OFFCURVE",
"492 338 OFFCURVE",
"492 222 CURVE SMOOTH",
"492 106 OFFCURVE",
"414 34 OFFCURVE",
"302 34 CURVE SMOOTH",
"190 34 OFFCURVE",
"112 106 OFFCURVE",
"112 222 CURVE SMOOTH",
"112 338 OFFCURVE",
"190 414 OFFCURVE",
"302 414 CURVE SMOOTH"
);
}
);
width = 602;
},
{
layerId = "5117E3E8-E17C-4812-BAF5-9E7064564A59";
paths = (
{
closed = 1;
nodes = (
"572 367 OFFCURVE",
"466 452 OFFCURVE",
"344 452 CURVE SMOOTH",
"256 452 OFFCURVE",
"215 423 OFFCURVE",
"192 396 CURVE",
"174 396 LINE",
"174 468 LINE SMOOTH",
"174 550 OFFCURVE",
"224 600 OFFCURVE",
"312 600 CURVE SMOOTH",
"400 600 OFFCURVE",
"436 550 OFFCURVE",
"436 492 CURVE",
"568 492 LINE",
"568 630 OFFCURVE",
"468 714 OFFCURVE",
"312 714 CURVE SMOOTH",
"156 714 OFFCURVE",
"44 630 OFFCURVE",
"44 460 CURVE SMOOTH",
"44 221 LINE SMOOTH",
"44 83 OFFCURVE",
"146 -14 OFFCURVE",
"306 -14 CURVE SMOOTH",
"466 -14 OFFCURVE",
"572 83 OFFCURVE",
"572 225 CURVE SMOOTH"
);
},
{
closed = 1;
nodes = (
"388 350 OFFCURVE",
"442 301 OFFCURVE",
"442 225 CURVE SMOOTH",
"442 149 OFFCURVE",
"388 100 OFFCURVE",
"308 100 CURVE SMOOTH",
"228 100 OFFCURVE",
"174 149 OFFCURVE",
"174 225 CURVE SMOOTH",
"174 301 OFFCURVE",
"228 350 OFFCURVE",
"308 350 CURVE SMOOTH"
);
}
);
width = 598;
}
);
leftKerningGroup = six;
leftMetricsKey = O;
note = six;
rightKerningGroup = six;
unicode = 0036;
},
{
glyphname = seven;
lastChange = "2019-11-07 10:52:05 +0000";
layers = (
{
layerId = "A285862E-BE3D-4D67-A40D-0E28E121AD88";
paths = (
{
closed = 1;
nodes = (
"28 652 LINE",
"480 652 LINE",
"164 0 LINE",
"222 0 LINE",
"538 656 LINE",
"538 700 LINE",
"28 700 LINE"
);
}
);
width = 564;
},
{
layerId = "5117E3E8-E17C-4812-BAF5-9E7064564A59";
paths = (
{
closed = 1;
nodes = (
"20 584 LINE",
"399 584 LINE",
"124 0 LINE",
"267 0 LINE",
"540 588 LINE",
"540 700 LINE",
"20 700 LINE"
);
}
);
width = 558;
}
);
leftKerningGroup = seven;
note = seven;
rightKerningGroup = seven;
unicode = 0037;
},
{
glyphname = eight;
lastChange = "2020-04-22 10:42:51 +0000";
layers = (
{
layerId = "A285862E-BE3D-4D67-A40D-0E28E121AD88";
paths = (
{
closed = 1;
nodes = (
"62 432 OFFCURVE",
"138 385 OFFCURVE",
"192 369 CURVE",
"192 357 LINE",
"138 349 OFFCURVE",
"48 298 OFFCURVE",
"48 184 CURVE SMOOTH",
"48 66 OFFCURVE",
"150 -14 OFFCURVE",
"302 -14 CURVE SMOOTH",
"454 -14 OFFCURVE",
"556 66 OFFCURVE",
"556 184 CURVE SMOOTH",
"556 298 OFFCURVE",
"466 349 OFFCURVE",
"412 357 CURVE",
"412 369 LINE",
"466 385 OFFCURVE",
"542 432 OFFCURVE",
"542 528 CURVE SMOOTH",
"542 636 OFFCURVE",
"450 714 OFFCURVE",
"302 714 CURVE SMOOTH",
"154 714 OFFCURVE",
"62 636 OFFCURVE",
"62 528 CURVE SMOOTH"
);
},
{
closed = 1;
nodes = (
"100 288 OFFCURVE",
"186 338 OFFCURVE",
"302 338 CURVE SMOOTH",
"418 338 OFFCURVE",
"504 288 OFFCURVE",
"504 186 CURVE SMOOTH",
"504 84 OFFCURVE",
"418 34 OFFCURVE",
"302 34 CURVE SMOOTH",
"186 34 OFFCURVE",
"100 84 OFFCURVE",
"100 186 CURVE SMOOTH"
);
},
{
closed = 1;
nodes = (
"114 616 OFFCURVE",
"196 666 OFFCURVE",
"302 666 CURVE SMOOTH",
"408 666 OFFCURVE",
"490 616 OFFCURVE",
"490 526 CURVE SMOOTH",
"490 436 OFFCURVE",
"408 386 OFFCURVE",
"302 386 CURVE SMOOTH",
"196 386 OFFCURVE",
"114 436 OFFCURVE",
"114 526 CURVE SMOOTH"
);
}
);
width = 604;
},
{
layerId = "5117E3E8-E17C-4812-BAF5-9E7064564A59";
paths = (
{
closed = 1;
nodes = (
"38 434 OFFCURVE",
"92 387 OFFCURVE",
"142 371 CURVE",
"142 353 LINE",
"92 339 OFFCURVE",
"28 292 OFFCURVE",
"28 193 CURVE SMOOTH",
"28 65 OFFCURVE",
"138 -14 OFFCURVE",
"296 -14 CURVE SMOOTH",
"454 -14 OFFCURVE",
"564 65 OFFCURVE",
"564 193 CURVE SMOOTH",
"564 292 OFFCURVE",
"500 339 OFFCURVE",
"450 353 CURVE",
"450 371 LINE",
"500 387 OFFCURVE",
"554 434 OFFCURVE",
"554 523 CURVE SMOOTH",
"554 635 OFFCURVE",
"452 714 OFFCURVE",
"296 714 CURVE SMOOTH",
"140 714 OFFCURVE",
"38 635 OFFCURVE",
"38 523 CURVE SMOOTH"
);
},
{
closed = 1;
nodes = (
"158 262 OFFCURVE",
"208 300 OFFCURVE",
"296 300 CURVE SMOOTH",
"384 300 OFFCURVE",
"434 262 OFFCURVE",
"434 202 CURVE SMOOTH",
"434 142 OFFCURVE",
"384 104 OFFCURVE",
"296 104 CURVE SMOOTH",
"208 104 OFFCURVE",
"158 142 OFFCURVE",
"158 202 CURVE SMOOTH"
);
},
{
closed = 1;
nodes = (
"168 565 OFFCURVE",
"217 596 OFFCURVE",
"296 596 CURVE SMOOTH",
"375 596 OFFCURVE",
"424 565 OFFCURVE",
"424 507 CURVE SMOOTH",
"424 449 OFFCURVE",
"375 418 OFFCURVE",
"296 418 CURVE SMOOTH",
"217 418 OFFCURVE",
"168 449 OFFCURVE",
"168 507 CURVE SMOOTH"
);
}
);
width = 592;
}
);
leftKerningGroup = eight;
note = eight;
rightKerningGroup = eight;
unicode = 0038;
},
{
glyphname = nine;
lastChange = "2020-04-22 10:41:53 +0000";
layers = (
{
layerId = "A285862E-BE3D-4D67-A40D-0E28E121AD88";
paths = (
{
closed = 1;
nodes = (
"58 331 OFFCURVE",
"160 240 OFFCURVE",
"288 240 CURVE SMOOTH",
"394 240 OFFCURVE",
"453 289 OFFCURVE",
"478 335 CURVE",
"490 335 LINE",
"490 223 LINE SMOOTH",
"490 105 OFFCURVE",
"420 34 OFFCURVE",
"298 34 CURVE SMOOTH",
"180 34 OFFCURVE",
"116 99 OFFCURVE",
"116 200 CURVE",
"64 200 LINE",
"64 82 OFFCURVE",
"144 -14 OFFCURVE",
"298 -14 CURVE SMOOTH",
"454 -14 OFFCURVE",
"542 82 OFFCURVE",
"542 230 CURVE SMOOTH",
"542 478 LINE SMOOTH",
"542 628 OFFCURVE",
"436 714 OFFCURVE",
"300 714 CURVE SMOOTH",
"164 714 OFFCURVE",
"58 625 OFFCURVE",
"58 478 CURVE SMOOTH"
);
},
{
closed = 1;
nodes = (
"188 286 OFFCURVE",
"110 362 OFFCURVE",
"110 478 CURVE SMOOTH",
"110 594 OFFCURVE",
"188 666 OFFCURVE",
"300 666 CURVE SMOOTH",
"412 666 OFFCURVE",
"490 594 OFFCURVE",
"490 478 CURVE SMOOTH",
"490 362 OFFCURVE",
"412 286 OFFCURVE",
"300 286 CURVE SMOOTH"
);
}
);
width = 602;
},
{
layerId = "5117E3E8-E17C-4812-BAF5-9E7064564A59";
paths = (
{
closed = 1;
nodes = (
"26 333 OFFCURVE",
"132 248 OFFCURVE",
"254 248 CURVE SMOOTH",
"342 248 OFFCURVE",
"383 277 OFFCURVE",
"406 304 CURVE",
"424 304 LINE",
"424 232 LINE SMOOTH",
"424 150 OFFCURVE",
"374 100 OFFCURVE",
"286 100 CURVE SMOOTH",
"198 100 OFFCURVE",
"162 150 OFFCURVE",
"162 208 CURVE",
"30 208 LINE",
"30 70 OFFCURVE",
"130 -14 OFFCURVE",
"286 -14 CURVE SMOOTH",
"442 -14 OFFCURVE",
"554 70 OFFCURVE",
"554 240 CURVE SMOOTH",
"554 479 LINE SMOOTH",
"554 617 OFFCURVE",
"452 714 OFFCURVE",
"292 714 CURVE SMOOTH",
"132 714 OFFCURVE",
"26 617 OFFCURVE",
"26 475 CURVE SMOOTH"
);
},
{
closed = 1;
nodes = (
"210 350 OFFCURVE",
"156 399 OFFCURVE",
"156 475 CURVE SMOOTH",
"156 551 OFFCURVE",
"210 600 OFFCURVE",
"290 600 CURVE SMOOTH",
"370 600 OFFCURVE",
"424 551 OFFCURVE",
"424 475 CURVE SMOOTH",
"424 399 OFFCURVE",
"370 350 OFFCURVE",
"290 350 CURVE SMOOTH"
);
}
);
width = 598;
}
);
leftKerningGroup = nine;
note = nine;
rightKerningGroup = nine;
rightMetricsKey = O;
unicode = 0039;
},
{
glyphname = zero.zero;
lastChange = "2019-12-28 00:01:12 +0000";
layers = (
{
layerId = "A285862E-BE3D-4D67-A40D-0E28E121AD88";
paths = (
{
closed = 1;
nodes = (
"94 224 LINE",
"116 186 LINE",
"530 476 LINE",
"508 514 LINE"
);
},
{
closed = 1;
nodes = (
"60 272 LINE SMOOTH",
"60 84 OFFCURVE",
"156 -14 OFFCURVE",
"312 -14 CURVE SMOOTH",
"468 -14 OFFCURVE",
"564 84 OFFCURVE",
"564 272 CURVE SMOOTH",
"564 428 LINE SMOOTH",
"564 616 OFFCURVE",
"468 714 OFFCURVE",
"312 714 CURVE SMOOTH",
"156 714 OFFCURVE",
"60 616 OFFCURVE",
"60 428 CURVE SMOOTH"
);
},
{
closed = 1;
nodes = (
"112 578 OFFCURVE",
"182 666 OFFCURVE",
"312 666 CURVE SMOOTH",
"442 666 OFFCURVE",
"512 578 OFFCURVE",
"512 432 CURVE SMOOTH",
"512 268 LINE SMOOTH",
"512 122 OFFCURVE",
"442 34 OFFCURVE",
"312 34 CURVE SMOOTH",
"182 34 OFFCURVE",
"112 122 OFFCURVE",
"112 268 CURVE SMOOTH",
"112 432 LINE SMOOTH"
);
}
);
width = 624;
},
{
layerId = "5117E3E8-E17C-4812-BAF5-9E7064564A59";
paths = (
{
closed = 1;
nodes = (
"119 253 LINE",
"165 187 LINE",
"517 447 LINE",
"471 513 LINE"
);
},
{
closed = 1;
nodes = (
"44 262 LINE SMOOTH",
"44 78 OFFCURVE",
"152 -14 OFFCURVE",
"318 -14 CURVE SMOOTH",
"484 -14 OFFCURVE",
"592 78 OFFCURVE",
"592 262 CURVE SMOOTH",
"592 438 LINE SMOOTH",
"592 616 OFFCURVE",
"484 714 OFFCURVE",
"318 714 CURVE SMOOTH",
"152 714 OFFCURVE",
"44 616 OFFCURVE",
"44 438 CURVE SMOOTH"
);
},
{
closed = 1;
nodes = (
"174 539 OFFCURVE",
"226 600 OFFCURVE",
"318 600 CURVE SMOOTH",
"407 600 OFFCURVE",
"462 543 OFFCURVE",
"462 444 CURVE SMOOTH",
"462 258 LINE SMOOTH",
"462 161 OFFCURVE",
"418 100 OFFCURVE",
"318 100 CURVE SMOOTH",
"221 100 OFFCURVE",
"174 157 OFFCURVE",
"174 258 CURVE SMOOTH",
"174 444 LINE SMOOTH"
);
}
);
width = 636;
}
);
leftKerningGroup = zero;
leftMetricsKey = O;
note = zero;
rightKerningGroup = zero;
rightMetricsKey = O;
},
{
glyphname = zero.osf;
lastChange = "2019-11-07 10:52:05 +0000";
layers = (
{
layerId = "A285862E-BE3D-4D67-A40D-0E28E121AD88";
paths = (
{
closed = 1;
nodes = (
"50 93 OFFCURVE",
"150 -14 OFFCURVE",
"302 -14 CURVE SMOOTH",
"454 -14 OFFCURVE",
"554 93 OFFCURVE",
"554 242 CURVE SMOOTH",
"554 391 OFFCURVE",
"454 498 OFFCURVE",
"302 498 CURVE SMOOTH",
"150 498 OFFCURVE",
"50 391 OFFCURVE",
"50 242 CURVE SMOOTH"
);
},
{
closed = 1;
nodes = (
"100 362 OFFCURVE",
"180 452 OFFCURVE",
"302 452 CURVE SMOOTH",
"423 452 OFFCURVE",
"504 367 OFFCURVE",
"504 242 CURVE SMOOTH",
"504 119 OFFCURVE",
"423 32 OFFCURVE",
"302 32 CURVE SMOOTH",
"180 32 OFFCURVE",
"100 114 OFFCURVE",
"100 242 CURVE SMOOTH"
);
}
);
width = 604;
},
{
layerId = "5117E3E8-E17C-4812-BAF5-9E7064564A59";
paths = (
{
closed = 1;
nodes = (
"26 90 OFFCURVE",
"138 -14 OFFCURVE",
"292 -14 CURVE SMOOTH",
"446 -14 OFFCURVE",
"558 90 OFFCURVE",
"558 248 CURVE SMOOTH",
"558 406 OFFCURVE",
"446 510 OFFCURVE",
"292 510 CURVE SMOOTH",
"138 510 OFFCURVE",
"26 406 OFFCURVE",
"26 248 CURVE SMOOTH"
);
},
{
closed = 1;
nodes = (
"152 334 OFFCURVE",
"208 400 OFFCURVE",
"292 400 CURVE SMOOTH",
"376 400 OFFCURVE",
"432 334 OFFCURVE",
"432 248 CURVE SMOOTH",
"432 162 OFFCURVE",
"376 96 OFFCURVE",
"292 96 CURVE SMOOTH",
"208 96 OFFCURVE",
"152 162 OFFCURVE",
"152 248 CURVE SMOOTH"
);
}
);
width = 584;
}
);
leftKerningGroup = zero.osf;
leftMetricsKey = o;
note = zero.tosn;
rightKerningGroup = zero.osf;
rightMetricsKey = o;
},
{
glyphname = one.osf;
lastChange = "2020-04-22 10:43:33 +0000";
layers = (
{
layerId = "A285862E-BE3D-4D67-A40D-0E28E121AD88";
paths = (
{
closed = 1;
nodes = (
"20 272 LINE",
"81 272 LINE",
"201 444 LINE",
"211 444 LINE",
"211 0 LINE",
"261 0 LINE",
"261 484 LINE",
"170 484 LINE"
);
}
);
width = 343;
},
{
layerId = "5117E3E8-E17C-4812-BAF5-9E7064564A59";
paths = (
{
closed = 1;
nodes = (
"12 274 LINE",
"140 274 LINE",
"191 406 LINE",
"209 406 LINE",
"209 0 LINE",
"335 0 LINE",
"335 496 LINE",
"108 496 LINE"
);
}
);
width = 391;
}
);
leftKerningGroup = one.osf;
note = one.tosn;
rightKerningGroup = one.osf;
rightMetricsKey = u;
},
{
glyphname = two.osf;
lastChange = "2019-11-07 10:52:05 +0000";
layers = (
{
layerId = "A285862E-BE3D-4D67-A40D-0E28E121AD88";
paths = (
{
closed = 1;
nodes = (
"105 320 LINE",
"121 414 OFFCURVE",
"194 452 OFFCURVE",
"288 452 CURVE SMOOTH",
"382 452 OFFCURVE",
"443 414 OFFCURVE",
"443 345 CURVE SMOOTH",
"443 276 OFFCURVE",
"387 247 OFFCURVE",
"302 231 CURVE SMOOTH",
"226 217 LINE SMOOTH",
"118 197 OFFCURVE",
"57 138 OFFCURVE",
"57 36 CURVE SMOOTH",
"57 0 LINE",
"493 0 LINE",
"493 46 LINE",
"109 46 LINE",
"109 117 OFFCURVE",
"161 157 OFFCURVE",
"234 170 CURVE SMOOTH",
"310 184 LINE SMOOTH",
"426 205 OFFCURVE",
"495 249 OFFCURVE",
"495 345 CURVE SMOOTH",
"495 441 OFFCURVE",
"410 498 OFFCURVE",
"288 498 CURVE SMOOTH",
"166 498 OFFCURVE",
"72 441 OFFCURVE",
"54 330 CURVE"
);
}
);
width = 545;
},
{
layerId = "5117E3E8-E17C-4812-BAF5-9E7064564A59";
paths = (
{
closed = 1;
nodes = (
"166 312 LINE",
"171 384 OFFCURVE",
"227 410 OFFCURVE",
"294 410 CURVE SMOOTH",
"361 410 OFFCURVE",
"406 384 OFFCURVE",
"406 338 CURVE SMOOTH",
"406 292 OFFCURVE",
"363 269 OFFCURVE",
"302 260 CURVE SMOOTH",
"244 251 LINE SMOOTH",
"122 232 OFFCURVE",
"42 170 OFFCURVE",
"42 64 CURVE SMOOTH",
"42 0 LINE",
"524 0 LINE",
"524 100 LINE",
"182 100 LINE",
"182 128 OFFCURVE",
"215 143 OFFCURVE",
"259 150 CURVE SMOOTH",
"331 161 LINE SMOOTH",
"445 178 OFFCURVE",
"530 222 OFFCURVE",
"530 337 CURVE SMOOTH",
"530 452 OFFCURVE",
"428 510 OFFCURVE",
"294 510 CURVE SMOOTH",
"162 510 OFFCURVE",
"58 451 OFFCURVE",
"44 332 CURVE"
);
}
);
width = 568;
}
);
leftKerningGroup = two.osf;
note = two.tosn;
rightKerningGroup = two.osf;
},
{
glyphname = three.osf;
lastChange = "2020-04-22 10:43:07 +0000";
layers = (
{
layerId = "A285862E-BE3D-4D67-A40D-0E28E121AD88";
paths = (
{
closed = 1;
nodes = (
"38 0 LINE",
"46 -140 OFFCURVE",
"141 -214 OFFCURVE",
"280 -214 CURVE SMOOTH",
"408 -214 OFFCURVE",
"507 -126 OFFCURVE",
"507 0 CURVE SMOOTH",
"507 132 OFFCURVE",
"411 208 OFFCURVE",
"286 208 CURVE SMOOTH",
"262 208 LINE",
"262 218 LINE",
"509 439 LINE",
"509 484 LINE",
"51 484 LINE",
"51 438 LINE",
"442 438 LINE",
"192 214 LINE",
"192 162 LINE",
"275 162 LINE SMOOTH",
"373 162 OFFCURVE",
"457 111 OFFCURVE",
"457 2 CURVE SMOOTH",
"457 -92 OFFCURVE",
"386 -166 OFFCURVE",
"280 -166 CURVE SMOOTH",
"169 -166 OFFCURVE",
"93 -113 OFFCURVE",
"88 6 CURVE"
);
}
);
width = 563;
},
{
layerId = "5117E3E8-E17C-4812-BAF5-9E7064564A59";
paths = (
{
closed = 1;
nodes = (
"18 -5 LINE",
"30 -138 OFFCURVE",
"135 -214 OFFCURVE",
"278 -214 CURVE SMOOTH",
"430 -214 OFFCURVE",
"533 -127 OFFCURVE",
"533 14 CURVE SMOOTH",
"533 145 OFFCURVE",
"436 208 OFFCURVE",
"335 208 CURVE SMOOTH",
"310 208 LINE",
"310 226 LINE",
"518 398 LINE",
"518 496 LINE",
"34 496 LINE",
"34 394 LINE",
"363 394 LINE",
"160 226 LINE",
"160 120 LINE",
"293 120 LINE SMOOTH",
"358 120 OFFCURVE",
"407 85 OFFCURVE",
"407 14 CURVE SMOOTH",
"407 -57 OFFCURVE",
"359 -108 OFFCURVE",
"278 -108 CURVE SMOOTH",
"202 -108 OFFCURVE",
"149 -63 OFFCURVE",
"144 13 CURVE"
);
}
);
width = 557;
}
);
leftKerningGroup = three.osf;
note = three.tosn;
rightKerningGroup = three.osf;
},
{
glyphname = four.osf;
lastChange = "2020-04-22 10:43:23 +0000";
layers = (
{
layerId = "A285862E-BE3D-4D67-A40D-0E28E121AD88";
paths = (
{
closed = 1;
nodes = (
"26 44 LINE",
"26 0 LINE",
"402 0 LINE",
"402 -200 LINE",
"452 -200 LINE",
"452 0 LINE",
"578 0 LINE",
"578 46 LINE",
"452 46 LINE",
"452 484 LINE",
"361 484 LINE"
);
},
{
closed = 1;
nodes = (
"402 449 LINE",
"402 46 LINE",
"85 46 LINE",
"392 449 LINE"
);
}
);
width = 600;
},
{
layerId = "5117E3E8-E17C-4812-BAF5-9E7064564A59";
paths = (
{
closed = 1;
nodes = (
"20 96 LINE",
"20 0 LINE",
"352 0 LINE",
"352 -200 LINE",
"478 -200 LINE",
"478 0 LINE",
"592 0 LINE",
"592 104 LINE",
"478 104 LINE",
"478 496 LINE",
"256 496 LINE"
);
},
{
closed = 1;
nodes = (
"352 404 LINE",
"352 104 LINE",
"156 104 LINE",
"334 404 LINE"
);
}
);
width = 598;
}
);
leftKerningGroup = four.osf;
note = four.tosn;
rightKerningGroup = four.osf;
},
{
glyphname = five.osf;
lastChange = "2020-04-22 10:47:15 +0000";
layers = (
{
layerId = "A285862E-BE3D-4D67-A40D-0E28E121AD88";
paths = (
{
closed = 1;
nodes = (
"54 0 LINE",
"61 -131 OFFCURVE",
"153 -214 OFFCURVE",
"289 -214 CURVE SMOOTH",
"434 -214 OFFCURVE",
"524 -112 OFFCURVE",
"524 27 CURVE SMOOTH",
"524 170 OFFCURVE",
"432 258 OFFCURVE",
"314 258 CURVE SMOOTH",
"208 258 OFFCURVE",
"159 203 OFFCURVE",
"139 160 CURVE",
"127 160 LINE",
"127 438 LINE",
"510 438 LINE",
"510 484 LINE",
"77 484 LINE",
"77 118 LINE",
"156 118 LINE",
"176 157 OFFCURVE",
"214 212 OFFCURVE",
"302 212 CURVE SMOOTH",
"405 212 OFFCURVE",
"474 142 OFFCURVE",
"474 27 CURVE SMOOTH",
"474 -95 OFFCURVE",
"403 -168 OFFCURVE",
"289 -168 CURVE SMOOTH",
"186 -168 OFFCURVE",
"110 -113 OFFCURVE",
"105 5 CURVE"
);
}
);
width = 572;
},
{
layerId = "5117E3E8-E17C-4812-BAF5-9E7064564A59";
paths = (
{
closed = 1;
nodes = (
"34 -8 LINE",
"49 -131 OFFCURVE",
"145 -214 OFFCURVE",
"289 -214 CURVE SMOOTH",
"445 -214 OFFCURVE",
"542 -122 OFFCURVE",
"542 31 CURVE SMOOTH",
"542 180 OFFCURVE",
"443 260 OFFCURVE",
"322 260 CURVE SMOOTH",
"254 260 OFFCURVE",
"213 230 OFFCURVE",
"197 208 CURVE",
"179 208 LINE",
"179 392 LINE",
"512 392 LINE",
"512 496 LINE",
"53 496 LINE",
"53 104 LINE",
"204 104 LINE",
"218 130 OFFCURVE",
"243 158 OFFCURVE",
"298 158 CURVE SMOOTH",
"366 158 OFFCURVE",
"416 107 OFFCURVE",
"416 27 CURVE SMOOTH",
"416 -55 OFFCURVE",
"368 -110 OFFCURVE",
"289 -110 CURVE SMOOTH",
"212 -110 OFFCURVE",
"162 -55 OFFCURVE",
"158 12 CURVE"
);
}
);
width = 568;
}
);
leftKerningGroup = five.osf;
note = five.tosn;
rightKerningGroup = five.osf;
},
{
glyphname = six.osf;
lastChange = "2020-04-22 10:46:07 +0000";
layers = (
{
layerId = "A285862E-BE3D-4D67-A40D-0E28E121AD88";
paths = (
{
closed = 1;
nodes = (
"190 414 OFFCURVE",
"114 338 OFFCURVE",
"114 222 CURVE SMOOTH",
"114 106 OFFCURVE",
"190 34 OFFCURVE",
"299 34 CURVE SMOOTH",
"408 34 OFFCURVE",
"484 106 OFFCURVE",
"484 222 CURVE SMOOTH",
"484 338 OFFCURVE",
"408 414 OFFCURVE",
"299 414 CURVE SMOOTH"
);
},
{
closed = 1;
nodes = (
"470 609 OFFCURVE",
"411 668 OFFCURVE",
"303 668 CURVE SMOOTH",
"185 668 OFFCURVE",
"114 596 OFFCURVE",
"114 477 CURVE SMOOTH",
"114 365 LINE",
"126 365 LINE",
"150 411 OFFCURVE",
"208 460 OFFCURVE",
"311 460 CURVE SMOOTH",
"435 460 OFFCURVE",
"534 369 OFFCURVE",
"534 222 CURVE SMOOTH",
"534 75 OFFCURVE",
"431 -14 OFFCURVE",
"299 -14 CURVE SMOOTH",
"167 -14 OFFCURVE",
"64 72 OFFCURVE",
"64 222 CURVE SMOOTH",
"64 470 LINE SMOOTH",
"64 618 OFFCURVE",
"152 714 OFFCURVE",
"303 714 CURVE SMOOTH",
"441 714 OFFCURVE",
"517 631 OFFCURVE",
"527 524 CURVE",
"476 517 LINE"
);
}
);
width = 586;
},
{
layerId = "5117E3E8-E17C-4812-BAF5-9E7064564A59";
paths = (
{
closed = 1;
nodes = (
"228 354 OFFCURVE",
"174 302 OFFCURVE",
"174 223 CURVE SMOOTH",
"174 144 OFFCURVE",
"228 92 OFFCURVE",
"308 92 CURVE SMOOTH",
"388 92 OFFCURVE",
"442 144 OFFCURVE",
"442 223 CURVE SMOOTH",
"442 302 OFFCURVE",
"388 354 OFFCURVE",
"308 354 CURVE SMOOTH"
);
},
{
closed = 1;
nodes = (
"430 563 OFFCURVE",
"391 610 OFFCURVE",
"310 610 CURVE SMOOTH",
"225 610 OFFCURVE",
"174 556 OFFCURVE",
"174 470 CURVE SMOOTH",
"174 396 LINE",
"192 396 LINE",
"214 422 OFFCURVE",
"258 456 OFFCURVE",
"343 456 CURVE SMOOTH",
"463 456 OFFCURVE",
"568 367 OFFCURVE",
"568 225 CURVE SMOOTH",
"568 83 OFFCURVE",
"463 -14 OFFCURVE",
"306 -14 CURVE SMOOTH",
"149 -14 OFFCURVE",
"48 83 OFFCURVE",
"48 221 CURVE SMOOTH",
"48 460 LINE SMOOTH",
"48 630 OFFCURVE",
"156 714 OFFCURVE",
"310 714 CURVE SMOOTH",
"455 714 OFFCURVE",
"553 640 OFFCURVE",
"563 516 CURVE",
"435 505 LINE"
);
}
);
width = 602;
}
);
leftKerningGroup = six.osf;
note = six.tosn;
rightKerningGroup = six.osf;
},
{
glyphname = seven.osf;
lastChange = "2019-11-07 10:52:05 +0000";
layers = (
{
layerId = "A285862E-BE3D-4D67-A40D-0E28E121AD88";
paths = (
{
closed = 1;
nodes = (
"32 438 LINE",
"477 438 LINE",
"170 -200 LINE",
"226 -200 LINE",
"532 442 LINE",
"532 484 LINE",
"32 484 LINE"
);
}
);
width = 562;
},
{
layerId = "5117E3E8-E17C-4812-BAF5-9E7064564A59";
paths = (
{
closed = 1;
nodes = (
"24 392 LINE",
"399 392 LINE",
"134 -200 LINE",
"272 -200 LINE",
"536 396 LINE",
"536 496 LINE",
"24 496 LINE"
);
}
);
width = 564;
}
);
leftKerningGroup = seven.osf;
note = seven.tosn;
rightKerningGroup = seven.osf;
},
{
glyphname = eight.osf;
lastChange = "2020-04-22 10:44:15 +0000";
layers = (
{
layerId = "A285862E-BE3D-4D67-A40D-0E28E121AD88";
paths = (
{
closed = 1;
nodes = (
"59 432 OFFCURVE",
"134 385 OFFCURVE",
"186 369 CURVE",
"186 357 LINE",
"134 349 OFFCURVE",
"46 298 OFFCURVE",
"46 184 CURVE SMOOTH",
"46 66 OFFCURVE",
"145 -14 OFFCURVE",
"292 -14 CURVE SMOOTH",
"439 -14 OFFCURVE",
"538 66 OFFCURVE",
"538 184 CURVE SMOOTH",
"538 298 OFFCURVE",
"450 349 OFFCURVE",
"398 357 CURVE",
"398 369 LINE",
"450 385 OFFCURVE",
"525 432 OFFCURVE",
"525 528 CURVE SMOOTH",
"525 636 OFFCURVE",
"435 714 OFFCURVE",
"292 714 CURVE SMOOTH",
"149 714 OFFCURVE",
"59 636 OFFCURVE",
"59 528 CURVE SMOOTH"
);
},
{
closed = 1;
nodes = (
"96 288 OFFCURVE",
"180 339 OFFCURVE",
"292 339 CURVE SMOOTH",
"405 339 OFFCURVE",
"488 288 OFFCURVE",
"488 186 CURVE SMOOTH",
"488 83 OFFCURVE",
"405 32 OFFCURVE",
"292 32 CURVE SMOOTH",
"180 32 OFFCURVE",
"96 83 OFFCURVE",
"96 186 CURVE SMOOTH"
);
},
{
closed = 1;
nodes = (
"109 617 OFFCURVE",
"189 668 OFFCURVE",
"292 668 CURVE SMOOTH",
"395 668 OFFCURVE",
"475 617 OFFCURVE",
"475 526 CURVE SMOOTH",
"475 436 OFFCURVE",
"395 385 OFFCURVE",
"292 385 CURVE SMOOTH",
"189 385 OFFCURVE",
"109 436 OFFCURVE",
"109 526 CURVE SMOOTH"
);
}
);
width = 584;
},
{
layerId = "5117E3E8-E17C-4812-BAF5-9E7064564A59";
paths = (
{
closed = 1;
nodes = (
"44 433 OFFCURVE",
"98 388 OFFCURVE",
"145 370 CURVE",
"145 352 LINE",
"98 339 OFFCURVE",
"34 292 OFFCURVE",
"34 193 CURVE SMOOTH",
"34 65 OFFCURVE",
"142 -14 OFFCURVE",
"295 -14 CURVE SMOOTH",
"448 -14 OFFCURVE",
"556 65 OFFCURVE",
"556 193 CURVE SMOOTH",
"556 292 OFFCURVE",
"492 339 OFFCURVE",
"445 352 CURVE",
"445 370 LINE",
"492 388 OFFCURVE",
"546 433 OFFCURVE",
"546 523 CURVE SMOOTH",
"546 633 OFFCURVE",
"446 714 OFFCURVE",
"295 714 CURVE SMOOTH",
"144 714 OFFCURVE",
"44 633 OFFCURVE",
"44 523 CURVE SMOOTH"
);
},
{
closed = 1;
nodes = (
"159 263 OFFCURVE",
"209 305 OFFCURVE",
"295 305 CURVE SMOOTH",
"381 305 OFFCURVE",
"431 263 OFFCURVE",
"431 200 CURVE SMOOTH",
"431 134 OFFCURVE",
"381 90 OFFCURVE",
"295 90 CURVE SMOOTH",
"209 90 OFFCURVE",
"159 134 OFFCURVE",
"159 200 CURVE SMOOTH"
);
},
{
closed = 1;
nodes = (
"169 573 OFFCURVE",
"217 610 OFFCURVE",
"295 610 CURVE SMOOTH",
"373 610 OFFCURVE",
"421 573 OFFCURVE",
"421 509 CURVE SMOOTH",
"421 446 OFFCURVE",
"373 409 OFFCURVE",
"295 409 CURVE SMOOTH",
"217 409 OFFCURVE",
"169 446 OFFCURVE",
"169 509 CURVE SMOOTH"
);
}
);
width = 590;
}
);
leftKerningGroup = eight.osf;
note = eight.tosn;
rightKerningGroup = eight.osf;
},
{
glyphname = nine.osf;
lastChange = "2020-04-22 10:46:38 +0000";
layers = (
{
layerId = "A285862E-BE3D-4D67-A40D-0E28E121AD88";
paths = (
{
closed = 1;
nodes = (
"394 70 OFFCURVE",
"470 146 OFFCURVE",
"470 262 CURVE SMOOTH",
"470 378 OFFCURVE",
"394 450 OFFCURVE",
"285 450 CURVE SMOOTH",
"176 450 OFFCURVE",
"100 378 OFFCURVE",
"100 262 CURVE SMOOTH",
"100 146 OFFCURVE",
"176 70 OFFCURVE",
"285 70 CURVE SMOOTH"
);
},
{
closed = 1;
nodes = (
"114 -109 OFFCURVE",
"173 -168 OFFCURVE",
"281 -168 CURVE SMOOTH",
"399 -168 OFFCURVE",
"470 -96 OFFCURVE",
"470 23 CURVE SMOOTH",
"470 119 LINE",
"458 119 LINE",
"434 73 OFFCURVE",
"376 24 OFFCURVE",
"273 24 CURVE SMOOTH",
"149 24 OFFCURVE",
"50 115 OFFCURVE",
"50 262 CURVE SMOOTH",
"50 409 OFFCURVE",
"153 498 OFFCURVE",
"285 498 CURVE SMOOTH",
"417 498 OFFCURVE",
"520 412 OFFCURVE",
"520 262 CURVE SMOOTH",
"520 30 LINE SMOOTH",
"520 -118 OFFCURVE",
"432 -214 OFFCURVE",
"281 -214 CURVE SMOOTH",
"143 -214 OFFCURVE",
"67 -131 OFFCURVE",
"57 -24 CURVE",
"108 -17 LINE"
);
}
);
width = 582;
},
{
layerId = "5117E3E8-E17C-4812-BAF5-9E7064564A59";
paths = (
{
closed = 1;
nodes = (
"374 142 OFFCURVE",
"428 194 OFFCURVE",
"428 273 CURVE SMOOTH",
"428 352 OFFCURVE",
"374 404 OFFCURVE",
"294 404 CURVE SMOOTH",
"214 404 OFFCURVE",
"160 352 OFFCURVE",
"160 273 CURVE SMOOTH",
"160 194 OFFCURVE",
"214 142 OFFCURVE",
"294 142 CURVE SMOOTH"
);
},
{
closed = 1;
nodes = (
"172 -63 OFFCURVE",
"211 -110 OFFCURVE",
"292 -110 CURVE SMOOTH",
"377 -110 OFFCURVE",
"428 -56 OFFCURVE",
"428 30 CURVE SMOOTH",
"428 100 LINE",
"410 100 LINE",
"388 74 OFFCURVE",
"344 40 OFFCURVE",
"259 40 CURVE SMOOTH",
"139 40 OFFCURVE",
"34 129 OFFCURVE",
"34 271 CURVE SMOOTH",
"34 413 OFFCURVE",
"139 510 OFFCURVE",
"296 510 CURVE SMOOTH",
"453 510 OFFCURVE",
"554 413 OFFCURVE",
"554 275 CURVE SMOOTH",
"554 40 LINE SMOOTH",
"554 -130 OFFCURVE",
"446 -214 OFFCURVE",
"292 -214 CURVE SMOOTH",
"147 -214 OFFCURVE",
"49 -140 OFFCURVE",
"39 -16 CURVE",
"167 -5 LINE"
);
}
);
width = 602;
}
);
leftKerningGroup = nine.osf;
note = nine.tosn;
rightKerningGroup = nine.osf;
},
{
glyphname = zero.osf.zero;
lastChange = "2019-11-07 10:52:05 +0000";
layers = (
{
layerId = "A285862E-BE3D-4D67-A40D-0E28E121AD88";
paths = (
{
closed = 1;
nodes = (
"110 137 LINE",
"132 99 LINE",
"494 347 LINE",
"472 385 LINE"
);
},
{
closed = 1;
nodes = (
"50 93 OFFCURVE",
"150 -14 OFFCURVE",
"302 -14 CURVE SMOOTH",
"454 -14 OFFCURVE",
"554 93 OFFCURVE",
"554 242 CURVE SMOOTH",
"554 391 OFFCURVE",
"454 498 OFFCURVE",
"302 498 CURVE SMOOTH",
"150 498 OFFCURVE",
"50 391 OFFCURVE",
"50 242 CURVE SMOOTH"
);
},
{
closed = 1;
nodes = (
"100 362 OFFCURVE",
"180 452 OFFCURVE",
"302 452 CURVE SMOOTH",
"423 452 OFFCURVE",
"504 367 OFFCURVE",
"504 242 CURVE SMOOTH",
"504 119 OFFCURVE",
"423 32 OFFCURVE",
"302 32 CURVE SMOOTH",
"180 32 OFFCURVE",
"100 114 OFFCURVE",
"100 242 CURVE SMOOTH"
);
}
);
width = 604;
},
{
layerId = "5117E3E8-E17C-4812-BAF5-9E7064564A59";
paths = (
{
closed = 1;
nodes = (
"93 151 LINE",
"139 85 LINE",
"491 345 LINE",
"445 411 LINE"
);
},
{
closed = 1;
nodes = (
"26 90 OFFCURVE",
"138 -14 OFFCURVE",
"292 -14 CURVE SMOOTH",
"446 -14 OFFCURVE",
"558 90 OFFCURVE",
"558 248 CURVE SMOOTH",
"558 406 OFFCURVE",
"446 510 OFFCURVE",
"292 510 CURVE SMOOTH",
"138 510 OFFCURVE",
"26 406 OFFCURVE",
"26 248 CURVE SMOOTH"
);
},
{
closed = 1;
nodes = (
"152 334 OFFCURVE",
"208 400 OFFCURVE",
"292 400 CURVE SMOOTH",
"376 400 OFFCURVE",
"432 334 OFFCURVE",
"432 248 CURVE SMOOTH",
"432 162 OFFCURVE",
"376 96 OFFCURVE",
"292 96 CURVE SMOOTH",
"208 96 OFFCURVE",
"152 162 OFFCURVE",
"152 248 CURVE SMOOTH"
);
}
);
width = 584;
}
);
leftKerningGroup = zero.osf;
leftMetricsKey = o;
note = zero.tosn;
rightKerningGroup = zero.osf;
rightMetricsKey = o;
},
{
glyphname = one.tf;
lastChange = "2020-04-22 10:48:26 +0000";
layers = (
{
layerId = "A285862E-BE3D-4D67-A40D-0E28E121AD88";
paths = (
{
closed = 1;
nodes = (
"62 48 LINE",
"62 0 LINE",
"586 0 LINE",
"586 48 LINE"
);
},
{
closed = 1;
nodes = (
"104 404 LINE",
"165 404 LINE",
"316 665 LINE",
"328 665 LINE",
"328 0 LINE",
"380 0 LINE",
"380 700 LINE",
"279 700 LINE"
);
}
);
width = 620;
},
{
layerId = "5117E3E8-E17C-4812-BAF5-9E7064564A59";
paths = (
{
closed = 1;
nodes = (
"68 120 LINE",
"68 0 LINE",
"572 0 LINE",
"572 120 LINE"
);
},
{
closed = 1;
nodes = (
"89 384 LINE",
"216 384 LINE",
"270 603 LINE",
"288 603 LINE",
"288 0 LINE",
"418 0 LINE",
"418 700 LINE",
"176 700 LINE"
);
}
);
width = 620;
}
);
note = one;
},
{
glyphname = four.tf;
lastChange = "2020-04-22 10:48:00 +0000";
layers = (
{
layerId = "A285862E-BE3D-4D67-A40D-0E28E121AD88";
paths = (
{
closed = 1;
nodes = (
"40 190 LINE",
"40 144 LINE",
"416 144 LINE",
"416 0 LINE",
"468 0 LINE",
"468 144 LINE",
"592 144 LINE",
"592 192 LINE",
"468 192 LINE",
"468 700 LINE",
"377 700 LINE"
);
},
{
closed = 1;
nodes = (
"416 648 LINE",
"416 192 LINE",
"100 192 LINE",
"404 648 LINE"
);
}
);
width = 620;
},
{
layerId = "5117E3E8-E17C-4812-BAF5-9E7064564A59";
paths = (
{
closed = 1;
nodes = (
"32 254 LINE",
"32 138 LINE",
"362 138 LINE",
"362 0 LINE",
"494 0 LINE",
"494 138 LINE",
"608 138 LINE",
"608 258 LINE",
"494 258 LINE",
"494 700 LINE",
"280 700 LINE"
);
},
{
closed = 1;
nodes = (
"362 585 LINE",
"362 258 LINE",
"167 258 LINE",
"344 585 LINE"
);
}
);
width = 620;
}
);
note = four;
},
{
glyphname = seven.tf;
lastChange = "2019-11-07 10:52:05 +0000";
layers = (
{
layerId = "A285862E-BE3D-4D67-A40D-0E28E121AD88";
paths = (
{
closed = 1;
nodes = (
"38 652 LINE",
"519 652 LINE",
"184 0 LINE",
"242 0 LINE",
"578 656 LINE",
"578 700 LINE",
"38 700 LINE"
);
}
);
width = 620;
},
{
layerId = "5117E3E8-E17C-4812-BAF5-9E7064564A59";
paths = (
{
closed = 1;
nodes = (
"36 584 LINE",
"442 584 LINE",
"153 0 LINE",
"297 0 LINE",
"584 588 LINE",
"584 700 LINE",
"36 700 LINE"
);
}
);
width = 620;
}
);
note = seven;
},
{
glyphname = one.tosf;
lastChange = "2020-04-22 10:48:48 +0000";
layers = (
{
layerId = "A285862E-BE3D-4D67-A40D-0E28E121AD88";
paths = (
{
closed = 1;
nodes = (
"60 46 LINE",
"60 0 LINE",
"586 0 LINE",
"586 46 LINE"
);
},
{
closed = 1;
nodes = (
"140 272 LINE",
"201 272 LINE",
"321 444 LINE",
"331 444 LINE",
"331 0 LINE",
"381 0 LINE",
"381 484 LINE",
"290 484 LINE"
);
}
);
width = 620;
},
{
layerId = "5117E3E8-E17C-4812-BAF5-9E7064564A59";
paths = (
{
closed = 1;
nodes = (
"46 104 LINE",
"46 0 LINE",
"576 0 LINE",
"576 104 LINE"
);
},
{
closed = 1;
nodes = (
"100 274 LINE",
"228 274 LINE",
"279 408 LINE",
"297 408 LINE",
"297 0 LINE",
"423 0 LINE",
"423 496 LINE",
"196 496 LINE"
);
}
);
width = 620;
}
);
note = one.tosn;
},
{
glyphname = seven.tosf;
lastChange = "2019-11-07 10:52:05 +0000";
layers = (
{
layerId = "A285862E-BE3D-4D67-A40D-0E28E121AD88";
paths = (
{
closed = 1;
nodes = (
"52 438 LINE",
"509 438 LINE",
"196 -200 LINE",
"252 -200 LINE",
"564 442 LINE",
"564 484 LINE",
"52 484 LINE"
);
}
);
width = 620;
},
{
layerId = "5117E3E8-E17C-4812-BAF5-9E7064564A59";
paths = (
{
closed = 1;
nodes = (
"42 392 LINE",
"432 392 LINE",
"160 -200 LINE",
"298 -200 LINE",
"570 396 LINE",
"570 496 LINE",
"42 496 LINE"
);
}
);
width = 620;
}
);
note = seven.tosn;
},
{
glyphname = zero.dnom;
lastChange = "2019-12-27 23:39:20 +0000";
layers = (
{
layerId = "5117E3E8-E17C-4812-BAF5-9E7064564A59";
paths = (
{
closed = 1;
nodes = (
"36 141 LINE SMOOTH",
"36 47 OFFCURVE",
"93 -10 OFFCURVE",
"194 -10 CURVE SMOOTH",
"295 -10 OFFCURVE",
"352 47 OFFCURVE",
"352 141 CURVE SMOOTH",
"352 208 LINE SMOOTH",
"352 302 OFFCURVE",
"292 360 OFFCURVE",
"194 360 CURVE SMOOTH",
"93 360 OFFCURVE",
"36 302 OFFCURVE",
"36 208 CURVE SMOOTH"
);
},
{
closed = 1;
nodes = (
"130 256 OFFCURVE",
"152 284 OFFCURVE",
"194 284 CURVE SMOOTH",
"236 284 OFFCURVE",
"258 256 OFFCURVE",
"258 215 CURVE SMOOTH",
"258 135 LINE SMOOTH",
"258 94 OFFCURVE",
"236 66 OFFCURVE",
"194 66 CURVE SMOOTH",
"152 66 OFFCURVE",
"130 94 OFFCURVE",
"130 135 CURVE SMOOTH",
"130 215 LINE SMOOTH"
);
}
);
width = 388;
},
{
layerId = "A285862E-BE3D-4D67-A40D-0E28E121AD88";
paths = (
{
closed = 1;
nodes = (
"44 149 LINE SMOOTH",
"44 51 OFFCURVE",
"104 -10 OFFCURVE",
"202 -10 CURVE SMOOTH",
"300 -10 OFFCURVE",
"360 51 OFFCURVE",
"360 149 CURVE SMOOTH",
"360 200 LINE SMOOTH",
"360 298 OFFCURVE",
"297 360 OFFCURVE",
"202 360 CURVE SMOOTH",
"104 360 OFFCURVE",
"44 298 OFFCURVE",
"44 200 CURVE SMOOTH"
);
},
{
closed = 1;
nodes = (
"88 274 OFFCURVE",
"131 320 OFFCURVE",
"202 320 CURVE SMOOTH",
"273 320 OFFCURVE",
"316 274 OFFCURVE",
"316 205 CURVE SMOOTH",
"316 145 LINE SMOOTH",
"316 76 OFFCURVE",
"273 30 OFFCURVE",
"202 30 CURVE SMOOTH",
"131 30 OFFCURVE",
"88 76 OFFCURVE",
"88 145 CURVE SMOOTH",
"88 205 LINE SMOOTH"
);
}
);
width = 404;
}
);
leftKerningGroup = zero.dnom;
rightKerningGroup = zero.dnom;
},
{
glyphname = one.dnom;
lastChange = "2020-04-22 10:49:31 +0000";
layers = (
{
layerId = "5117E3E8-E17C-4812-BAF5-9E7064564A59";
paths = (
{
closed = 1;
nodes = (
"18 194 LINE",
"103 194 LINE",
"118 272 LINE",
"132 272 LINE",
"132 0 LINE",
"226 0 LINE",
"226 350 LINE",
"56 350 LINE"
);
}
);
width = 270;
},
{
layerId = "A285862E-BE3D-4D67-A40D-0E28E121AD88";
paths = (
{
closed = 1;
nodes = (
"20 194 LINE",
"71 194 LINE",
"134 290 LINE",
"144 290 LINE",
"144 0 LINE",
"188 0 LINE",
"188 350 LINE",
"126 350 LINE"
);
}
);
width = 242;
}
);
leftKerningGroup = one.dnom;
rightKerningGroup = one.dnom;
},
{
glyphname = two.dnom;
lastChange = "2019-12-27 23:39:43 +0000";
layers = (
{
layerId = "5117E3E8-E17C-4812-BAF5-9E7064564A59";
paths = (
{
closed = 1;
nodes = (
"128 230 LINE",
"130 271 OFFCURVE",
"158 286 OFFCURVE",
"190 286 CURVE SMOOTH",
"222 286 OFFCURVE",
"246 271 OFFCURVE",
"246 244 CURVE SMOOTH",
"246 216 OFFCURVE",
"220 200 OFFCURVE",
"161 187 CURVE SMOOTH",
"71 167 OFFCURVE",
"30 124 OFFCURVE",
"30 44 CURVE SMOOTH",
"30 0 LINE",
"338 0 LINE",
"338 76 LINE",
"130 76 LINE",
"130 98 OFFCURVE",
"148 110 OFFCURVE",
"201 121 CURVE SMOOTH",
"286 139 OFFCURVE",
"340 171 OFFCURVE",
"340 243 CURVE SMOOTH",
"340 315 OFFCURVE",
"276 362 OFFCURVE",
"190 362 CURVE SMOOTH",
"103 362 OFFCURVE",
"41 318 OFFCURVE",
"34 237 CURVE"
);
}
);
width = 372;
},
{
layerId = "A285862E-BE3D-4D67-A40D-0E28E121AD88";
paths = (
{
closed = 1;
nodes = (
"73 232 LINE",
"78 295 OFFCURVE",
"123 324 OFFCURVE",
"188 324 CURVE SMOOTH",
"250 324 OFFCURVE",
"290 292 OFFCURVE",
"290 247 CURVE SMOOTH",
"290 199 OFFCURVE",
"252 176 OFFCURVE",
"170 157 CURVE SMOOTH",
"74 135 OFFCURVE",
"28 90 OFFCURVE",
"28 22 CURVE SMOOTH",
"28 0 LINE",
"332 0 LINE",
"332 40 LINE",
"74 40 LINE",
"81 86 OFFCURVE",
"121 104 OFFCURVE",
"204 124 CURVE SMOOTH",
"287 144 OFFCURVE",
"334 174 OFFCURVE",
"334 247 CURVE SMOOTH",
"334 319 OFFCURVE",
"276 364 OFFCURVE",
"188 364 CURVE SMOOTH",
"100 364 OFFCURVE",
"37 323 OFFCURVE",
"29 234 CURVE"
);
}
);
width = 366;
}
);
leftKerningGroup = two.dnom;
rightKerningGroup = two.dnom;
},
{
glyphname = three.dnom;
lastChange = "2020-04-22 10:49:55 +0000";
layers = (
{
layerId = "5117E3E8-E17C-4812-BAF5-9E7064564A59";
paths = (
{
closed = 1;
nodes = (
"26 114 LINE",
"34 33 OFFCURVE",
"99 -12 OFFCURVE",
"187 -12 CURVE SMOOTH",
"275 -12 OFFCURVE",
"343 39 OFFCURVE",
"343 111 CURVE SMOOTH",
"343 175 OFFCURVE",
"299 207 OFFCURVE",
"245 210 CURVE",
"245 224 LINE",
"341 286 LINE",
"341 350 LINE",
"33 350 LINE",
"33 274 LINE",
"206 274 LINE",
"119 216 LINE",
"119 160 LINE",
"185 160 LINE SMOOTH",
"226 160 OFFCURVE",
"249 144 OFFCURVE",
"249 115 CURVE SMOOTH",
"249 87 OFFCURVE",
"225 64 OFFCURVE",
"187 64 CURVE SMOOTH",
"152 64 OFFCURVE",
"123 86 OFFCURVE",
"119 120 CURVE"
);
}
);
width = 371;
},
{
layerId = "A285862E-BE3D-4D67-A40D-0E28E121AD88";
paths = (
{
closed = 1;
nodes = (
"32 113 LINE",
"37 30 OFFCURVE",
"106 -14 OFFCURVE",
"192 -14 CURVE SMOOTH",
"280 -14 OFFCURVE",
"346 32 OFFCURVE",
"346 104 CURVE SMOOTH",
"346 176 OFFCURVE",
"285 212 OFFCURVE",
"214 214 CURVE",
"214 224 LINE",
"344 316 LINE",
"344 350 LINE",
"40 350 LINE",
"40 310 LINE",
"266 310 LINE",
"132 214 LINE",
"132 178 LINE",
"190 178 LINE SMOOTH",
"261 178 OFFCURVE",
"302 152 OFFCURVE",
"302 104 CURVE SMOOTH",
"302 56 OFFCURVE",
"256 26 OFFCURVE",
"192 26 CURVE SMOOTH",
"129 26 OFFCURVE",
"79 55 OFFCURVE",
"76 116 CURVE"
);
}
);
width = 382;
}
);
leftKerningGroup = three.dnom;
rightKerningGroup = three.dnom;
},
{
glyphname = four.dnom;
lastChange = "2020-04-22 10:50:10 +0000";
layers = (
{
layerId = "5117E3E8-E17C-4812-BAF5-9E7064564A59";
paths = (
{
closed = 1;
nodes = (
"16 141 LINE",
"16 71 LINE",
"218 71 LINE",
"218 0 LINE",
"312 0 LINE",
"312 71 LINE",
"372 71 LINE",
"372 147 LINE",
"312 147 LINE",
"312 350 LINE",
"149 350 LINE"
);
},
{
closed = 1;
nodes = (
"218 286 LINE",
"218 147 LINE",
"117 147 LINE",
"204 286 LINE"
);
}
);
width = 390;
},
{
layerId = "A285862E-BE3D-4D67-A40D-0E28E121AD88";
paths = (
{
closed = 1;
nodes = (
"22 124 LINE",
"22 90 LINE",
"247 90 LINE",
"247 0 LINE",
"291 0 LINE",
"291 90 LINE",
"378 90 LINE",
"378 130 LINE",
"291 130 LINE",
"291 350 LINE",
"219 350 LINE"
);
},
{
closed = 1;
nodes = (
"247 310 LINE",
"247 130 LINE",
"81 130 LINE",
"237 310 LINE"
);
}
);
width = 394;
}
);
leftKerningGroup = four.dnom;
rightKerningGroup = four.dnom;
},
{
glyphname = five.dnom;
lastChange = "2020-04-22 10:50:20 +0000";
layers = (
{
layerId = "5117E3E8-E17C-4812-BAF5-9E7064564A59";
paths = (
{
closed = 1;
nodes = (
"28 103 LINE",
"36 38 OFFCURVE",
"92 -12 OFFCURVE",
"186 -12 CURVE SMOOTH",
"284 -12 OFFCURVE",
"340 42 OFFCURVE",
"340 117 CURVE SMOOTH",
"340 192 OFFCURVE",
"282 232 OFFCURVE",
"224 232 CURVE SMOOTH",
"180 232 OFFCURVE",
"159 218 OFFCURVE",
"146 206 CURVE",
"132 206 LINE",
"132 274 LINE",
"330 274 LINE",
"330 350 LINE",
"38 350 LINE",
"38 141 LINE",
"143 141 LINE",
"151 150 OFFCURVE",
"165 163 OFFCURVE",
"193 163 CURVE SMOOTH",
"222 163 OFFCURVE",
"246 147 OFFCURVE",
"246 116 CURVE SMOOTH",
"246 85 OFFCURVE",
"222 64 OFFCURVE",
"186 64 CURVE SMOOTH",
"151 64 OFFCURVE",
"127 84 OFFCURVE",
"122 110 CURVE"
);
}
);
width = 368;
},
{
layerId = "A285862E-BE3D-4D67-A40D-0E28E121AD88";
paths = (
{
closed = 1;
nodes = (
"38 101 LINE",
"47 34 OFFCURVE",
"104 -14 OFFCURVE",
"197 -14 CURVE SMOOTH",
"293 -14 OFFCURVE",
"349 38 OFFCURVE",
"349 116 CURVE SMOOTH",
"349 194 OFFCURVE",
"293 238 OFFCURVE",
"212 238 CURVE SMOOTH",
"148 238 OFFCURVE",
"117 210 OFFCURVE",
"103 199 CURVE",
"93 199 LINE",
"93 310 LINE",
"339 310 LINE",
"339 350 LINE",
"49 350 LINE",
"49 155 LINE",
"108 155 LINE",
"121 169 OFFCURVE",
"149 198 OFFCURVE",
"204 198 CURVE SMOOTH",
"262 198 OFFCURVE",
"305 167 OFFCURVE",
"305 115 CURVE SMOOTH",
"305 63 OFFCURVE",
"265 26 OFFCURVE",
"197 26 CURVE SMOOTH",
"131 26 OFFCURVE",
"89 61 OFFCURVE",
"83 106 CURVE"
);
}
);
width = 381;
}
);
leftKerningGroup = five.dnom;
rightKerningGroup = five.dnom;
},
{
glyphname = six.dnom;
lastChange = "2020-04-22 10:50:41 +0000";
layers = (
{
layerId = "5117E3E8-E17C-4812-BAF5-9E7064564A59";
paths = (
{
closed = 1;
nodes = (
"343 258 LINE",
"334 315 OFFCURVE",
"279 362 OFFCURVE",
"193 362 CURVE SMOOTH",
"103 362 OFFCURVE",
"36 310 OFFCURVE",
"36 226 CURVE SMOOTH",
"36 118 LINE SMOOTH",
"36 38 OFFCURVE",
"101 -12 OFFCURVE",
"193 -12 CURVE SMOOTH",
"285 -12 OFFCURVE",
"350 38 OFFCURVE",
"350 114 CURVE SMOOTH",
"350 190 OFFCURVE",
"289 227 OFFCURVE",
"219 227 CURVE SMOOTH",
"178 227 OFFCURVE",
"154 212 OFFCURVE",
"144 202 CURVE",
"130 202 LINE",
"130 228 LINE SMOOTH",
"130 262 OFFCURVE",
"155 286 OFFCURVE",
"193 286 CURVE SMOOTH",
"230 286 OFFCURVE",
"244 268 OFFCURVE",
"248 251 CURVE"
);
},
{
closed = 1;
nodes = (
"130 140 OFFCURVE",
"153 160 OFFCURVE",
"193 160 CURVE SMOOTH",
"233 160 OFFCURVE",
"256 140 OFFCURVE",
"256 112 CURVE SMOOTH",
"256 84 OFFCURVE",
"233 64 OFFCURVE",
"193 64 CURVE SMOOTH",
"153 64 OFFCURVE",
"130 84 OFFCURVE",
"130 112 CURVE SMOOTH"
);
}
);
width = 378;
},
{
layerId = "A285862E-BE3D-4D67-A40D-0E28E121AD88";
paths = (
{
closed = 1;
nodes = (
"351 262 LINE",
"344 322 OFFCURVE",
"289 364 OFFCURVE",
"200 364 CURVE SMOOTH",
"109 364 OFFCURVE",
"44 309 OFFCURVE",
"44 230 CURVE SMOOTH",
"44 111 LINE SMOOTH",
"44 36 OFFCURVE",
"109 -14 OFFCURVE",
"201 -14 CURVE SMOOTH",
"293 -14 OFFCURVE",
"358 36 OFFCURVE",
"358 113 CURVE SMOOTH",
"358 190 OFFCURVE",
"293 236 OFFCURVE",
"213 236 CURVE SMOOTH",
"140 236 OFFCURVE",
"110 208 OFFCURVE",
"98 198 CURVE",
"88 198 LINE",
"88 230 LINE SMOOTH",
"88 284 OFFCURVE",
"130 324 OFFCURVE",
"200 324 CURVE SMOOTH",
"269 324 OFFCURVE",
"302 293 OFFCURVE",
"308 258 CURVE"
);
},
{
closed = 1;
nodes = (
"88 160 OFFCURVE",
"131 196 OFFCURVE",
"201 196 CURVE SMOOTH",
"271 196 OFFCURVE",
"314 160 OFFCURVE",
"314 112 CURVE SMOOTH",
"314 64 OFFCURVE",
"271 26 OFFCURVE",
"201 26 CURVE SMOOTH",
"131 26 OFFCURVE",
"88 64 OFFCURVE",
"88 112 CURVE SMOOTH"
);
}
);
width = 396;
}
);
leftKerningGroup = six.dnom;
rightKerningGroup = six.dnom;
},
{
glyphname = seven.dnom;
lastChange = "2019-12-27 23:40:37 +0000";
layers = (
{
layerId = "5117E3E8-E17C-4812-BAF5-9E7064564A59";
paths = (
{
closed = 1;
nodes = (
"16 274 LINE",
"221 274 LINE",
"77 0 LINE",
"183 0 LINE",
"326 278 LINE",
"326 350 LINE",
"16 350 LINE"
);
}
);
width = 342;
},
{
layerId = "A285862E-BE3D-4D67-A40D-0E28E121AD88";
paths = (
{
closed = 1;
nodes = (
"20 310 LINE",
"268 310 LINE",
"107 0 LINE",
"156 0 LINE",
"318 316 LINE",
"318 350 LINE",
"20 350 LINE"
);
}
);
width = 340;
}
);
leftKerningGroup = seven.dnom;
rightKerningGroup = seven.dnom;
},
{
glyphname = eight.dnom;
lastChange = "2020-04-22 10:51:10 +0000";
layers = (
{
layerId = "5117E3E8-E17C-4812-BAF5-9E7064564A59";
paths = (
{
closed = 1;
nodes = (
"38 216 OFFCURVE",
"72 195 OFFCURVE",
"91 189 CURVE",
"91 175 LINE",
"69 169 OFFCURVE",
"32 148 OFFCURVE",
"32 93 CURVE SMOOTH",
"32 31 OFFCURVE",
"88 -12 OFFCURVE",
"190 -12 CURVE SMOOTH",
"292 -12 OFFCURVE",
"348 31 OFFCURVE",
"348 93 CURVE SMOOTH",
"348 148 OFFCURVE",
"311 169 OFFCURVE",
"289 175 CURVE",
"289 189 LINE",
"308 195 OFFCURVE",
"342 216 OFFCURVE",
"342 264 CURVE SMOOTH",
"342 323 OFFCURVE",
"283 362 OFFCURVE",
"190 362 CURVE SMOOTH",
"97 362 OFFCURVE",
"38 323 OFFCURVE",
"38 264 CURVE SMOOTH"
);
},
{
closed = 1;
nodes = (
"124 127 OFFCURVE",
"149 142 OFFCURVE",
"190 142 CURVE SMOOTH",
"231 142 OFFCURVE",
"256 127 OFFCURVE",
"256 103 CURVE SMOOTH",
"256 79 OFFCURVE",
"231 64 OFFCURVE",
"190 64 CURVE SMOOTH",
"149 64 OFFCURVE",
"124 79 OFFCURVE",
"124 103 CURVE SMOOTH"
);
},
{
closed = 1;
nodes = (
"130 273 OFFCURVE",
"152 286 OFFCURVE",
"190 286 CURVE SMOOTH",
"228 286 OFFCURVE",
"250 273 OFFCURVE",
"250 253 CURVE SMOOTH",
"250 233 OFFCURVE",
"228 218 OFFCURVE",
"190 218 CURVE SMOOTH",
"152 218 OFFCURVE",
"130 233 OFFCURVE",
"130 253 CURVE SMOOTH"
);
}
);
width = 380;
},
{
layerId = "A285862E-BE3D-4D67-A40D-0E28E121AD88";
paths = (
{
closed = 1;
nodes = (
"46 215 OFFCURVE",
"85 191 OFFCURVE",
"114 184 CURVE",
"114 174 LINE",
"82 167 OFFCURVE",
"40 144 OFFCURVE",
"40 89 CURVE SMOOTH",
"40 31 OFFCURVE",
"98 -14 OFFCURVE",
"198 -14 CURVE SMOOTH",
"298 -14 OFFCURVE",
"356 31 OFFCURVE",
"356 89 CURVE SMOOTH",
"356 144 OFFCURVE",
"314 167 OFFCURVE",
"283 174 CURVE",
"283 184 LINE",
"311 191 OFFCURVE",
"350 215 OFFCURVE",
"350 265 CURVE SMOOTH",
"350 324 OFFCURVE",
"289 364 OFFCURVE",
"198 364 CURVE SMOOTH",
"107 364 OFFCURVE",
"46 324 OFFCURVE",
"46 265 CURVE SMOOTH"
);
},
{
closed = 1;
nodes = (
"84 135 OFFCURVE",
"127 159 OFFCURVE",
"198 159 CURVE SMOOTH",
"269 159 OFFCURVE",
"312 135 OFFCURVE",
"312 93 CURVE SMOOTH",
"312 50 OFFCURVE",
"269 26 OFFCURVE",
"198 26 CURVE SMOOTH",
"127 26 OFFCURVE",
"84 50 OFFCURVE",
"84 93 CURVE SMOOTH"
);
},
{
closed = 1;
nodes = (
"90 299 OFFCURVE",
"131 324 OFFCURVE",
"198 324 CURVE SMOOTH",
"265 324 OFFCURVE",
"306 299 OFFCURVE",
"306 262 CURVE SMOOTH",
"306 226 OFFCURVE",
"265 199 OFFCURVE",
"198 199 CURVE SMOOTH",
"131 199 OFFCURVE",
"90 226 OFFCURVE",
"90 262 CURVE SMOOTH"
);
}
);
width = 396;
}
);
leftKerningGroup = eight.dnom;
rightKerningGroup = eight.dnom;
},
{
glyphname = nine.dnom;
lastChange = "2020-04-22 10:50:52 +0000";
layers = (
{
layerId = "5117E3E8-E17C-4812-BAF5-9E7064564A59";
paths = (
{
closed = 1;
nodes = (
"35 92 LINE",
"44 35 OFFCURVE",
"99 -12 OFFCURVE",
"185 -12 CURVE SMOOTH",
"275 -12 OFFCURVE",
"342 40 OFFCURVE",
"342 124 CURVE SMOOTH",
"342 232 LINE SMOOTH",
"342 312 OFFCURVE",
"277 362 OFFCURVE",
"185 362 CURVE SMOOTH",
"93 362 OFFCURVE",
"28 312 OFFCURVE",
"28 236 CURVE SMOOTH",
"28 160 OFFCURVE",
"89 123 OFFCURVE",
"159 123 CURVE SMOOTH",
"200 123 OFFCURVE",
"224 138 OFFCURVE",
"234 148 CURVE",
"248 148 LINE",
"248 122 LINE SMOOTH",
"248 88 OFFCURVE",
"223 64 OFFCURVE",
"185 64 CURVE SMOOTH",
"148 64 OFFCURVE",
"134 82 OFFCURVE",
"130 99 CURVE"
);
},
{
closed = 1;
nodes = (
"248 210 OFFCURVE",
"225 190 OFFCURVE",
"185 190 CURVE SMOOTH",
"145 190 OFFCURVE",
"122 210 OFFCURVE",
"122 238 CURVE SMOOTH",
"122 266 OFFCURVE",
"145 286 OFFCURVE",
"185 286 CURVE SMOOTH",
"225 286 OFFCURVE",
"248 266 OFFCURVE",
"248 238 CURVE SMOOTH"
);
}
);
width = 378;
},
{
layerId = "A285862E-BE3D-4D67-A40D-0E28E121AD88";
paths = (
{
closed = 1;
nodes = (
"45 88 LINE",
"52 28 OFFCURVE",
"107 -14 OFFCURVE",
"196 -14 CURVE SMOOTH",
"287 -14 OFFCURVE",
"352 41 OFFCURVE",
"352 120 CURVE SMOOTH",
"352 239 LINE SMOOTH",
"352 314 OFFCURVE",
"287 364 OFFCURVE",
"195 364 CURVE SMOOTH",
"103 364 OFFCURVE",
"38 314 OFFCURVE",
"38 237 CURVE SMOOTH",
"38 160 OFFCURVE",
"103 114 OFFCURVE",
"183 114 CURVE SMOOTH",
"256 114 OFFCURVE",
"286 142 OFFCURVE",
"298 152 CURVE",
"308 152 LINE",
"308 120 LINE SMOOTH",
"308 66 OFFCURVE",
"266 26 OFFCURVE",
"196 26 CURVE SMOOTH",
"127 26 OFFCURVE",
"94 57 OFFCURVE",
"88 92 CURVE"
);
},
{
closed = 1;
nodes = (
"308 190 OFFCURVE",
"265 154 OFFCURVE",
"195 154 CURVE SMOOTH",
"125 154 OFFCURVE",
"82 190 OFFCURVE",
"82 238 CURVE SMOOTH",
"82 286 OFFCURVE",
"125 324 OFFCURVE",
"195 324 CURVE SMOOTH",
"265 324 OFFCURVE",
"308 286 OFFCURVE",
"308 238 CURVE SMOOTH"
);
}
);
width = 396;
}
);
leftKerningGroup = nine.dnom;
rightKerningGroup = nine.dnom;
},
{
glyphname = fraction;
lastChange = "2019-11-07 10:52:05 +0000";
layers = (
{
layerId = "A285862E-BE3D-4D67-A40D-0E28E121AD88";
paths = (
{
closed = 1;
nodes = (
"399 433 LINE",
"595 676 LINE",
"552 708 LINE",
"367 457 LINE"
);
},
{
closed = 1;
nodes = (
"221 267 LINE",
"25 24 LINE",
"68 -8 LINE",
"253 243 LINE"
);
}
);
width = 620;
},
{
layerId = "5117E3E8-E17C-4812-BAF5-9E7064564A59";
paths = (
{
closed = 1;
nodes = (
"414 413 LINE",
"617 639 LINE",
"514 716 LINE",
"350 461 LINE"
);
},
{
closed = 1;
nodes = (
"218 287 LINE",
"15 61 LINE",
"118 -16 LINE",
"282 239 LINE"
);
}
);
width = 632;
}
);
unicode = 2044;
},
{
glyphname = zero.dnom.zero;
lastChange = "2019-12-27 23:40:46 +0000";
layers = (
{
layerId = "5117E3E8-E17C-4812-BAF5-9E7064564A59";
paths = (
{
closed = 1;
nodes = (
"72 131 LINE",
"104 87 LINE",
"316 223 LINE",
"284 267 LINE"
);
},
{
closed = 1;
nodes = (
"36 141 LINE SMOOTH",
"36 47 OFFCURVE",
"93 -10 OFFCURVE",
"194 -10 CURVE SMOOTH",
"295 -10 OFFCURVE",
"352 47 OFFCURVE",
"352 141 CURVE SMOOTH",
"352 208 LINE SMOOTH",
"352 302 OFFCURVE",
"292 360 OFFCURVE",
"194 360 CURVE SMOOTH",
"93 360 OFFCURVE",
"36 302 OFFCURVE",
"36 208 CURVE SMOOTH"
);
},
{
closed = 1;
nodes = (
"130 256 OFFCURVE",
"152 284 OFFCURVE",
"194 284 CURVE SMOOTH",
"236 284 OFFCURVE",
"258 256 OFFCURVE",
"258 215 CURVE SMOOTH",
"258 135 LINE SMOOTH",
"258 94 OFFCURVE",
"236 66 OFFCURVE",
"194 66 CURVE SMOOTH",
"152 66 OFFCURVE",
"130 94 OFFCURVE",
"130 135 CURVE SMOOTH",
"130 215 LINE SMOOTH"
);
}
);
width = 388;
},
{
layerId = "A285862E-BE3D-4D67-A40D-0E28E121AD88";
paths = (
{
closed = 1;
nodes = (
"66 111 LINE",
"90 79 LINE",
"338 243 LINE",
"314 275 LINE"
);
},
{
closed = 1;
nodes = (
"44 149 LINE SMOOTH",
"44 51 OFFCURVE",
"104 -10 OFFCURVE",
"202 -10 CURVE SMOOTH",
"300 -10 OFFCURVE",
"360 51 OFFCURVE",
"360 149 CURVE SMOOTH",
"360 200 LINE SMOOTH",
"360 298 OFFCURVE",
"297 360 OFFCURVE",
"202 360 CURVE SMOOTH",
"104 360 OFFCURVE",
"44 298 OFFCURVE",
"44 200 CURVE SMOOTH"
);
},
{
closed = 1;
nodes = (
"88 274 OFFCURVE",
"131 320 OFFCURVE",
"202 320 CURVE SMOOTH",
"273 320 OFFCURVE",
"316 274 OFFCURVE",
"316 205 CURVE SMOOTH",
"316 145 LINE SMOOTH",
"316 76 OFFCURVE",
"273 30 OFFCURVE",
"202 30 CURVE SMOOTH",
"131 30 OFFCURVE",
"88 76 OFFCURVE",
"88 145 CURVE SMOOTH",
"88 205 LINE SMOOTH"
);
}
);
width = 404;
}
);
leftKerningGroup = zero.dnom;
leftMetricsKey = zero.dnom;
rightKerningGroup = zero.dnom;
rightMetricsKey = zero.dnom;
},
{
glyphname = period;
lastChange = "2019-10-10 15:29:34 +0000";
layers = (
{
layerId = "A285862E-BE3D-4D67-A40D-0E28E121AD88";
paths = (
{
closed = 1;
nodes = (
"56 8 OFFCURVE",
"78 -14 OFFCURVE",
"107 -14 CURVE SMOOTH",
"136 -14 OFFCURVE",
"158 8 OFFCURVE",
"158 37 CURVE SMOOTH",
"158 66 OFFCURVE",
"136 88 OFFCURVE",
"107 88 CURVE SMOOTH",
"78 88 OFFCURVE",
"56 66 OFFCURVE",
"56 37 CURVE SMOOTH"
);
}
);
width = 214;
},
{
layerId = "5117E3E8-E17C-4812-BAF5-9E7064564A59";
paths = (
{
closed = 1;
nodes = (
"46 25 OFFCURVE",
"87 -14 OFFCURVE",
"141 -14 CURVE SMOOTH",
"195 -14 OFFCURVE",
"236 25 OFFCURVE",
"236 81 CURVE SMOOTH",
"236 137 OFFCURVE",
"195 176 OFFCURVE",
"141 176 CURVE SMOOTH",
"87 176 OFFCURVE",
"46 137 OFFCURVE",
"46 81 CURVE SMOOTH"
);
}
);
width = 282;
}
);
leftKerningGroup = period;
note = period;
rightKerningGroup = period;
unicode = 002E;
},
{
glyphname = comma;
lastChange = "2019-10-10 15:31:38 +0000";
layers = (
{
layerId = "A285862E-BE3D-4D67-A40D-0E28E121AD88";
paths = (
{
closed = 1;
nodes = (
"56 9 OFFCURVE",
"79 -12 OFFCURVE",
"108 -12 CURVE SMOOTH",
"120 -12 LINE",
"120 -42 LINE SMOOTH",
"120 -63 OFFCURVE",
"111 -72 OFFCURVE",
"90 -72 CURVE SMOOTH",
"68 -72 LINE",
"68 -110 LINE",
"90 -110 LINE SMOOTH",
"138 -110 OFFCURVE",
"160 -88 OFFCURVE",
"160 -40 CURVE SMOOTH",
"160 35 LINE SMOOTH",
"160 65 OFFCURVE",
"137 86 OFFCURVE",
"108 86 CURVE SMOOTH",
"79 86 OFFCURVE",
"56 65 OFFCURVE",
"56 37 CURVE SMOOTH"
);
}
);
width = 216;
},
{
layerId = "5117E3E8-E17C-4812-BAF5-9E7064564A59";
paths = (
{
closed = 1;
nodes = (
"46 35 OFFCURVE",
"85 -1 OFFCURVE",
"139 -1 CURVE SMOOTH",
"156 -1 LINE",
"156 -33 LINE SMOOTH",
"156 -65 OFFCURVE",
"142 -79 OFFCURVE",
"110 -79 CURVE SMOOTH",
"71 -79 LINE",
"71 -147 LINE",
"120 -147 LINE SMOOTH",
"194 -147 OFFCURVE",
"232 -109 OFFCURVE",
"232 -35 CURVE SMOOTH",
"232 80 LINE SMOOTH",
"232 137 OFFCURVE",
"193 174 OFFCURVE",
"139 174 CURVE SMOOTH",
"85 174 OFFCURVE",
"46 137 OFFCURVE",
"46 84 CURVE SMOOTH"
);
}
);
width = 278;
}
);
leftKerningGroup = period;
leftMetricsKey = period;
note = comma;
rightKerningGroup = period;
rightMetricsKey = period;
unicode = 002C;
},
{
glyphname = exclam;
lastChange = "2019-10-10 15:36:49 +0000";
layers = (
{
components = (
{
name = period;
}
);
layerId = "A285862E-BE3D-4D67-A40D-0E28E121AD88";
paths = (
{
closed = 1;
nodes = (
"81 170 LINE",
"133 170 LINE",
"133 700 LINE",
"81 700 LINE"
);
}
);
width = 214;
},
{
components = (
{
name = period;
}
);
layerId = "5117E3E8-E17C-4812-BAF5-9E7064564A59";
paths = (
{
closed = 1;
nodes = (
"77 224 LINE",
"205 224 LINE",
"205 700 LINE",
"77 700 LINE"
);
}
);
width = 282;
}
);
leftMetricsKey = period;
note = exclam;
rightMetricsKey = period;
unicode = 0021;
},
{
glyphname = exclamdown;
lastChange = "2019-10-10 15:36:20 +0000";
layers = (
{
components = (
{
name = period;
transform = "{-1, 0, 0, -1, 214, 484}";
}
);
layerId = "A285862E-BE3D-4D67-A40D-0E28E121AD88";
paths = (
{
closed = 1;
nodes = (
"133 316 LINE",
"81 316 LINE",
"81 -200 LINE",
"133 -200 LINE"
);
}
);
width = 214;
},
{
components = (
{
name = period;
transform = "{-1, 0, 0, -1, 282, 496}";
}
);
layerId = "5117E3E8-E17C-4812-BAF5-9E7064564A59";
paths = (
{
closed = 1;
nodes = (
"205 272 LINE",
"77 272 LINE",
"77 -200 LINE",
"205 -200 LINE"
);
}
);
width = 282;
}
);
leftMetricsKey = period;
note = exclamdown;
rightMetricsKey = period;
unicode = 00A1;
},
{
glyphname = question;
lastChange = "2019-10-10 15:36:27 +0000";
layers = (
{
components = (
{
name = period;
transform = "{1, 0, 0, 1, 195, 0}";
}
);
layerId = "A285862E-BE3D-4D67-A40D-0E28E121AD88";
paths = (
{
closed = 1;
nodes = (
"68 462 LINE",
"120 462 LINE",
"120 505 LINE SMOOTH",
"120 615 OFFCURVE",
"213 668 OFFCURVE",
"315 668 CURVE SMOOTH",
"415 668 OFFCURVE",
"500 615 OFFCURVE",
"500 519 CURVE SMOOTH",
"500 433 OFFCURVE",
"453 394 OFFCURVE",
"380 364 CURVE SMOOTH",
"346 350 LINE SMOOTH",
"289 326 OFFCURVE",
"275 301 OFFCURVE",
"275 244 CURVE SMOOTH",
"275 170 LINE",
"327 170 LINE",
"327 246 LINE SMOOTH",
"327 280 OFFCURVE",
"337 296 OFFCURVE",
"363 307 CURVE SMOOTH",
"397 321 LINE SMOOTH",
"484 357 OFFCURVE",
"552 411 OFFCURVE",
"552 519 CURVE SMOOTH",
"552 631 OFFCURVE",
"457 714 OFFCURVE",
"315 714 CURVE SMOOTH",
"171 714 OFFCURVE",
"68 641 OFFCURVE",
"68 507 CURVE SMOOTH"
);
}
);
width = 622;
},
{
components = (
{
name = period;
transform = "{1, 0, 0, 1, 140, 0}";
}
);
layerId = "5117E3E8-E17C-4812-BAF5-9E7064564A59";
paths = (
{
closed = 1;
nodes = (
"40 472 LINE",
"170 472 LINE",
"170 494 LINE SMOOTH",
"170 566 OFFCURVE",
"224 602 OFFCURVE",
"296 602 CURVE SMOOTH",
"366 602 OFFCURVE",
"412 568 OFFCURVE",
"412 510 CURVE SMOOTH",
"412 456 OFFCURVE",
"379 429 OFFCURVE",
"319 401 CURVE SMOOTH",
"302 393 LINE SMOOTH",
"240 364 OFFCURVE",
"215 322 OFFCURVE",
"215 254 CURVE SMOOTH",
"215 224 LINE",
"347 224 LINE",
"347 248 LINE SMOOTH",
"347 277 OFFCURVE",
"355 290 OFFCURVE",
"379 301 CURVE SMOOTH",
"396 309 LINE SMOOTH",
"466 342 OFFCURVE",
"542 390 OFFCURVE",
"542 510 CURVE SMOOTH",
"542 630 OFFCURVE",
"438 714 OFFCURVE",
"296 714 CURVE SMOOTH",
"152 714 OFFCURVE",
"40 630 OFFCURVE",
"40 492 CURVE SMOOTH"
);
}
);
width = 588;
}
);
note = question;
unicode = 003F;
},
{
glyphname = questiondown;
lastChange = "2019-10-10 15:36:31 +0000";
layers = (
{
components = (
{
name = period;
transform = "{-1, 0, 0, -1, 427, 486}";
}
);
layerId = "A285862E-BE3D-4D67-A40D-0E28E121AD88";
paths = (
{
closed = 1;
nodes = (
"554 36 LINE",
"502 36 LINE",
"502 -7 LINE SMOOTH",
"502 -117 OFFCURVE",
"409 -170 OFFCURVE",
"307 -170 CURVE SMOOTH",
"207 -170 OFFCURVE",
"122 -117 OFFCURVE",
"122 -21 CURVE SMOOTH",
"122 65 OFFCURVE",
"169 104 OFFCURVE",
"242 134 CURVE SMOOTH",
"276 148 LINE SMOOTH",
"333 172 OFFCURVE",
"347 197 OFFCURVE",
"347 254 CURVE SMOOTH",
"347 316 LINE",
"295 316 LINE",
"295 252 LINE SMOOTH",
"295 218 OFFCURVE",
"285 202 OFFCURVE",
"259 191 CURVE SMOOTH",
"225 177 LINE SMOOTH",
"138 141 OFFCURVE",
"70 87 OFFCURVE",
"70 -21 CURVE SMOOTH",
"70 -133 OFFCURVE",
"165 -216 OFFCURVE",
"307 -216 CURVE SMOOTH",
"451 -216 OFFCURVE",
"554 -143 OFFCURVE",
"554 -9 CURVE SMOOTH"
);
}
);
width = 622;
},
{
components = (
{
name = period;
transform = "{-1, 0, 0, -1, 448, 496}";
}
);
layerId = "5117E3E8-E17C-4812-BAF5-9E7064564A59";
paths = (
{
closed = 1;
nodes = (
"548 28 LINE",
"418 28 LINE",
"418 6 LINE SMOOTH",
"418 -66 OFFCURVE",
"364 -102 OFFCURVE",
"292 -102 CURVE SMOOTH",
"222 -102 OFFCURVE",
"176 -68 OFFCURVE",
"176 -10 CURVE SMOOTH",
"176 44 OFFCURVE",
"209 71 OFFCURVE",
"269 99 CURVE SMOOTH",
"286 107 LINE SMOOTH",
"348 136 OFFCURVE",
"373 178 OFFCURVE",
"373 246 CURVE SMOOTH",
"373 272 LINE",
"241 272 LINE",
"241 252 LINE SMOOTH",
"241 223 OFFCURVE",
"233 210 OFFCURVE",
"209 199 CURVE SMOOTH",
"192 191 LINE SMOOTH",
"122 158 OFFCURVE",
"46 110 OFFCURVE",
"46 -10 CURVE SMOOTH",
"46 -130 OFFCURVE",
"150 -214 OFFCURVE",
"292 -214 CURVE SMOOTH",
"436 -214 OFFCURVE",
"548 -130 OFFCURVE",
"548 8 CURVE SMOOTH"
);
}
);
width = 588;
}
);
unicode = 00BF;
},
{
glyphname = bullet;
lastChange = "2017-07-18 09:12:28 +0000";
layers = (
{
layerId = "A285862E-BE3D-4D67-A40D-0E28E121AD88";
paths = (
{
closed = 1;
nodes = (
"52 294 OFFCURVE",
"99 247 OFFCURVE",
"155 247 CURVE SMOOTH",
"213 247 OFFCURVE",
"258 297 OFFCURVE",
"258 350 CURVE SMOOTH",
"258 405 OFFCURVE",
"210 453 OFFCURVE",
"155 453 CURVE SMOOTH",
"100 453 OFFCURVE",
"52 406 OFFCURVE",
"52 350 CURVE SMOOTH"
);
}
);
width = 310;
},
{
layerId = "5117E3E8-E17C-4812-BAF5-9E7064564A59";
paths = (
{
closed = 1;
nodes = (
"11 272 OFFCURVE",
"78 206 OFFCURVE",
"155 206 CURVE SMOOTH",
"230 206 OFFCURVE",
"299 268 OFFCURVE",
"299 350 CURVE SMOOTH",
"299 430 OFFCURVE",
"235 494 OFFCURVE",
"155 494 CURVE SMOOTH",
"75 494 OFFCURVE",
"11 428 OFFCURVE",
"11 350 CURVE SMOOTH"
);
}
);
width = 310;
}
);
note = bullet;
unicode = 2022;
},
